<?xml version="1.0" encoding="UTF-8" standalone="no"?>
<!DOCTYPE svg PUBLIC "-//W3C//DTD SVG 1.1//EN"
 "http://www.w3.org/Graphics/SVG/1.1/DTD/svg11.dtd">
<!-- Generated by graphviz version 8.0.5 (20230430.1635)
 -->
<!-- Pages: 1 -->
<svg width="3986pt" height="620pt"
 viewBox="0.00 0.00 3985.51 620.00" xmlns="http://www.w3.org/2000/svg" xmlns:xlink="http://www.w3.org/1999/xlink">
<g id="graph0" class="graph" transform="scale(1 1) rotate(0) translate(4 616)">
<polygon fill="white" stroke="none" points="-4,4 -4,-616 3981.51,-616 3981.51,4 -4,4"/>
<!-- 4386609216 -->
<g id="node1" class="node">
<title>4386609216</title>
<ellipse fill="none" stroke="black" cx="420.03" cy="-594" rx="147.57" ry="18"/>
<text text-anchor="start" x="319.9" y="-588.95" font-family="Times,serif" font-size="14.00">class &#39;javalang.tree.CompilationUnit&#39;</text>
</g>
<!-- 4386609264 -->
<g id="node2" class="node">
<title>4386609264</title>
<ellipse fill="none" stroke="black" cx="420.03" cy="-522" rx="147.57" ry="18"/>
<text text-anchor="start" x="319.9" y="-516.95" font-family="Times,serif" font-size="14.00">class &#39;javalang.tree.ClassDeclaration&#39;</text>
</g>
<!-- 4386609216&#45;&gt;4386609264 -->
<g id="edge1" class="edge">
<title>4386609216&#45;&gt;4386609264</title>
<path fill="none" stroke="black" d="M420.03,-575.7C420.03,-568.24 420.03,-559.32 420.03,-550.97"/>
<polygon fill="black" stroke="black" points="423.53,-551.1 420.03,-541.1 416.53,-551.1 423.53,-551.1"/>
</g>
<!-- 1 -->
<g id="node3" class="node">
<title>1</title>
<ellipse fill="none" stroke="black" cx="228.03" cy="-450" rx="27" ry="18"/>
<text text-anchor="middle" x="228.03" y="-444.95" font-family="Times,serif" font-size="14.00">Foo</text>
</g>
<!-- 4386609264&#45;&gt;1 -->
<g id="edge2" class="edge">
<title>4386609264&#45;&gt;1</title>
<path fill="none" stroke="black" d="M367.48,-504.8C336.97,-494.98 297.97,-481.73 264.03,-468 262.35,-467.32 260.65,-466.61 258.93,-465.87"/>
<polygon fill="black" stroke="black" points="260.73,-462.39 250.17,-461.47 257.85,-468.77 260.73,-462.39"/>
</g>
<!-- 4386615072 -->
<g id="node4" class="node">
<title>4386615072</title>
<ellipse fill="none" stroke="black" cx="420.03" cy="-450" rx="146.55" ry="18"/>
<text text-anchor="start" x="320.65" y="-444.95" font-family="Times,serif" font-size="14.00">class &#39;javalang.tree.FieldDeclaration&#39;</text>
</g>
<!-- 4386609264&#45;&gt;4386615072 -->
<g id="edge3" class="edge">
<title>4386609264&#45;&gt;4386615072</title>
<path fill="none" stroke="black" d="M420.03,-503.7C420.03,-496.24 420.03,-487.32 420.03,-478.97"/>
<polygon fill="black" stroke="black" points="423.53,-479.1 420.03,-469.1 416.53,-479.1 423.53,-479.1"/>
</g>
<!-- 4386609360 -->
<g id="node5" class="node">
<title>4386609360</title>
<ellipse fill="none" stroke="black" cx="979.03" cy="-450" rx="156.78" ry="18"/>
<text text-anchor="start" x="872.15" y="-444.95" font-family="Times,serif" font-size="14.00">class &#39;javalang.tree.MethodDeclaration&#39;</text>
</g>
<!-- 4386609264&#45;&gt;4386609360 -->
<g id="edge4" class="edge">
<title>4386609264&#45;&gt;4386609360</title>
<path fill="none" stroke="black" d="M520.29,-508.45C617.14,-496.32 763.66,-477.97 864.93,-465.29"/>
<polygon fill="black" stroke="black" points="865.33,-468.64 874.82,-463.92 864.46,-461.69 865.33,-468.64"/>
</g>
<!-- 4386608832 -->
<g id="node6" class="node">
<title>4386608832</title>
<ellipse fill="none" stroke="black" cx="124.03" cy="-378" rx="124.03" ry="18"/>
<text text-anchor="start" x="41.15" y="-372.95" font-family="Times,serif" font-size="14.00">class &#39;javalang.tree.BasicType&#39;</text>
</g>
<!-- 4386615072&#45;&gt;4386608832 -->
<g id="edge5" class="edge">
<title>4386615072&#45;&gt;4386608832</title>
<path fill="none" stroke="black" d="M354.34,-433.46C307.94,-422.49 245.72,-407.78 197.65,-396.41"/>
<polygon fill="black" stroke="black" points="198.54,-392.79 188,-393.89 196.93,-399.6 198.54,-392.79"/>
</g>
<!-- 4386615216 -->
<g id="node7" class="node">
<title>4386615216</title>
<ellipse fill="none" stroke="black" cx="420.03" cy="-378" rx="154.22" ry="18"/>
<text text-anchor="start" x="315.03" y="-372.95" font-family="Times,serif" font-size="14.00">class &#39;javalang.tree.VariableDeclarator&#39;</text>
</g>
<!-- 4386615072&#45;&gt;4386615216 -->
<g id="edge6" class="edge">
<title>4386615072&#45;&gt;4386615216</title>
<path fill="none" stroke="black" d="M420.03,-431.7C420.03,-424.24 420.03,-415.32 420.03,-406.97"/>
<polygon fill="black" stroke="black" points="423.53,-407.1 420.03,-397.1 416.53,-407.1 423.53,-407.1"/>
</g>
<!-- 5 -->
<g id="node12" class="node">
<title>5</title>
<ellipse fill="none" stroke="black" cx="619.03" cy="-378" rx="27" ry="18"/>
<text text-anchor="middle" x="619.03" y="-372.95" font-family="Times,serif" font-size="14.00">foo</text>
</g>
<!-- 4386609360&#45;&gt;5 -->
<g id="edge11" class="edge">
<title>4386609360&#45;&gt;5</title>
<path fill="none" stroke="black" d="M861.37,-437.77C799.07,-429.82 721.83,-416.79 655.03,-396 653.26,-395.45 651.46,-394.83 649.67,-394.16"/>
<polygon fill="black" stroke="black" points="651.15,-390.56 640.57,-389.9 648.43,-397.01 651.15,-390.56"/>
</g>
<!-- 4386607488 -->
<g id="node13" class="node">
<title>4386607488</title>
<ellipse fill="none" stroke="black" cx="814.03" cy="-378" rx="149.62" ry="18"/>
<text text-anchor="start" x="712.4" y="-372.95" font-family="Times,serif" font-size="14.00">class &#39;javalang.tree.FormalParameter&#39;</text>
</g>
<!-- 4386609360&#45;&gt;4386607488 -->
<g id="edge12" class="edge">
<title>4386609360&#45;&gt;4386607488</title>
<path fill="none" stroke="black" d="M939.51,-432.23C916.73,-422.57 887.9,-410.34 863.61,-400.04"/>
<polygon fill="black" stroke="black" points="865.09,-396.43 854.51,-395.75 862.35,-402.88 865.09,-396.43"/>
</g>
<!-- 4386608064 -->
<g id="node14" class="node">
<title>4386608064</title>
<ellipse fill="none" stroke="black" cx="1145.03" cy="-378" rx="162.93" ry="18"/>
<text text-anchor="start" x="1033.65" y="-372.95" font-family="Times,serif" font-size="14.00">class &#39;javalang.tree.StatementExpression&#39;</text>
</g>
<!-- 4386609360&#45;&gt;4386608064 -->
<g id="edge13" class="edge">
<title>4386609360&#45;&gt;4386608064</title>
<path fill="none" stroke="black" d="M1018.79,-432.23C1041.72,-422.56 1070.76,-410.32 1095.2,-400.01"/>
<polygon fill="black" stroke="black" points="1096.16,-402.98 1104.02,-395.87 1093.44,-396.53 1096.16,-402.98"/>
</g>
<!-- 4386607968 -->
<g id="node15" class="node">
<title>4386607968</title>
<ellipse fill="none" stroke="black" cx="1505.03" cy="-378" rx="179.3" ry="18"/>
<text text-anchor="start" x="1381.65" y="-372.95" font-family="Times,serif" font-size="14.00">class &#39;javalang.tree.LocalVariableDeclaration&#39;</text>
</g>
<!-- 4386609360&#45;&gt;4386607968 -->
<g id="edge14" class="edge">
<title>4386609360&#45;&gt;4386607968</title>
<path fill="none" stroke="black" d="M1078.89,-435.71C1167.31,-423.94 1296.39,-406.77 1389.29,-394.4"/>
<polygon fill="black" stroke="black" points="1389.7,-397.75 1399.15,-392.96 1388.77,-390.81 1389.7,-397.75"/>
</g>
<!-- 4386609456 -->
<g id="node16" class="node">
<title>4386609456</title>
<ellipse fill="none" stroke="black" cx="2852.03" cy="-378" rx="134.78" ry="18"/>
<text text-anchor="start" x="2761.28" y="-372.95" font-family="Times,serif" font-size="14.00">class &#39;javalang.tree.ForStatement&#39;</text>
</g>
<!-- 4386609360&#45;&gt;4386609456 -->
<g id="edge15" class="edge">
<title>4386609360&#45;&gt;4386609456</title>
<path fill="none" stroke="black" d="M1126,-443.51C1478.53,-430.33 2368.41,-397.07 2712.86,-384.2"/>
<polygon fill="black" stroke="black" points="2712.78,-387.67 2722.64,-383.8 2712.52,-380.67 2712.78,-387.67"/>
</g>
<!-- 2 -->
<g id="node8" class="node">
<title>2</title>
<ellipse fill="none" stroke="black" cx="124.03" cy="-306" rx="27" ry="18"/>
<text text-anchor="middle" x="124.03" y="-300.95" font-family="Times,serif" font-size="14.00">int</text>
</g>
<!-- 4386608832&#45;&gt;2 -->
<g id="edge7" class="edge">
<title>4386608832&#45;&gt;2</title>
<path fill="none" stroke="black" d="M124.03,-359.7C124.03,-352.24 124.03,-343.32 124.03,-334.97"/>
<polygon fill="black" stroke="black" points="127.53,-335.1 124.03,-325.1 120.53,-335.1 127.53,-335.1"/>
</g>
<!-- 3 -->
<g id="node9" class="node">
<title>3</title>
<ellipse fill="none" stroke="black" cx="279.03" cy="-306" rx="27" ry="18"/>
<text text-anchor="middle" x="279.03" y="-300.95" font-family="Times,serif" font-size="14.00">y</text>
</g>
<!-- 4386615216&#45;&gt;3 -->
<g id="edge8" class="edge">
<title>4386615216&#45;&gt;3</title>
<path fill="none" stroke="black" d="M385.9,-360.05C362.71,-348.55 332.31,-333.45 309.86,-322.3"/>
<polygon fill="black" stroke="black" points="311.67,-318.8 301.16,-317.49 308.56,-325.07 311.67,-318.8"/>
</g>
<!-- 4386615120 -->
<g id="node10" class="node">
<title>4386615120</title>
<ellipse fill="none" stroke="black" cx="433.03" cy="-306" rx="109.19" ry="18"/>
<text text-anchor="start" x="361.03" y="-300.95" font-family="Times,serif" font-size="14.00">class &#39;javalang.tree.Literal&#39;</text>
</g>
<!-- 4386615216&#45;&gt;4386615120 -->
<g id="edge9" class="edge">
<title>4386615216&#45;&gt;4386615120</title>
<path fill="none" stroke="black" d="M423.24,-359.7C424.64,-352.15 426.32,-343.12 427.89,-334.68"/>
<polygon fill="black" stroke="black" points="431.47,-335.58 429.85,-325.1 424.58,-334.3 431.47,-335.58"/>
</g>
<!-- 4 -->
<g id="node11" class="node">
<title>4</title>
<ellipse fill="none" stroke="black" cx="433.03" cy="-234" rx="27" ry="18"/>
<text text-anchor="middle" x="433.03" y="-228.95" font-family="Times,serif" font-size="14.00">0</text>
</g>
<!-- 4386615120&#45;&gt;4 -->
<g id="edge10" class="edge">
<title>4386615120&#45;&gt;4</title>
<path fill="none" stroke="black" d="M433.03,-287.7C433.03,-280.24 433.03,-271.32 433.03,-262.97"/>
<polygon fill="black" stroke="black" points="436.53,-263.1 433.03,-253.1 429.53,-263.1 436.53,-263.1"/>
</g>
<!-- 4386607536 -->
<g id="node17" class="node">
<title>4386607536</title>
<ellipse fill="none" stroke="black" cx="737.03" cy="-306" rx="124.03" ry="18"/>
<text text-anchor="start" x="654.15" y="-300.95" font-family="Times,serif" font-size="14.00">class &#39;javalang.tree.BasicType&#39;</text>
</g>
<!-- 4386607488&#45;&gt;4386607536 -->
<g id="edge16" class="edge">
<title>4386607488&#45;&gt;4386607536</title>
<path fill="none" stroke="black" d="M794.99,-359.7C785.58,-351.14 774.05,-340.66 763.76,-331.3"/>
<polygon fill="black" stroke="black" points="766.6,-329.24 756.84,-325.1 761.89,-334.42 766.6,-329.24"/>
</g>
<!-- 6 -->
<g id="node18" class="node">
<title>6</title>
<ellipse fill="none" stroke="black" cx="906.03" cy="-306" rx="27" ry="18"/>
<text text-anchor="middle" x="906.03" y="-300.95" font-family="Times,serif" font-size="14.00">x</text>
</g>
<!-- 4386607488&#45;&gt;6 -->
<g id="edge17" class="edge">
<title>4386607488&#45;&gt;6</title>
<path fill="none" stroke="black" d="M836.3,-360.05C849.47,-350.03 866.22,-337.29 880,-326.8"/>
<polygon fill="black" stroke="black" points="881.73,-329.13 887.56,-320.29 877.49,-323.56 881.73,-329.13"/>
</g>
<!-- 4386608016 -->
<g id="node20" class="node">
<title>4386608016</title>
<ellipse fill="none" stroke="black" cx="1131.03" cy="-306" rx="153.2" ry="18"/>
<text text-anchor="start" x="1026.78" y="-300.95" font-family="Times,serif" font-size="14.00">class &#39;javalang.tree.MethodInvocation&#39;</text>
</g>
<!-- 4386608064&#45;&gt;4386608016 -->
<g id="edge19" class="edge">
<title>4386608064&#45;&gt;4386608016</title>
<path fill="none" stroke="black" d="M1141.57,-359.7C1140.06,-352.15 1138.25,-343.12 1136.56,-334.68"/>
<polygon fill="black" stroke="black" points="1139.84,-334.22 1134.45,-325.1 1132.98,-335.6 1139.84,-334.22"/>
</g>
<!-- 4386607632 -->
<g id="node25" class="node">
<title>4386607632</title>
<ellipse fill="none" stroke="black" cx="1426.03" cy="-306" rx="124.03" ry="18"/>
<text text-anchor="start" x="1343.15" y="-300.95" font-family="Times,serif" font-size="14.00">class &#39;javalang.tree.BasicType&#39;</text>
</g>
<!-- 4386607968&#45;&gt;4386607632 -->
<g id="edge24" class="edge">
<title>4386607968&#45;&gt;4386607632</title>
<path fill="none" stroke="black" d="M1485.5,-359.7C1475.84,-351.14 1464.01,-340.66 1453.46,-331.3"/>
<polygon fill="black" stroke="black" points="1456.14,-329.12 1446.33,-325.1 1451.5,-334.36 1456.14,-329.12"/>
</g>
<!-- 4386607920 -->
<g id="node26" class="node">
<title>4386607920</title>
<ellipse fill="none" stroke="black" cx="1722.03" cy="-306" rx="154.22" ry="18"/>
<text text-anchor="start" x="1617.03" y="-300.95" font-family="Times,serif" font-size="14.00">class &#39;javalang.tree.VariableDeclarator&#39;</text>
</g>
<!-- 4386607968&#45;&gt;4386607920 -->
<g id="edge25" class="edge">
<title>4386607968&#45;&gt;4386607920</title>
<path fill="none" stroke="black" d="M1556.73,-360.32C1587.95,-350.25 1627.91,-337.36 1660.72,-326.78"/>
<polygon fill="black" stroke="black" points="1661.66,-329.83 1670.1,-323.43 1659.51,-323.17 1661.66,-329.83"/>
</g>
<!-- 4386609696 -->
<g id="node36" class="node">
<title>4386609696</title>
<ellipse fill="none" stroke="black" cx="2852.03" cy="-306" rx="125.56" ry="18"/>
<text text-anchor="start" x="2768.03" y="-300.95" font-family="Times,serif" font-size="14.00">class &#39;javalang.tree.ForControl&#39;</text>
</g>
<!-- 4386609456&#45;&gt;4386609696 -->
<g id="edge35" class="edge">
<title>4386609456&#45;&gt;4386609696</title>
<path fill="none" stroke="black" d="M2852.03,-359.7C2852.03,-352.24 2852.03,-343.32 2852.03,-334.97"/>
<polygon fill="black" stroke="black" points="2855.53,-335.1 2852.03,-325.1 2848.53,-335.1 2855.53,-335.1"/>
</g>
<!-- 4386609648 -->
<g id="node37" class="node">
<title>4386609648</title>
<ellipse fill="none" stroke="black" cx="3450.03" cy="-306" rx="143.99" ry="18"/>
<text text-anchor="start" x="3352.53" y="-300.95" font-family="Times,serif" font-size="14.00">class &#39;javalang.tree.BlockStatement&#39;</text>
</g>
<!-- 4386609456&#45;&gt;4386609648 -->
<g id="edge36" class="edge">
<title>4386609456&#45;&gt;4386609648</title>
<path fill="none" stroke="black" d="M2950.78,-365.44C3056.91,-353.02 3225.34,-333.3 3336.77,-320.26"/>
<polygon fill="black" stroke="black" points="3336.85,-323.66 3346.37,-319.02 3336.04,-316.7 3336.85,-323.66"/>
</g>
<!-- 7 -->
<g id="node19" class="node">
<title>7</title>
<ellipse fill="none" stroke="black" cx="737.03" cy="-234" rx="27" ry="18"/>
<text text-anchor="middle" x="737.03" y="-228.95" font-family="Times,serif" font-size="14.00">int</text>
</g>
<!-- 4386607536&#45;&gt;7 -->
<g id="edge18" class="edge">
<title>4386607536&#45;&gt;7</title>
<path fill="none" stroke="black" d="M737.03,-287.7C737.03,-280.24 737.03,-271.32 737.03,-262.97"/>
<polygon fill="black" stroke="black" points="740.53,-263.1 737.03,-253.1 733.53,-263.1 740.53,-263.1"/>
</g>
<!-- 8 -->
<g id="node21" class="node">
<title>8</title>
<ellipse fill="none" stroke="black" cx="951.03" cy="-234" rx="52.89" ry="18"/>
<text text-anchor="middle" x="951.03" y="-228.95" font-family="Times,serif" font-size="14.00">System.out</text>
</g>
<!-- 4386608016&#45;&gt;8 -->
<g id="edge20" class="edge">
<title>4386608016&#45;&gt;8</title>
<path fill="none" stroke="black" d="M1088.37,-288.41C1060.22,-277.46 1023.44,-263.16 995.02,-252.11"/>
<polygon fill="black" stroke="black" points="996.55,-248.56 985.96,-248.2 994.02,-255.08 996.55,-248.56"/>
</g>
<!-- 4386607680 -->
<g id="node22" class="node">
<title>4386607680</title>
<ellipse fill="none" stroke="black" cx="1131.03" cy="-234" rx="109.19" ry="18"/>
<text text-anchor="start" x="1059.03" y="-228.95" font-family="Times,serif" font-size="14.00">class &#39;javalang.tree.Literal&#39;</text>
</g>
<!-- 4386608016&#45;&gt;4386607680 -->
<g id="edge21" class="edge">
<title>4386608016&#45;&gt;4386607680</title>
<path fill="none" stroke="black" d="M1131.03,-287.7C1131.03,-280.24 1131.03,-271.32 1131.03,-262.97"/>
<polygon fill="black" stroke="black" points="1134.53,-263.1 1131.03,-253.1 1127.53,-263.1 1134.53,-263.1"/>
</g>
<!-- 9 -->
<g id="node23" class="node">
<title>9</title>
<ellipse fill="none" stroke="black" cx="1294.03" cy="-234" rx="35.49" ry="18"/>
<text text-anchor="middle" x="1294.03" y="-228.95" font-family="Times,serif" font-size="14.00">println</text>
</g>
<!-- 4386608016&#45;&gt;9 -->
<g id="edge22" class="edge">
<title>4386608016&#45;&gt;9</title>
<path fill="none" stroke="black" d="M1170.07,-288.23C1196.68,-276.81 1231.66,-261.78 1257.68,-250.61"/>
<polygon fill="black" stroke="black" points="1258.71,-253.55 1266.52,-246.38 1255.95,-247.11 1258.71,-253.55"/>
</g>
<!-- 10 -->
<g id="node24" class="node">
<title>10</title>
<ellipse fill="none" stroke="black" cx="1131.03" cy="-162" rx="67.22" ry="18"/>
<text text-anchor="middle" x="1131.03" y="-156.95" font-family="Times,serif" font-size="14.00">&quot;Hello Clone!&quot;</text>
</g>
<!-- 4386607680&#45;&gt;10 -->
<g id="edge23" class="edge">
<title>4386607680&#45;&gt;10</title>
<path fill="none" stroke="black" d="M1131.03,-215.7C1131.03,-208.24 1131.03,-199.32 1131.03,-190.97"/>
<polygon fill="black" stroke="black" points="1134.53,-191.1 1131.03,-181.1 1127.53,-191.1 1134.53,-191.1"/>
</g>
<!-- 11 -->
<g id="node27" class="node">
<title>11</title>
<ellipse fill="none" stroke="black" cx="1426.03" cy="-234" rx="27" ry="18"/>
<text text-anchor="middle" x="1426.03" y="-228.95" font-family="Times,serif" font-size="14.00">int</text>
</g>
<!-- 4386607632&#45;&gt;11 -->
<g id="edge26" class="edge">
<title>4386607632&#45;&gt;11</title>
<path fill="none" stroke="black" d="M1426.03,-287.7C1426.03,-280.24 1426.03,-271.32 1426.03,-262.97"/>
<polygon fill="black" stroke="black" points="1429.53,-263.1 1426.03,-253.1 1422.53,-263.1 1429.53,-263.1"/>
</g>
<!-- 12 -->
<g id="node28" class="node">
<title>12</title>
<ellipse fill="none" stroke="black" cx="1530.03" cy="-234" rx="27" ry="18"/>
<text text-anchor="middle" x="1530.03" y="-228.95" font-family="Times,serif" font-size="14.00">j</text>
</g>
<!-- 4386607920&#45;&gt;12 -->
<g id="edge27" class="edge">
<title>4386607920&#45;&gt;12</title>
<path fill="none" stroke="black" d="M1669.13,-288.68C1638.67,-278.87 1599.84,-265.67 1566.03,-252 1564.35,-251.32 1562.65,-250.61 1560.93,-249.87"/>
<polygon fill="black" stroke="black" points="1562.73,-246.39 1552.17,-245.47 1559.85,-252.77 1562.73,-246.39"/>
</g>
<!-- 4386607872 -->
<g id="node29" class="node">
<title>4386607872</title>
<ellipse fill="none" stroke="black" cx="1722.03" cy="-234" rx="146.55" ry="18"/>
<text text-anchor="start" x="1622.65" y="-228.95" font-family="Times,serif" font-size="14.00">class &#39;javalang.tree.BinaryOperation&#39;</text>
</g>
<!-- 4386607920&#45;&gt;4386607872 -->
<g id="edge28" class="edge">
<title>4386607920&#45;&gt;4386607872</title>
<path fill="none" stroke="black" d="M1722.03,-287.7C1722.03,-280.24 1722.03,-271.32 1722.03,-262.97"/>
<polygon fill="black" stroke="black" points="1725.53,-263.1 1722.03,-253.1 1718.53,-263.1 1725.53,-263.1"/>
</g>
<!-- 13 -->
<g id="node30" class="node">
<title>13</title>
<ellipse fill="none" stroke="black" cx="1427.03" cy="-162" rx="27" ry="18"/>
<text text-anchor="middle" x="1427.03" y="-156.95" font-family="Times,serif" font-size="14.00">+</text>
</g>
<!-- 4386607872&#45;&gt;13 -->
<g id="edge29" class="edge">
<title>4386607872&#45;&gt;13</title>
<path fill="none" stroke="black" d="M1629.83,-219.65C1579.73,-211.03 1517.13,-198.02 1463.03,-180 1461.31,-179.43 1459.58,-178.8 1457.84,-178.12"/>
<polygon fill="black" stroke="black" points="1459.57,-174.63 1449,-173.93 1456.83,-181.07 1459.57,-174.63"/>
</g>
<!-- 4386607824 -->
<g id="node31" class="node">
<title>4386607824</title>
<ellipse fill="none" stroke="black" cx="1581.03" cy="-162" rx="109.19" ry="18"/>
<text text-anchor="start" x="1509.03" y="-156.95" font-family="Times,serif" font-size="14.00">class &#39;javalang.tree.Literal&#39;</text>
</g>
<!-- 4386607872&#45;&gt;4386607824 -->
<g id="edge30" class="edge">
<title>4386607872&#45;&gt;4386607824</title>
<path fill="none" stroke="black" d="M1687.9,-216.05C1668.7,-206.53 1644.56,-194.54 1624.08,-184.37"/>
<polygon fill="black" stroke="black" points="1625.87,-180.86 1615.36,-179.55 1622.76,-187.13 1625.87,-180.86"/>
</g>
<!-- 4386607728 -->
<g id="node32" class="node">
<title>4386607728</title>
<ellipse fill="none" stroke="black" cx="1862.03" cy="-162" rx="154.22" ry="18"/>
<text text-anchor="start" x="1757.03" y="-156.95" font-family="Times,serif" font-size="14.00">class &#39;javalang.tree.MemberReference&#39;</text>
</g>
<!-- 4386607872&#45;&gt;4386607728 -->
<g id="edge31" class="edge">
<title>4386607872&#45;&gt;4386607728</title>
<path fill="none" stroke="black" d="M1755.92,-216.05C1774.7,-206.67 1798.25,-194.89 1818.39,-184.82"/>
<polygon fill="black" stroke="black" points="1819.59,-187.63 1826.96,-180.03 1816.46,-181.37 1819.59,-187.63"/>
</g>
<!-- 14 -->
<g id="node33" class="node">
<title>14</title>
<ellipse fill="none" stroke="black" cx="1581.03" cy="-90" rx="27" ry="18"/>
<text text-anchor="middle" x="1581.03" y="-84.95" font-family="Times,serif" font-size="14.00">10</text>
</g>
<!-- 4386607824&#45;&gt;14 -->
<g id="edge32" class="edge">
<title>4386607824&#45;&gt;14</title>
<path fill="none" stroke="black" d="M1581.03,-143.7C1581.03,-136.24 1581.03,-127.32 1581.03,-118.97"/>
<polygon fill="black" stroke="black" points="1584.53,-119.1 1581.03,-109.1 1577.53,-119.1 1584.53,-119.1"/>
</g>
<!-- 15 -->
<g id="node34" class="node">
<title>15</title>
<ellipse fill="none" stroke="black" cx="1826.03" cy="-90" rx="27" ry="18"/>
</g>
<!-- 4386607728&#45;&gt;15 -->
<g id="edge33" class="edge">
<title>4386607728&#45;&gt;15</title>
<path fill="none" stroke="black" d="M1853.13,-143.7C1848.95,-135.58 1843.89,-125.74 1839.28,-116.76"/>
<polygon fill="black" stroke="black" points="1842.02,-115.44 1834.33,-108.14 1835.79,-118.64 1842.02,-115.44"/>
</g>
<!-- 16 -->
<g id="node35" class="node">
<title>16</title>
<ellipse fill="none" stroke="black" cx="1898.03" cy="-90" rx="27" ry="18"/>
<text text-anchor="middle" x="1898.03" y="-84.95" font-family="Times,serif" font-size="14.00">y</text>
</g>
<!-- 4386607728&#45;&gt;16 -->
<g id="edge34" class="edge">
<title>4386607728&#45;&gt;16</title>
<path fill="none" stroke="black" d="M1870.93,-143.7C1875.1,-135.58 1880.16,-125.74 1884.78,-116.76"/>
<polygon fill="black" stroke="black" points="1888.26,-118.64 1889.73,-108.14 1882.04,-115.44 1888.26,-118.64"/>
</g>
<!-- 4386608112 -->
<g id="node38" class="node">
<title>4386608112</title>
<ellipse fill="none" stroke="black" cx="2454.03" cy="-234" rx="158.32" ry="18"/>
<text text-anchor="start" x="2346.03" y="-228.95" font-family="Times,serif" font-size="14.00">class &#39;javalang.tree.VariableDeclaration&#39;</text>
</g>
<!-- 4386609696&#45;&gt;4386608112 -->
<g id="edge37" class="edge">
<title>4386609696&#45;&gt;4386608112</title>
<path fill="none" stroke="black" d="M2774.82,-291.42C2709.99,-280.02 2617.14,-263.69 2548,-251.53"/>
<polygon fill="black" stroke="black" points="2549.01,-247.98 2538.55,-249.69 2547.79,-254.87 2549.01,-247.98"/>
</g>
<!-- 4386609792 -->
<g id="node39" class="node">
<title>4386609792</title>
<ellipse fill="none" stroke="black" cx="2852.03" cy="-234" rx="146.55" ry="18"/>
<text text-anchor="start" x="2752.65" y="-228.95" font-family="Times,serif" font-size="14.00">class &#39;javalang.tree.BinaryOperation&#39;</text>
</g>
<!-- 4386609696&#45;&gt;4386609792 -->
<g id="edge38" class="edge">
<title>4386609696&#45;&gt;4386609792</title>
<path fill="none" stroke="black" d="M2852.03,-287.7C2852.03,-280.24 2852.03,-271.32 2852.03,-262.97"/>
<polygon fill="black" stroke="black" points="2855.53,-263.1 2852.03,-253.1 2848.53,-263.1 2855.53,-263.1"/>
</g>
<!-- 4386609744 -->
<g id="node40" class="node">
<title>4386609744</title>
<ellipse fill="none" stroke="black" cx="3416.03" cy="-234" rx="154.22" ry="18"/>
<text text-anchor="start" x="3311.03" y="-228.95" font-family="Times,serif" font-size="14.00">class &#39;javalang.tree.MemberReference&#39;</text>
</g>
<!-- 4386609696&#45;&gt;4386609744 -->
<g id="edge39" class="edge">
<title>4386609696&#45;&gt;4386609744</title>
<path fill="none" stroke="black" d="M2944.53,-293.52C3042.42,-281.37 3197.01,-262.18 3302.29,-249.12"/>
<polygon fill="black" stroke="black" points="3302.46,-252.5 3311.96,-247.79 3301.6,-245.55 3302.46,-252.5"/>
</g>
<!-- 4386609120 -->
<g id="node57" class="node">
<title>4386609120</title>
<ellipse fill="none" stroke="black" cx="3769.03" cy="-234" rx="162.93" ry="18"/>
<text text-anchor="start" x="3657.65" y="-228.95" font-family="Times,serif" font-size="14.00">class &#39;javalang.tree.StatementExpression&#39;</text>
</g>
<!-- 4386609648&#45;&gt;4386609120 -->
<g id="edge56" class="edge">
<title>4386609648&#45;&gt;4386609120</title>
<path fill="none" stroke="black" d="M3519.25,-289.81C3568.62,-278.98 3635.2,-264.37 3687.21,-252.95"/>
<polygon fill="black" stroke="black" points="3687.72,-256.21 3696.74,-250.64 3686.22,-249.37 3687.72,-256.21"/>
</g>
<!-- 4386608304 -->
<g id="node41" class="node">
<title>4386608304</title>
<ellipse fill="none" stroke="black" cx="2158.03" cy="-162" rx="124.03" ry="18"/>
<text text-anchor="start" x="2075.15" y="-156.95" font-family="Times,serif" font-size="14.00">class &#39;javalang.tree.BasicType&#39;</text>
</g>
<!-- 4386608112&#45;&gt;4386608304 -->
<g id="edge40" class="edge">
<title>4386608112&#45;&gt;4386608304</title>
<path fill="none" stroke="black" d="M2387.6,-217.29C2341.33,-206.35 2279.59,-191.75 2231.79,-180.44"/>
<polygon fill="black" stroke="black" points="2232.73,-176.83 2222.19,-177.94 2231.12,-183.65 2232.73,-176.83"/>
</g>
<!-- 4386608448 -->
<g id="node42" class="node">
<title>4386608448</title>
<ellipse fill="none" stroke="black" cx="2454.03" cy="-162" rx="154.22" ry="18"/>
<text text-anchor="start" x="2349.03" y="-156.95" font-family="Times,serif" font-size="14.00">class &#39;javalang.tree.VariableDeclarator&#39;</text>
</g>
<!-- 4386608112&#45;&gt;4386608448 -->
<g id="edge41" class="edge">
<title>4386608112&#45;&gt;4386608448</title>
<path fill="none" stroke="black" d="M2454.03,-215.7C2454.03,-208.24 2454.03,-199.32 2454.03,-190.97"/>
<polygon fill="black" stroke="black" points="2457.53,-191.1 2454.03,-181.1 2450.53,-191.1 2457.53,-191.1"/>
</g>
<!-- 20 -->
<g id="node47" class="node">
<title>20</title>
<ellipse fill="none" stroke="black" cx="2653.03" cy="-162" rx="27" ry="18"/>
<text text-anchor="middle" x="2653.03" y="-156.95" font-family="Times,serif" font-size="14.00">&lt;</text>
</g>
<!-- 4386609792&#45;&gt;20 -->
<g id="edge46" class="edge">
<title>4386609792&#45;&gt;20</title>
<path fill="none" stroke="black" d="M2796.71,-216.92C2764.86,-207.2 2724.29,-193.99 2689.03,-180 2687.35,-179.33 2685.64,-178.63 2683.92,-177.89"/>
<polygon fill="black" stroke="black" points="2685.71,-174.41 2675.15,-173.52 2682.85,-180.8 2685.71,-174.41"/>
</g>
<!-- 4386608592 -->
<g id="node48" class="node">
<title>4386608592</title>
<ellipse fill="none" stroke="black" cx="2852.03" cy="-162" rx="154.22" ry="18"/>
<text text-anchor="start" x="2747.03" y="-156.95" font-family="Times,serif" font-size="14.00">class &#39;javalang.tree.MemberReference&#39;</text>
</g>
<!-- 4386609792&#45;&gt;4386608592 -->
<g id="edge47" class="edge">
<title>4386609792&#45;&gt;4386608592</title>
<path fill="none" stroke="black" d="M2852.03,-215.7C2852.03,-208.24 2852.03,-199.32 2852.03,-190.97"/>
<polygon fill="black" stroke="black" points="2855.53,-191.1 2852.03,-181.1 2848.53,-191.1 2855.53,-191.1"/>
</g>
<!-- 4386609840 -->
<g id="node49" class="node">
<title>4386609840</title>
<ellipse fill="none" stroke="black" cx="3178.03" cy="-162" rx="154.22" ry="18"/>
<text text-anchor="start" x="3073.03" y="-156.95" font-family="Times,serif" font-size="14.00">class &#39;javalang.tree.MemberReference&#39;</text>
</g>
<!-- 4386609792&#45;&gt;4386609840 -->
<g id="edge48" class="edge">
<title>4386609792&#45;&gt;4386609840</title>
<path fill="none" stroke="black" d="M2922.77,-217.81C2973.77,-206.86 3042.73,-192.05 3096.12,-180.59"/>
<polygon fill="black" stroke="black" points="3096.54,-183.86 3105.59,-178.34 3095.07,-177.02 3096.54,-183.86"/>
</g>
<!-- 4386643952 -->
<g id="node54" class="node">
<title>4386643952</title>
<ellipse fill="none" stroke="black" cx="3407.03" cy="-162" rx="56.98" ry="18"/>
<text text-anchor="middle" x="3407.03" y="-156.95" font-family="Times,serif" font-size="14.00">4386643952</text>
</g>
<!-- 4386609744&#45;&gt;4386643952 -->
<g id="edge53" class="edge">
<title>4386609744&#45;&gt;4386643952</title>
<path fill="none" stroke="black" d="M3413.8,-215.7C3412.84,-208.24 3411.7,-199.32 3410.62,-190.97"/>
<polygon fill="black" stroke="black" points="3413.97,-190.58 3409.23,-181.1 3407.03,-191.47 3413.97,-190.58"/>
</g>
<!-- 25 -->
<g id="node55" class="node">
<title>25</title>
<ellipse fill="none" stroke="black" cx="3509.03" cy="-162" rx="27" ry="18"/>
</g>
<!-- 4386609744&#45;&gt;25 -->
<g id="edge54" class="edge">
<title>4386609744&#45;&gt;25</title>
<path fill="none" stroke="black" d="M3438.54,-216.05C3451.95,-205.96 3469.02,-193.12 3483,-182.59"/>
<polygon fill="black" stroke="black" points="3484.79,-184.87 3490.67,-176.06 3480.58,-179.28 3484.79,-184.87"/>
</g>
<!-- 26 -->
<g id="node56" class="node">
<title>26</title>
<ellipse fill="none" stroke="black" cx="3581.03" cy="-162" rx="27" ry="18"/>
<text text-anchor="middle" x="3581.03" y="-156.95" font-family="Times,serif" font-size="14.00">i</text>
</g>
<!-- 4386609744&#45;&gt;26 -->
<g id="edge55" class="edge">
<title>4386609744&#45;&gt;26</title>
<path fill="none" stroke="black" d="M3458.38,-216.24C3483.67,-206.07 3516.34,-192.66 3545.03,-180 3546.49,-179.35 3547.98,-178.69 3549.49,-178.01"/>
<polygon fill="black" stroke="black" points="3550.8,-180.8 3558.41,-173.43 3547.86,-174.44 3550.8,-180.8"/>
</g>
<!-- 17 -->
<g id="node43" class="node">
<title>17</title>
<ellipse fill="none" stroke="black" cx="2158.03" cy="-90" rx="27" ry="18"/>
<text text-anchor="middle" x="2158.03" y="-84.95" font-family="Times,serif" font-size="14.00">int</text>
</g>
<!-- 4386608304&#45;&gt;17 -->
<g id="edge42" class="edge">
<title>4386608304&#45;&gt;17</title>
<path fill="none" stroke="black" d="M2158.03,-143.7C2158.03,-136.24 2158.03,-127.32 2158.03,-118.97"/>
<polygon fill="black" stroke="black" points="2161.53,-119.1 2158.03,-109.1 2154.53,-119.1 2161.53,-119.1"/>
</g>
<!-- 18 -->
<g id="node44" class="node">
<title>18</title>
<ellipse fill="none" stroke="black" cx="2377.03" cy="-90" rx="27" ry="18"/>
<text text-anchor="middle" x="2377.03" y="-84.95" font-family="Times,serif" font-size="14.00">i</text>
</g>
<!-- 4386608448&#45;&gt;18 -->
<g id="edge43" class="edge">
<title>4386608448&#45;&gt;18</title>
<path fill="none" stroke="black" d="M2434.99,-143.7C2424.49,-134.15 2411.36,-122.21 2400.26,-112.12"/>
<polygon fill="black" stroke="black" points="2402.99,-109.96 2393.24,-105.82 2398.28,-115.14 2402.99,-109.96"/>
</g>
<!-- 4386608496 -->
<g id="node45" class="node">
<title>4386608496</title>
<ellipse fill="none" stroke="black" cx="2531.03" cy="-90" rx="109.19" ry="18"/>
<text text-anchor="start" x="2459.03" y="-84.95" font-family="Times,serif" font-size="14.00">class &#39;javalang.tree.Literal&#39;</text>
</g>
<!-- 4386608448&#45;&gt;4386608496 -->
<g id="edge44" class="edge">
<title>4386608448&#45;&gt;4386608496</title>
<path fill="none" stroke="black" d="M2473.06,-143.7C2482.48,-135.14 2494.01,-124.66 2504.29,-115.3"/>
<polygon fill="black" stroke="black" points="2506.17,-118.42 2511.21,-109.1 2501.46,-113.24 2506.17,-118.42"/>
</g>
<!-- 19 -->
<g id="node46" class="node">
<title>19</title>
<ellipse fill="none" stroke="black" cx="2531.03" cy="-18" rx="27" ry="18"/>
<text text-anchor="middle" x="2531.03" y="-12.95" font-family="Times,serif" font-size="14.00">0</text>
</g>
<!-- 4386608496&#45;&gt;19 -->
<g id="edge45" class="edge">
<title>4386608496&#45;&gt;19</title>
<path fill="none" stroke="black" d="M2531.03,-71.7C2531.03,-64.24 2531.03,-55.32 2531.03,-46.97"/>
<polygon fill="black" stroke="black" points="2534.53,-47.1 2531.03,-37.1 2527.53,-47.1 2534.53,-47.1"/>
</g>
<!-- 21 -->
<g id="node50" class="node">
<title>21</title>
<ellipse fill="none" stroke="black" cx="2816.03" cy="-90" rx="27" ry="18"/>
</g>
<!-- 4386608592&#45;&gt;21 -->
<g id="edge49" class="edge">
<title>4386608592&#45;&gt;21</title>
<path fill="none" stroke="black" d="M2843.13,-143.7C2838.95,-135.58 2833.89,-125.74 2829.28,-116.76"/>
<polygon fill="black" stroke="black" points="2832.02,-115.44 2824.33,-108.14 2825.79,-118.64 2832.02,-115.44"/>
</g>
<!-- 22 -->
<g id="node51" class="node">
<title>22</title>
<ellipse fill="none" stroke="black" cx="2888.03" cy="-90" rx="27" ry="18"/>
<text text-anchor="middle" x="2888.03" y="-84.95" font-family="Times,serif" font-size="14.00">i</text>
</g>
<!-- 4386608592&#45;&gt;22 -->
<g id="edge50" class="edge">
<title>4386608592&#45;&gt;22</title>
<path fill="none" stroke="black" d="M2860.93,-143.7C2865.1,-135.58 2870.16,-125.74 2874.78,-116.76"/>
<polygon fill="black" stroke="black" points="2878.26,-118.64 2879.73,-108.14 2872.04,-115.44 2878.26,-118.64"/>
</g>
<!-- 23 -->
<g id="node52" class="node">
<title>23</title>
<ellipse fill="none" stroke="black" cx="3142.03" cy="-90" rx="27" ry="18"/>
</g>
<!-- 4386609840&#45;&gt;23 -->
<g id="edge51" class="edge">
<title>4386609840&#45;&gt;23</title>
<path fill="none" stroke="black" d="M3169.13,-143.7C3164.95,-135.58 3159.89,-125.74 3155.28,-116.76"/>
<polygon fill="black" stroke="black" points="3158.02,-115.44 3150.33,-108.14 3151.79,-118.64 3158.02,-115.44"/>
</g>
<!-- 24 -->
<g id="node53" class="node">
<title>24</title>
<ellipse fill="none" stroke="black" cx="3214.03" cy="-90" rx="27" ry="18"/>
<text text-anchor="middle" x="3214.03" y="-84.95" font-family="Times,serif" font-size="14.00">x</text>
</g>
<!-- 4386609840&#45;&gt;24 -->
<g id="edge52" class="edge">
<title>4386609840&#45;&gt;24</title>
<path fill="none" stroke="black" d="M3186.93,-143.7C3191.1,-135.58 3196.16,-125.74 3200.78,-116.76"/>
<polygon fill="black" stroke="black" points="3204.26,-118.64 3205.73,-108.14 3198.04,-115.44 3204.26,-118.64"/>
</g>
<!-- 4386609168 -->
<g id="node58" class="node">
<title>4386609168</title>
<ellipse fill="none" stroke="black" cx="3779.03" cy="-162" rx="153.2" ry="18"/>
<text text-anchor="start" x="3674.78" y="-156.95" font-family="Times,serif" font-size="14.00">class &#39;javalang.tree.MethodInvocation&#39;</text>
</g>
<!-- 4386609120&#45;&gt;4386609168 -->
<g id="edge57" class="edge">
<title>4386609120&#45;&gt;4386609168</title>
<path fill="none" stroke="black" d="M3771.5,-215.7C3772.57,-208.24 3773.84,-199.32 3775.03,-190.97"/>
<polygon fill="black" stroke="black" points="3778.64,-191.5 3776.58,-181.1 3771.71,-190.51 3778.64,-191.5"/>
</g>
<!-- 27 -->
<g id="node59" class="node">
<title>27</title>
<ellipse fill="none" stroke="black" cx="3599.03" cy="-90" rx="52.89" ry="18"/>
<text text-anchor="middle" x="3599.03" y="-84.95" font-family="Times,serif" font-size="14.00">System.out</text>
</g>
<!-- 4386609168&#45;&gt;27 -->
<g id="edge58" class="edge">
<title>4386609168&#45;&gt;27</title>
<path fill="none" stroke="black" d="M3736.37,-144.41C3708.22,-133.46 3671.44,-119.16 3643.02,-108.11"/>
<polygon fill="black" stroke="black" points="3644.55,-104.56 3633.96,-104.2 3642.02,-111.08 3644.55,-104.56"/>
</g>
<!-- 4386609552 -->
<g id="node60" class="node">
<title>4386609552</title>
<ellipse fill="none" stroke="black" cx="3779.03" cy="-90" rx="109.19" ry="18"/>
<text text-anchor="start" x="3707.03" y="-84.95" font-family="Times,serif" font-size="14.00">class &#39;javalang.tree.Literal&#39;</text>
</g>
<!-- 4386609168&#45;&gt;4386609552 -->
<g id="edge59" class="edge">
<title>4386609168&#45;&gt;4386609552</title>
<path fill="none" stroke="black" d="M3779.03,-143.7C3779.03,-136.24 3779.03,-127.32 3779.03,-118.97"/>
<polygon fill="black" stroke="black" points="3782.53,-119.1 3779.03,-109.1 3775.53,-119.1 3782.53,-119.1"/>
</g>
<!-- 28 -->
<g id="node61" class="node">
<title>28</title>
<ellipse fill="none" stroke="black" cx="3942.03" cy="-90" rx="35.49" ry="18"/>
<text text-anchor="middle" x="3942.03" y="-84.95" font-family="Times,serif" font-size="14.00">println</text>
</g>
<!-- 4386609168&#45;&gt;28 -->
<g id="edge60" class="edge">
<title>4386609168&#45;&gt;28</title>
<path fill="none" stroke="black" d="M3818.07,-144.23C3844.68,-132.81 3879.66,-117.78 3905.68,-106.61"/>
<polygon fill="black" stroke="black" points="3906.71,-109.55 3914.52,-102.38 3903.95,-103.11 3906.71,-109.55"/>
</g>
<!-- 29 -->
<g id="node62" class="node">
<title>29</title>
<ellipse fill="none" stroke="black" cx="3779.03" cy="-18" rx="82.57" ry="18"/>
<text text-anchor="middle" x="3779.03" y="-12.95" font-family="Times,serif" font-size="14.00">&quot;Another iteration&quot;</text>
</g>
<!-- 4386609552&#45;&gt;29 -->
<g id="edge61" class="edge">
<title>4386609552&#45;&gt;29</title>
<path fill="none" stroke="black" d="M3779.03,-71.7C3779.03,-64.24 3779.03,-55.32 3779.03,-46.97"/>
<polygon fill="black" stroke="black" points="3782.53,-47.1 3779.03,-37.1 3775.53,-47.1 3782.53,-47.1"/>
</g>
</g>
</svg>
