<?xml version="1.0" encoding="UTF-8" standalone="no"?>
<!DOCTYPE svg PUBLIC "-//W3C//DTD SVG 1.1//EN"
 "http://www.w3.org/Graphics/SVG/1.1/DTD/svg11.dtd">
<!-- Generated by graphviz version 8.0.5 (20230430.1635)
 -->
<!-- Pages: 1 -->
<svg width="753pt" height="404pt"
 viewBox="0.00 0.00 752.64 404.00" xmlns="http://www.w3.org/2000/svg" xmlns:xlink="http://www.w3.org/1999/xlink">
<g id="graph0" class="graph" transform="scale(1 1) rotate(0) translate(4 400)">
<polygon fill="white" stroke="none" points="-4,4 -4,-400 748.64,-400 748.64,4 -4,4"/>
<!-- 41 -->
<g id="node1" class="node">
<title>41</title>
<ellipse fill="none" stroke="black" cx="280.32" cy="-378" rx="32.93" ry="18"/>
<text text-anchor="middle" x="280.32" y="-372.95" font-family="Times,serif" font-size="14.00">Block</text>
</g>
<!-- 23 -->
<g id="node2" class="node">
<title>23</title>
<ellipse fill="none" stroke="black" cx="103.32" cy="-306" rx="55.45" ry="18"/>
<text text-anchor="middle" x="103.32" y="-300.95" font-family="Times,serif" font-size="14.00">Assignment</text>
</g>
<!-- 41&#45;&gt;23 -->
<g id="edge1" class="edge">
<title>41&#45;&gt;23</title>
<path fill="none" stroke="black" d="M254.2,-366.67C226.14,-355.57 181.05,-337.74 147.46,-324.46"/>
<polygon fill="black" stroke="black" points="149.03,-320.92 138.44,-320.49 146.45,-327.43 149.03,-320.92"/>
</g>
<!-- 30 -->
<g id="node5" class="node">
<title>30</title>
<ellipse fill="none" stroke="black" cx="280.32" cy="-306" rx="27" ry="18"/>
<text text-anchor="middle" x="280.32" y="-300.95" font-family="Times,serif" font-size="14.00">If</text>
</g>
<!-- 41&#45;&gt;30 -->
<g id="edge4" class="edge">
<title>41&#45;&gt;30</title>
<path fill="none" stroke="black" d="M280.32,-359.7C280.32,-352.24 280.32,-343.32 280.32,-334.97"/>
<polygon fill="black" stroke="black" points="283.82,-335.1 280.32,-325.1 276.82,-335.1 283.82,-335.1"/>
</g>
<!-- 40 -->
<g id="node12" class="node">
<title>40</title>
<ellipse fill="none" stroke="black" cx="498.32" cy="-306" rx="33.95" ry="18"/>
<text text-anchor="middle" x="498.32" y="-300.95" font-family="Times,serif" font-size="14.00">While</text>
</g>
<!-- 41&#45;&gt;40 -->
<g id="edge11" class="edge">
<title>41&#45;&gt;40</title>
<path fill="none" stroke="black" d="M308.37,-367.99C346.75,-355.67 415.8,-333.5 459.23,-319.55"/>
<polygon fill="black" stroke="black" points="460.23,-322.59 468.68,-316.2 458.09,-315.92 460.23,-322.59"/>
</g>
<!-- 21 -->
<g id="node3" class="node">
<title>21</title>
<ellipse fill="none" stroke="black" cx="28.32" cy="-234" rx="28.32" ry="18"/>
<text text-anchor="middle" x="28.32" y="-228.95" font-family="Times,serif" font-size="14.00">Id: x</text>
</g>
<!-- 23&#45;&gt;21 -->
<g id="edge2" class="edge">
<title>23&#45;&gt;21</title>
<path fill="none" stroke="black" d="M85.93,-288.76C75.79,-279.3 62.87,-267.24 51.83,-256.94"/>
<polygon fill="black" stroke="black" points="54.54,-254.75 44.84,-250.48 49.76,-259.86 54.54,-254.75"/>
</g>
<!-- 22 -->
<g id="node4" class="node">
<title>22</title>
<ellipse fill="none" stroke="black" cx="103.32" cy="-234" rx="28.32" ry="18"/>
<text text-anchor="middle" x="103.32" y="-228.95" font-family="Times,serif" font-size="14.00">Id: 4</text>
</g>
<!-- 23&#45;&gt;22 -->
<g id="edge3" class="edge">
<title>23&#45;&gt;22</title>
<path fill="none" stroke="black" d="M103.32,-287.7C103.32,-280.24 103.32,-271.32 103.32,-262.97"/>
<polygon fill="black" stroke="black" points="106.82,-263.1 103.32,-253.1 99.82,-263.1 106.82,-263.1"/>
</g>
<!-- 26 -->
<g id="node6" class="node">
<title>26</title>
<ellipse fill="none" stroke="black" cx="212.32" cy="-234" rx="62.61" ry="18"/>
<text text-anchor="middle" x="212.32" y="-228.95" font-family="Times,serif" font-size="14.00">Expression: &gt;</text>
</g>
<!-- 30&#45;&gt;26 -->
<g id="edge5" class="edge">
<title>30&#45;&gt;26</title>
<path fill="none" stroke="black" d="M266.23,-290.5C257.49,-281.5 246.04,-269.71 235.93,-259.31"/>
<polygon fill="black" stroke="black" points="239.02,-257.43 229.54,-252.7 234,-262.31 239.02,-257.43"/>
</g>
<!-- 29 -->
<g id="node9" class="node">
<title>29</title>
<ellipse fill="none" stroke="black" cx="348.32" cy="-234" rx="55.45" ry="18"/>
<text text-anchor="middle" x="348.32" y="-228.95" font-family="Times,serif" font-size="14.00">Assignment</text>
</g>
<!-- 30&#45;&gt;29 -->
<g id="edge8" class="edge">
<title>30&#45;&gt;29</title>
<path fill="none" stroke="black" d="M294.41,-290.5C303.15,-281.5 314.6,-269.71 324.71,-259.31"/>
<polygon fill="black" stroke="black" points="326.64,-262.31 331.1,-252.7 321.62,-257.43 326.64,-262.31"/>
</g>
<!-- 24 -->
<g id="node7" class="node">
<title>24</title>
<ellipse fill="none" stroke="black" cx="133.32" cy="-162" rx="28.32" ry="18"/>
<text text-anchor="middle" x="133.32" y="-156.95" font-family="Times,serif" font-size="14.00">Id: y</text>
</g>
<!-- 26&#45;&gt;24 -->
<g id="edge6" class="edge">
<title>26&#45;&gt;24</title>
<path fill="none" stroke="black" d="M193.6,-216.41C182.73,-206.78 168.93,-194.55 157.27,-184.23"/>
<polygon fill="black" stroke="black" points="160.05,-182.12 150.24,-178.11 155.4,-187.36 160.05,-182.12"/>
</g>
<!-- 25 -->
<g id="node8" class="node">
<title>25</title>
<ellipse fill="none" stroke="black" cx="212.32" cy="-162" rx="32.93" ry="18"/>
<text text-anchor="middle" x="212.32" y="-156.95" font-family="Times,serif" font-size="14.00">Id: 42</text>
</g>
<!-- 26&#45;&gt;25 -->
<g id="edge7" class="edge">
<title>26&#45;&gt;25</title>
<path fill="none" stroke="black" d="M212.32,-215.7C212.32,-208.24 212.32,-199.32 212.32,-190.97"/>
<polygon fill="black" stroke="black" points="215.82,-191.1 212.32,-181.1 208.82,-191.1 215.82,-191.1"/>
</g>
<!-- 27 -->
<g id="node10" class="node">
<title>27</title>
<ellipse fill="none" stroke="black" cx="291.32" cy="-162" rx="28.32" ry="18"/>
<text text-anchor="middle" x="291.32" y="-156.95" font-family="Times,serif" font-size="14.00">Id: x</text>
</g>
<!-- 29&#45;&gt;27 -->
<g id="edge9" class="edge">
<title>29&#45;&gt;27</title>
<path fill="none" stroke="black" d="M334.81,-216.41C327.65,-207.62 318.73,-196.66 310.83,-186.96"/>
<polygon fill="black" stroke="black" points="312.98,-185.06 303.95,-179.51 307.55,-189.48 312.98,-185.06"/>
</g>
<!-- 28 -->
<g id="node11" class="node">
<title>28</title>
<ellipse fill="none" stroke="black" cx="370.32" cy="-162" rx="32.93" ry="18"/>
<text text-anchor="middle" x="370.32" y="-156.95" font-family="Times,serif" font-size="14.00">Id: 10</text>
</g>
<!-- 29&#45;&gt;28 -->
<g id="edge10" class="edge">
<title>29&#45;&gt;28</title>
<path fill="none" stroke="black" d="M353.76,-215.7C356.16,-208.07 359.03,-198.92 361.71,-190.4"/>
<polygon fill="black" stroke="black" points="365.29,-191.69 364.94,-181.1 358.61,-189.59 365.29,-191.69"/>
</g>
<!-- 33 -->
<g id="node13" class="node">
<title>33</title>
<ellipse fill="none" stroke="black" cx="498.32" cy="-234" rx="62.61" ry="18"/>
<text text-anchor="middle" x="498.32" y="-228.95" font-family="Times,serif" font-size="14.00">Expression: &gt;</text>
</g>
<!-- 40&#45;&gt;33 -->
<g id="edge12" class="edge">
<title>40&#45;&gt;33</title>
<path fill="none" stroke="black" d="M498.32,-287.7C498.32,-280.24 498.32,-271.32 498.32,-262.97"/>
<polygon fill="black" stroke="black" points="501.82,-263.1 498.32,-253.1 494.82,-263.1 501.82,-263.1"/>
</g>
<!-- 39 -->
<g id="node16" class="node">
<title>39</title>
<ellipse fill="none" stroke="black" cx="619.32" cy="-234" rx="32.93" ry="18"/>
<text text-anchor="middle" x="619.32" y="-228.95" font-family="Times,serif" font-size="14.00">Block</text>
</g>
<!-- 40&#45;&gt;39 -->
<g id="edge15" class="edge">
<title>40&#45;&gt;39</title>
<path fill="none" stroke="black" d="M520.8,-292C539.68,-281.08 566.86,-265.35 587.9,-253.18"/>
<polygon fill="black" stroke="black" points="589.47,-255.73 596.37,-247.7 585.96,-249.67 589.47,-255.73"/>
</g>
<!-- 31 -->
<g id="node14" class="node">
<title>31</title>
<ellipse fill="none" stroke="black" cx="449.32" cy="-162" rx="28.32" ry="18"/>
<text text-anchor="middle" x="449.32" y="-156.95" font-family="Times,serif" font-size="14.00">Id: x</text>
</g>
<!-- 33&#45;&gt;31 -->
<g id="edge13" class="edge">
<title>33&#45;&gt;31</title>
<path fill="none" stroke="black" d="M486.46,-216.05C480.51,-207.56 473.19,-197.11 466.63,-187.73"/>
<polygon fill="black" stroke="black" points="469,-186.01 460.4,-179.83 463.27,-190.03 469,-186.01"/>
</g>
<!-- 32 -->
<g id="node15" class="node">
<title>32</title>
<ellipse fill="none" stroke="black" cx="524.32" cy="-162" rx="28.32" ry="18"/>
<text text-anchor="middle" x="524.32" y="-156.95" font-family="Times,serif" font-size="14.00">Id: 0</text>
</g>
<!-- 33&#45;&gt;32 -->
<g id="edge14" class="edge">
<title>33&#45;&gt;32</title>
<path fill="none" stroke="black" d="M504.75,-215.7C507.65,-207.87 511.16,-198.44 514.39,-189.73"/>
<polygon fill="black" stroke="black" points="517.95,-191.22 518.15,-180.62 511.38,-188.78 517.95,-191.22"/>
</g>
<!-- 38 -->
<g id="node17" class="node">
<title>38</title>
<ellipse fill="none" stroke="black" cx="626.32" cy="-162" rx="55.45" ry="18"/>
<text text-anchor="middle" x="626.32" y="-156.95" font-family="Times,serif" font-size="14.00">Assignment</text>
</g>
<!-- 39&#45;&gt;38 -->
<g id="edge16" class="edge">
<title>39&#45;&gt;38</title>
<path fill="none" stroke="black" d="M621.05,-215.7C621.8,-208.24 622.69,-199.32 623.52,-190.97"/>
<polygon fill="black" stroke="black" points="627.1,-191.4 624.61,-181.1 620.13,-190.71 627.1,-191.4"/>
</g>
<!-- 34 -->
<g id="node18" class="node">
<title>34</title>
<ellipse fill="none" stroke="black" cx="573.32" cy="-90" rx="28.32" ry="18"/>
<text text-anchor="middle" x="573.32" y="-84.95" font-family="Times,serif" font-size="14.00">Id: x</text>
</g>
<!-- 38&#45;&gt;34 -->
<g id="edge17" class="edge">
<title>38&#45;&gt;34</title>
<path fill="none" stroke="black" d="M613.49,-144.05C606.9,-135.35 598.75,-124.59 591.52,-115.03"/>
<polygon fill="black" stroke="black" points="593.77,-113.22 584.95,-107.36 588.19,-117.44 593.77,-113.22"/>
</g>
<!-- 37 -->
<g id="node19" class="node">
<title>37</title>
<ellipse fill="none" stroke="black" cx="679.32" cy="-90" rx="60.05" ry="18"/>
<text text-anchor="middle" x="679.32" y="-84.95" font-family="Times,serif" font-size="14.00">Expression: &#45;</text>
</g>
<!-- 38&#45;&gt;37 -->
<g id="edge18" class="edge">
<title>38&#45;&gt;37</title>
<path fill="none" stroke="black" d="M639.15,-144.05C645.4,-135.8 653.05,-125.7 659.98,-116.54"/>
<polygon fill="black" stroke="black" points="663.36,-118.87 666.61,-108.79 657.78,-114.65 663.36,-118.87"/>
</g>
<!-- 35 -->
<g id="node20" class="node">
<title>35</title>
<ellipse fill="none" stroke="black" cx="641.32" cy="-18" rx="28.32" ry="18"/>
<text text-anchor="middle" x="641.32" y="-12.95" font-family="Times,serif" font-size="14.00">Id: x</text>
</g>
<!-- 37&#45;&gt;35 -->
<g id="edge19" class="edge">
<title>37&#45;&gt;35</title>
<path fill="none" stroke="black" d="M670.12,-72.05C665.67,-63.85 660.23,-53.83 655.28,-44.71"/>
<polygon fill="black" stroke="black" points="658.02,-43.43 650.17,-36.31 651.87,-46.77 658.02,-43.43"/>
</g>
<!-- 36 -->
<g id="node21" class="node">
<title>36</title>
<ellipse fill="none" stroke="black" cx="716.32" cy="-18" rx="28.32" ry="18"/>
<text text-anchor="middle" x="716.32" y="-12.95" font-family="Times,serif" font-size="14.00">Id: 1</text>
</g>
<!-- 37&#45;&gt;36 -->
<g id="edge20" class="edge">
<title>37&#45;&gt;36</title>
<path fill="none" stroke="black" d="M688.28,-72.05C692.57,-63.94 697.8,-54.04 702.57,-45.01"/>
<polygon fill="black" stroke="black" points="706.12,-46.78 707.7,-36.31 699.93,-43.51 706.12,-46.78"/>
</g>
</g>
</svg>
