<?xml version="1.0" encoding="UTF-8" standalone="no"?>
<!DOCTYPE svg PUBLIC "-//W3C//DTD SVG 1.1//EN"
 "http://www.w3.org/Graphics/SVG/1.1/DTD/svg11.dtd">
<!-- Generated by graphviz version 8.0.5 (20230430.1635)
 -->
<!-- Pages: 1 -->
<svg width="916pt" height="692pt"
 viewBox="0.00 0.00 916.00 692.00" xmlns="http://www.w3.org/2000/svg" xmlns:xlink="http://www.w3.org/1999/xlink">
<g id="graph0" class="graph" transform="scale(1 1) rotate(0) translate(4 688)">
<polygon fill="white" stroke="none" points="-4,4 -4,-688 912,-688 912,4 -4,4"/>
<!-- root -->
<g id="node1" class="node">
<title>root</title>
<ellipse fill="none" stroke="black" cx="281" cy="-666" rx="27" ry="18"/>
<text text-anchor="middle" x="281" y="-660.95" font-family="Times,serif" font-size="14.00">start</text>
</g>
<!-- 4385972160 -->
<g id="node2" class="node">
<title>4385972160</title>
<ellipse fill="none" stroke="black" cx="195" cy="-594" rx="33.44" ry="18"/>
<text text-anchor="middle" x="195" y="-588.95" font-family="Times,serif" font-size="14.00">root&#45;0</text>
</g>
<!-- root&#45;&gt;4385972160 -->
<g id="edge30" class="edge">
<title>root&#45;&gt;4385972160</title>
<path fill="none" stroke="black" d="M264.42,-651.5C252.21,-641.57 235.37,-627.86 221.33,-616.43"/>
<polygon fill="black" stroke="black" points="223.98,-613.26 214.02,-609.66 219.56,-618.69 223.98,-613.26"/>
</g>
<!-- 4385972096 -->
<g id="node32" class="node">
<title>4385972096</title>
<ellipse fill="none" stroke="black" cx="416" cy="-594" rx="33.44" ry="18"/>
<text text-anchor="middle" x="416" y="-588.95" font-family="Times,serif" font-size="14.00">root&#45;1</text>
</g>
<!-- root&#45;&gt;4385972096 -->
<g id="edge44" class="edge">
<title>root&#45;&gt;4385972096</title>
<path fill="none" stroke="black" d="M301.8,-654.22C323.48,-642.98 357.76,-625.2 383.11,-612.05"/>
<polygon fill="black" stroke="black" points="384.42,-614.8 391.68,-607.09 381.2,-608.59 384.42,-614.8"/>
</g>
<!-- 0 -->
<g id="node3" class="node">
<title>0</title>
<ellipse fill="none" stroke="black" cx="27" cy="-522" rx="27" ry="18"/>
<text text-anchor="middle" x="27" y="-516.95" font-family="Times,serif" font-size="14.00">def</text>
</g>
<!-- 4385972160&#45;&gt;0 -->
<g id="edge1" class="edge">
<title>4385972160&#45;&gt;0</title>
<path fill="none" stroke="black" d="M168.26,-582.8C141.46,-572.45 99.1,-555.75 63,-540 61.35,-539.28 59.65,-538.53 57.95,-537.76"/>
<polygon fill="black" stroke="black" points="59.77,-534.28 49.22,-533.28 56.84,-540.64 59.77,-534.28"/>
</g>
<!-- 1 -->
<g id="node4" class="node">
<title>1</title>
<ellipse fill="none" stroke="black" cx="99" cy="-522" rx="27" ry="18"/>
<text text-anchor="middle" x="99" y="-516.95" font-family="Times,serif" font-size="14.00">f</text>
</g>
<!-- 4385972160&#45;&gt;1 -->
<g id="edge2" class="edge">
<title>4385972160&#45;&gt;1</title>
<path fill="none" stroke="black" d="M175.57,-578.83C161.19,-568.35 141.43,-553.94 125.59,-542.39"/>
<polygon fill="black" stroke="black" points="127.92,-539.03 117.78,-535.96 123.8,-544.68 127.92,-539.03"/>
</g>
<!-- 4385969984 -->
<g id="node5" class="node">
<title>4385969984</title>
<ellipse fill="none" stroke="black" cx="195" cy="-522" rx="51.35" ry="18"/>
<text text-anchor="middle" x="195" y="-516.95" font-family="Times,serif" font-size="14.00">arg_names</text>
</g>
<!-- 4385972160&#45;&gt;4385969984 -->
<g id="edge5" class="edge">
<title>4385972160&#45;&gt;4385969984</title>
<path fill="none" stroke="black" d="M195,-575.7C195,-568.24 195,-559.32 195,-550.97"/>
<polygon fill="black" stroke="black" points="198.5,-551.1 195,-541.1 191.5,-551.1 198.5,-551.1"/>
</g>
<!-- 4385972032 -->
<g id="node8" class="node">
<title>4385972032</title>
<ellipse fill="none" stroke="black" cx="302" cy="-522" rx="29.34" ry="18"/>
<text text-anchor="middle" x="302" y="-516.95" font-family="Times,serif" font-size="14.00">body</text>
</g>
<!-- 4385972160&#45;&gt;4385972032 -->
<g id="edge29" class="edge">
<title>4385972160&#45;&gt;4385972032</title>
<path fill="none" stroke="black" d="M215.63,-579.5C232.08,-568.74 255.29,-553.56 273.5,-541.64"/>
<polygon fill="black" stroke="black" points="275.06,-544.15 281.51,-535.75 271.23,-538.29 275.06,-544.15"/>
</g>
<!-- 2 -->
<g id="node6" class="node">
<title>2</title>
<ellipse fill="none" stroke="black" cx="113" cy="-450" rx="27" ry="18"/>
<text text-anchor="middle" x="113" y="-444.95" font-family="Times,serif" font-size="14.00">a</text>
</g>
<!-- 4385969984&#45;&gt;2 -->
<g id="edge3" class="edge">
<title>4385969984&#45;&gt;2</title>
<path fill="none" stroke="black" d="M176.39,-505.12C164.8,-495.22 149.76,-482.38 137.24,-471.69"/>
<polygon fill="black" stroke="black" points="139.92,-468.53 130.04,-464.7 135.38,-473.85 139.92,-468.53"/>
</g>
<!-- 3 -->
<g id="node7" class="node">
<title>3</title>
<ellipse fill="none" stroke="black" cx="185" cy="-450" rx="27" ry="18"/>
<text text-anchor="middle" x="185" y="-444.95" font-family="Times,serif" font-size="14.00">b</text>
</g>
<!-- 4385969984&#45;&gt;3 -->
<g id="edge4" class="edge">
<title>4385969984&#45;&gt;3</title>
<path fill="none" stroke="black" d="M192.53,-503.7C191.46,-496.24 190.19,-487.32 189,-478.97"/>
<polygon fill="black" stroke="black" points="192.32,-478.51 187.44,-469.1 185.39,-479.5 192.32,-478.51"/>
</g>
<!-- 4 -->
<g id="node9" class="node">
<title>4</title>
<ellipse fill="none" stroke="black" cx="257" cy="-450" rx="27" ry="18"/>
<text text-anchor="middle" x="257" y="-444.95" font-family="Times,serif" font-size="14.00">call</text>
</g>
<!-- 4385972032&#45;&gt;4 -->
<g id="edge6" class="edge">
<title>4385972032&#45;&gt;4</title>
<path fill="none" stroke="black" d="M291.56,-504.76C286.03,-496.16 279.12,-485.41 272.94,-475.79"/>
<polygon fill="black" stroke="black" points="275.42,-474.18 267.07,-467.67 269.53,-477.97 275.42,-474.18"/>
</g>
<!-- 5 -->
<g id="node10" class="node">
<title>5</title>
<ellipse fill="none" stroke="black" cx="329" cy="-450" rx="27" ry="18"/>
<text text-anchor="middle" x="329" y="-444.95" font-family="Times,serif" font-size="14.00">add</text>
</g>
<!-- 4385972032&#45;&gt;5 -->
<g id="edge7" class="edge">
<title>4385972032&#45;&gt;5</title>
<path fill="none" stroke="black" d="M308.54,-504.05C311.55,-496.23 315.21,-486.75 318.59,-477.98"/>
<polygon fill="black" stroke="black" points="322.19,-479.38 322.52,-468.79 315.66,-476.86 322.19,-479.38"/>
</g>
<!-- 4385659136 -->
<g id="node11" class="node">
<title>4385659136</title>
<ellipse fill="none" stroke="black" cx="421" cy="-450" rx="47.26" ry="18"/>
<text text-anchor="middle" x="421" y="-444.95" font-family="Times,serif" font-size="14.00">arg_exprs</text>
</g>
<!-- 4385972032&#45;&gt;4385659136 -->
<g id="edge28" class="edge">
<title>4385972032&#45;&gt;4385659136</title>
<path fill="none" stroke="black" d="M322.73,-508.81C340.32,-498.46 365.92,-483.4 386.58,-471.25"/>
<polygon fill="black" stroke="black" points="388.13,-473.81 394.97,-465.72 384.58,-467.78 388.13,-473.81"/>
</g>
<!-- 4385970880 -->
<g id="node12" class="node">
<title>4385970880</title>
<ellipse fill="none" stroke="black" cx="284" cy="-378" rx="54.93" ry="18"/>
<text text-anchor="middle" x="284" y="-372.95" font-family="Times,serif" font-size="14.00">arg_exprs&#45;0</text>
</g>
<!-- 4385659136&#45;&gt;4385970880 -->
<g id="edge10" class="edge">
<title>4385659136&#45;&gt;4385970880</title>
<path fill="none" stroke="black" d="M393.61,-435C373.2,-424.58 345.07,-410.2 322.42,-398.63"/>
<polygon fill="black" stroke="black" points="324.26,-395.13 313.76,-393.7 321.08,-401.36 324.26,-395.13"/>
</g>
<!-- 4385971968 -->
<g id="node15" class="node">
<title>4385971968</title>
<ellipse fill="none" stroke="black" cx="421" cy="-378" rx="54.93" ry="18"/>
<text text-anchor="middle" x="421" y="-372.95" font-family="Times,serif" font-size="14.00">arg_exprs&#45;1</text>
</g>
<!-- 4385659136&#45;&gt;4385971968 -->
<g id="edge27" class="edge">
<title>4385659136&#45;&gt;4385971968</title>
<path fill="none" stroke="black" d="M421,-431.7C421,-424.24 421,-415.32 421,-406.97"/>
<polygon fill="black" stroke="black" points="424.5,-407.1 421,-397.1 417.5,-407.1 424.5,-407.1"/>
</g>
<!-- 6 -->
<g id="node13" class="node">
<title>6</title>
<ellipse fill="none" stroke="black" cx="212" cy="-306" rx="27" ry="18"/>
<text text-anchor="middle" x="212" y="-300.95" font-family="Times,serif" font-size="14.00">int</text>
</g>
<!-- 4385970880&#45;&gt;6 -->
<g id="edge8" class="edge">
<title>4385970880&#45;&gt;6</title>
<path fill="none" stroke="black" d="M266.94,-360.41C257.13,-350.87 244.7,-338.79 234.14,-328.53"/>
<polygon fill="black" stroke="black" points="237.12,-326.57 227.51,-322.11 232.24,-331.59 237.12,-326.57"/>
</g>
<!-- 7 -->
<g id="node14" class="node">
<title>7</title>
<ellipse fill="none" stroke="black" cx="284" cy="-306" rx="27" ry="18"/>
<text text-anchor="middle" x="284" y="-300.95" font-family="Times,serif" font-size="14.00">100</text>
</g>
<!-- 4385970880&#45;&gt;7 -->
<g id="edge9" class="edge">
<title>4385970880&#45;&gt;7</title>
<path fill="none" stroke="black" d="M284,-359.7C284,-352.24 284,-343.32 284,-334.97"/>
<polygon fill="black" stroke="black" points="287.5,-335.1 284,-325.1 280.5,-335.1 287.5,-335.1"/>
</g>
<!-- 8 -->
<g id="node16" class="node">
<title>8</title>
<ellipse fill="none" stroke="black" cx="356" cy="-306" rx="27" ry="18"/>
<text text-anchor="middle" x="356" y="-300.95" font-family="Times,serif" font-size="14.00">call</text>
</g>
<!-- 4385971968&#45;&gt;8 -->
<g id="edge11" class="edge">
<title>4385971968&#45;&gt;8</title>
<path fill="none" stroke="black" d="M405.6,-360.41C397.03,-351.19 386.25,-339.58 376.93,-329.54"/>
<polygon fill="black" stroke="black" points="379.9,-327.52 370.53,-322.57 374.77,-332.28 379.9,-327.52"/>
</g>
<!-- 9 -->
<g id="node17" class="node">
<title>9</title>
<ellipse fill="none" stroke="black" cx="428" cy="-306" rx="27" ry="18"/>
<text text-anchor="middle" x="428" y="-300.95" font-family="Times,serif" font-size="14.00">add</text>
</g>
<!-- 4385971968&#45;&gt;9 -->
<g id="edge12" class="edge">
<title>4385971968&#45;&gt;9</title>
<path fill="none" stroke="black" d="M422.73,-359.7C423.48,-352.24 424.37,-343.32 425.2,-334.97"/>
<polygon fill="black" stroke="black" points="428.78,-335.4 426.29,-325.1 421.81,-334.71 428.78,-335.4"/>
</g>
<!-- 4385970176 -->
<g id="node18" class="node">
<title>4385970176</title>
<ellipse fill="none" stroke="black" cx="520" cy="-306" rx="47.26" ry="18"/>
<text text-anchor="middle" x="520" y="-300.95" font-family="Times,serif" font-size="14.00">arg_exprs</text>
</g>
<!-- 4385971968&#45;&gt;4385970176 -->
<g id="edge26" class="edge">
<title>4385971968&#45;&gt;4385970176</title>
<path fill="none" stroke="black" d="M443.46,-361.12C457.07,-351.5 474.61,-339.1 489.46,-328.59"/>
<polygon fill="black" stroke="black" points="491.16,-330.97 497.3,-322.34 487.12,-325.26 491.16,-330.97"/>
</g>
<!-- 4385971264 -->
<g id="node19" class="node">
<title>4385971264</title>
<ellipse fill="none" stroke="black" cx="387" cy="-234" rx="54.93" ry="18"/>
<text text-anchor="middle" x="387" y="-228.95" font-family="Times,serif" font-size="14.00">arg_exprs&#45;0</text>
</g>
<!-- 4385970176&#45;&gt;4385971264 -->
<g id="edge15" class="edge">
<title>4385970176&#45;&gt;4385971264</title>
<path fill="none" stroke="black" d="M493.09,-290.83C473.47,-280.51 446.63,-266.38 424.86,-254.92"/>
<polygon fill="black" stroke="black" points="426.73,-251.43 416.25,-249.87 423.47,-257.62 426.73,-251.43"/>
</g>
<!-- 4385972608 -->
<g id="node22" class="node">
<title>4385972608</title>
<ellipse fill="none" stroke="black" cx="523" cy="-234" rx="54.93" ry="18"/>
<text text-anchor="middle" x="523" y="-228.95" font-family="Times,serif" font-size="14.00">arg_exprs&#45;1</text>
</g>
<!-- 4385970176&#45;&gt;4385972608 -->
<g id="edge25" class="edge">
<title>4385970176&#45;&gt;4385972608</title>
<path fill="none" stroke="black" d="M520.74,-287.7C521.06,-280.24 521.44,-271.32 521.8,-262.97"/>
<polygon fill="black" stroke="black" points="525.34,-263.25 522.27,-253.1 518.34,-262.95 525.34,-263.25"/>
</g>
<!-- 10 -->
<g id="node20" class="node">
<title>10</title>
<ellipse fill="none" stroke="black" cx="315" cy="-162" rx="27" ry="18"/>
<text text-anchor="middle" x="315" y="-156.95" font-family="Times,serif" font-size="14.00">int</text>
</g>
<!-- 4385971264&#45;&gt;10 -->
<g id="edge13" class="edge">
<title>4385971264&#45;&gt;10</title>
<path fill="none" stroke="black" d="M369.94,-216.41C360.13,-206.87 347.7,-194.79 337.14,-184.53"/>
<polygon fill="black" stroke="black" points="340.12,-182.57 330.51,-178.11 335.24,-187.59 340.12,-182.57"/>
</g>
<!-- 11 -->
<g id="node21" class="node">
<title>11</title>
<ellipse fill="none" stroke="black" cx="387" cy="-162" rx="27" ry="18"/>
<text text-anchor="middle" x="387" y="-156.95" font-family="Times,serif" font-size="14.00">20</text>
</g>
<!-- 4385971264&#45;&gt;11 -->
<g id="edge14" class="edge">
<title>4385971264&#45;&gt;11</title>
<path fill="none" stroke="black" d="M387,-215.7C387,-208.24 387,-199.32 387,-190.97"/>
<polygon fill="black" stroke="black" points="390.5,-191.1 387,-181.1 383.5,-191.1 390.5,-191.1"/>
</g>
<!-- 12 -->
<g id="node23" class="node">
<title>12</title>
<ellipse fill="none" stroke="black" cx="459" cy="-162" rx="27" ry="18"/>
<text text-anchor="middle" x="459" y="-156.95" font-family="Times,serif" font-size="14.00">call</text>
</g>
<!-- 4385972608&#45;&gt;12 -->
<g id="edge16" class="edge">
<title>4385972608&#45;&gt;12</title>
<path fill="none" stroke="black" d="M507.83,-216.41C499.4,-207.19 488.79,-195.58 479.61,-185.54"/>
<polygon fill="black" stroke="black" points="482.65,-183.59 473.32,-178.57 477.49,-188.31 482.65,-183.59"/>
</g>
<!-- 13 -->
<g id="node24" class="node">
<title>13</title>
<ellipse fill="none" stroke="black" cx="531" cy="-162" rx="27" ry="18"/>
<text text-anchor="middle" x="531" y="-156.95" font-family="Times,serif" font-size="14.00">add</text>
</g>
<!-- 4385972608&#45;&gt;13 -->
<g id="edge17" class="edge">
<title>4385972608&#45;&gt;13</title>
<path fill="none" stroke="black" d="M524.98,-215.7C525.83,-208.24 526.85,-199.32 527.8,-190.97"/>
<polygon fill="black" stroke="black" points="531.39,-191.44 529.05,-181.1 524.43,-190.64 531.39,-191.44"/>
</g>
<!-- 4385971456 -->
<g id="node25" class="node">
<title>4385971456</title>
<ellipse fill="none" stroke="black" cx="623" cy="-162" rx="47.26" ry="18"/>
<text text-anchor="middle" x="623" y="-156.95" font-family="Times,serif" font-size="14.00">arg_exprs</text>
</g>
<!-- 4385972608&#45;&gt;4385971456 -->
<g id="edge24" class="edge">
<title>4385972608&#45;&gt;4385971456</title>
<path fill="none" stroke="black" d="M545.19,-217.46C559.14,-207.7 577.33,-194.97 592.61,-184.28"/>
<polygon fill="black" stroke="black" points="594.03,-186.85 600.21,-178.25 590.01,-181.12 594.03,-186.85"/>
</g>
<!-- 4385971584 -->
<g id="node26" class="node">
<title>4385971584</title>
<ellipse fill="none" stroke="black" cx="559" cy="-90" rx="54.93" ry="18"/>
<text text-anchor="middle" x="559" y="-84.95" font-family="Times,serif" font-size="14.00">arg_exprs&#45;0</text>
</g>
<!-- 4385971456&#45;&gt;4385971584 -->
<g id="edge20" class="edge">
<title>4385971456&#45;&gt;4385971584</title>
<path fill="none" stroke="black" d="M608.16,-144.76C600.27,-136.14 590.42,-125.36 581.61,-115.73"/>
<polygon fill="black" stroke="black" points="584.54,-113.65 575.21,-108.63 579.37,-118.38 584.54,-113.65"/>
</g>
<!-- 4385971904 -->
<g id="node29" class="node">
<title>4385971904</title>
<ellipse fill="none" stroke="black" cx="687" cy="-90" rx="54.93" ry="18"/>
<text text-anchor="middle" x="687" y="-84.95" font-family="Times,serif" font-size="14.00">arg_exprs&#45;1</text>
</g>
<!-- 4385971456&#45;&gt;4385971904 -->
<g id="edge23" class="edge">
<title>4385971456&#45;&gt;4385971904</title>
<path fill="none" stroke="black" d="M637.84,-144.76C645.73,-136.14 655.58,-125.36 664.39,-115.73"/>
<polygon fill="black" stroke="black" points="666.63,-118.38 670.79,-108.63 661.46,-113.65 666.63,-118.38"/>
</g>
<!-- 14 -->
<g id="node27" class="node">
<title>14</title>
<ellipse fill="none" stroke="black" cx="501" cy="-18" rx="27" ry="18"/>
<text text-anchor="middle" x="501" y="-12.95" font-family="Times,serif" font-size="14.00">var</text>
</g>
<!-- 4385971584&#45;&gt;14 -->
<g id="edge18" class="edge">
<title>4385971584&#45;&gt;14</title>
<path fill="none" stroke="black" d="M545.25,-72.41C537.79,-63.41 528.45,-52.13 520.27,-42.26"/>
<polygon fill="black" stroke="black" points="522.54,-40.51 513.46,-35.04 517.15,-44.97 522.54,-40.51"/>
</g>
<!-- 15 -->
<g id="node28" class="node">
<title>15</title>
<ellipse fill="none" stroke="black" cx="573" cy="-18" rx="27" ry="18"/>
<text text-anchor="middle" x="573" y="-12.95" font-family="Times,serif" font-size="14.00">a</text>
</g>
<!-- 4385971584&#45;&gt;15 -->
<g id="edge19" class="edge">
<title>4385971584&#45;&gt;15</title>
<path fill="none" stroke="black" d="M562.46,-71.7C563.97,-64.15 565.78,-55.12 567.46,-46.68"/>
<polygon fill="black" stroke="black" points="571.05,-47.6 569.58,-37.1 564.19,-46.22 571.05,-47.6"/>
</g>
<!-- 16 -->
<g id="node30" class="node">
<title>16</title>
<ellipse fill="none" stroke="black" cx="673" cy="-18" rx="27" ry="18"/>
<text text-anchor="middle" x="673" y="-12.95" font-family="Times,serif" font-size="14.00">var</text>
</g>
<!-- 4385971904&#45;&gt;16 -->
<g id="edge21" class="edge">
<title>4385971904&#45;&gt;16</title>
<path fill="none" stroke="black" d="M683.54,-71.7C682.03,-64.15 680.22,-55.12 678.54,-46.68"/>
<polygon fill="black" stroke="black" points="681.81,-46.22 676.42,-37.1 674.95,-47.6 681.81,-46.22"/>
</g>
<!-- 17 -->
<g id="node31" class="node">
<title>17</title>
<ellipse fill="none" stroke="black" cx="745" cy="-18" rx="27" ry="18"/>
<text text-anchor="middle" x="745" y="-12.95" font-family="Times,serif" font-size="14.00">b</text>
</g>
<!-- 4385971904&#45;&gt;17 -->
<g id="edge22" class="edge">
<title>4385971904&#45;&gt;17</title>
<path fill="none" stroke="black" d="M700.75,-72.41C708.21,-63.41 717.55,-52.13 725.73,-42.26"/>
<polygon fill="black" stroke="black" points="728.85,-44.97 732.54,-35.04 723.46,-40.51 728.85,-44.97"/>
</g>
<!-- 18 -->
<g id="node33" class="node">
<title>18</title>
<ellipse fill="none" stroke="black" cx="380" cy="-522" rx="27" ry="18"/>
<text text-anchor="middle" x="380" y="-516.95" font-family="Times,serif" font-size="14.00">call</text>
</g>
<!-- 4385972096&#45;&gt;18 -->
<g id="edge31" class="edge">
<title>4385972096&#45;&gt;18</title>
<path fill="none" stroke="black" d="M407.47,-576.41C403.3,-568.3 398.18,-558.35 393.5,-549.25"/>
<polygon fill="black" stroke="black" points="396.16,-547.76 388.47,-540.47 389.93,-550.96 396.16,-547.76"/>
</g>
<!-- 19 -->
<g id="node34" class="node">
<title>19</title>
<ellipse fill="none" stroke="black" cx="453" cy="-522" rx="28.32" ry="18"/>
<text text-anchor="middle" x="453" y="-516.95" font-family="Times,serif" font-size="14.00">print</text>
</g>
<!-- 4385972096&#45;&gt;19 -->
<g id="edge32" class="edge">
<title>4385972096&#45;&gt;19</title>
<path fill="none" stroke="black" d="M424.77,-576.41C429.1,-568.22 434.43,-558.14 439.28,-548.95"/>
<polygon fill="black" stroke="black" points="442.72,-550.95 444.29,-540.47 436.53,-547.68 442.72,-550.95"/>
</g>
<!-- 4385972352 -->
<g id="node35" class="node">
<title>4385972352</title>
<ellipse fill="none" stroke="black" cx="549" cy="-522" rx="47.26" ry="18"/>
<text text-anchor="middle" x="549" y="-516.95" font-family="Times,serif" font-size="14.00">arg_exprs</text>
</g>
<!-- 4385972096&#45;&gt;4385972352 -->
<g id="edge43" class="edge">
<title>4385972096&#45;&gt;4385972352</title>
<path fill="none" stroke="black" d="M439.47,-580.65C459.7,-570 489.24,-554.45 512.54,-542.19"/>
<polygon fill="black" stroke="black" points="513.88,-544.91 521.1,-537.16 510.62,-538.72 513.88,-544.91"/>
</g>
<!-- 4385973632 -->
<g id="node36" class="node">
<title>4385973632</title>
<ellipse fill="none" stroke="black" cx="558" cy="-450" rx="54.93" ry="18"/>
<text text-anchor="middle" x="558" y="-444.95" font-family="Times,serif" font-size="14.00">arg_exprs&#45;0</text>
</g>
<!-- 4385972352&#45;&gt;4385973632 -->
<g id="edge42" class="edge">
<title>4385972352&#45;&gt;4385973632</title>
<path fill="none" stroke="black" d="M551.22,-503.7C552.18,-496.24 553.33,-487.32 554.4,-478.97"/>
<polygon fill="black" stroke="black" points="558,-479.47 555.8,-469.1 551.05,-478.58 558,-479.47"/>
</g>
<!-- 20 -->
<g id="node37" class="node">
<title>20</title>
<ellipse fill="none" stroke="black" cx="521" cy="-378" rx="27" ry="18"/>
<text text-anchor="middle" x="521" y="-372.95" font-family="Times,serif" font-size="14.00">call</text>
</g>
<!-- 4385973632&#45;&gt;20 -->
<g id="edge33" class="edge">
<title>4385973632&#45;&gt;20</title>
<path fill="none" stroke="black" d="M549.04,-432.05C544.75,-423.94 539.52,-414.04 534.75,-405.01"/>
<polygon fill="black" stroke="black" points="537.39,-403.51 529.62,-396.31 531.2,-406.78 537.39,-403.51"/>
</g>
<!-- 21 -->
<g id="node38" class="node">
<title>21</title>
<ellipse fill="none" stroke="black" cx="593" cy="-378" rx="27" ry="18"/>
<text text-anchor="middle" x="593" y="-372.95" font-family="Times,serif" font-size="14.00">f</text>
</g>
<!-- 4385973632&#45;&gt;21 -->
<g id="edge34" class="edge">
<title>4385973632&#45;&gt;21</title>
<path fill="none" stroke="black" d="M566.47,-432.05C570.53,-423.94 575.48,-414.04 580,-405.01"/>
<polygon fill="black" stroke="black" points="583.5,-406.82 584.85,-396.31 577.24,-403.69 583.5,-406.82"/>
</g>
<!-- 4385972416 -->
<g id="node39" class="node">
<title>4385972416</title>
<ellipse fill="none" stroke="black" cx="685" cy="-378" rx="47.26" ry="18"/>
<text text-anchor="middle" x="685" y="-372.95" font-family="Times,serif" font-size="14.00">arg_exprs</text>
</g>
<!-- 4385973632&#45;&gt;4385972416 -->
<g id="edge41" class="edge">
<title>4385973632&#45;&gt;4385972416</title>
<path fill="none" stroke="black" d="M585.24,-433.98C604.04,-423.63 629.2,-409.76 649.55,-398.54"/>
<polygon fill="black" stroke="black" points="651.03,-401.17 658.1,-393.27 647.65,-395.04 651.03,-401.17"/>
</g>
<!-- 4385971712 -->
<g id="node40" class="node">
<title>4385971712</title>
<ellipse fill="none" stroke="black" cx="683" cy="-306" rx="54.93" ry="18"/>
<text text-anchor="middle" x="683" y="-300.95" font-family="Times,serif" font-size="14.00">arg_exprs&#45;0</text>
</g>
<!-- 4385972416&#45;&gt;4385971712 -->
<g id="edge37" class="edge">
<title>4385972416&#45;&gt;4385971712</title>
<path fill="none" stroke="black" d="M684.51,-359.7C684.29,-352.24 684.04,-343.32 683.8,-334.97"/>
<polygon fill="black" stroke="black" points="687.27,-335 683.49,-325.1 680.28,-335.2 687.27,-335"/>
</g>
<!-- 4385972800 -->
<g id="node43" class="node">
<title>4385972800</title>
<ellipse fill="none" stroke="black" cx="811" cy="-306" rx="54.93" ry="18"/>
<text text-anchor="middle" x="811" y="-300.95" font-family="Times,serif" font-size="14.00">arg_exprs&#45;1</text>
</g>
<!-- 4385972416&#45;&gt;4385972800 -->
<g id="edge40" class="edge">
<title>4385972416&#45;&gt;4385972800</title>
<path fill="none" stroke="black" d="M710.8,-362.67C729.12,-352.49 753.97,-338.69 774.33,-327.37"/>
<polygon fill="black" stroke="black" points="775.88,-329.96 782.93,-322.04 772.48,-323.84 775.88,-329.96"/>
</g>
<!-- 22 -->
<g id="node41" class="node">
<title>22</title>
<ellipse fill="none" stroke="black" cx="651" cy="-234" rx="27" ry="18"/>
<text text-anchor="middle" x="651" y="-228.95" font-family="Times,serif" font-size="14.00">int</text>
</g>
<!-- 4385971712&#45;&gt;22 -->
<g id="edge35" class="edge">
<title>4385971712&#45;&gt;22</title>
<path fill="none" stroke="black" d="M675.09,-287.7C671.47,-279.78 667.1,-270.23 663.09,-261.44"/>
<polygon fill="black" stroke="black" points="665.94,-260.26 658.6,-252.62 659.57,-263.17 665.94,-260.26"/>
</g>
<!-- 23 -->
<g id="node42" class="node">
<title>23</title>
<ellipse fill="none" stroke="black" cx="723" cy="-234" rx="27" ry="18"/>
<text text-anchor="middle" x="723" y="-228.95" font-family="Times,serif" font-size="14.00">1</text>
</g>
<!-- 4385971712&#45;&gt;23 -->
<g id="edge36" class="edge">
<title>4385971712&#45;&gt;23</title>
<path fill="none" stroke="black" d="M692.68,-288.05C697.37,-279.85 703.1,-269.83 708.31,-260.71"/>
<polygon fill="black" stroke="black" points="711.76,-262.73 713.68,-252.31 705.68,-259.25 711.76,-262.73"/>
</g>
<!-- 24 -->
<g id="node44" class="node">
<title>24</title>
<ellipse fill="none" stroke="black" cx="809" cy="-234" rx="27" ry="18"/>
<text text-anchor="middle" x="809" y="-228.95" font-family="Times,serif" font-size="14.00">int</text>
</g>
<!-- 4385972800&#45;&gt;24 -->
<g id="edge38" class="edge">
<title>4385972800&#45;&gt;24</title>
<path fill="none" stroke="black" d="M810.51,-287.7C810.29,-280.24 810.04,-271.32 809.8,-262.97"/>
<polygon fill="black" stroke="black" points="813.27,-263 809.49,-253.1 806.28,-263.2 813.27,-263"/>
</g>
<!-- 25 -->
<g id="node45" class="node">
<title>25</title>
<ellipse fill="none" stroke="black" cx="881" cy="-234" rx="27" ry="18"/>
<text text-anchor="middle" x="881" y="-228.95" font-family="Times,serif" font-size="14.00">2</text>
</g>
<!-- 4385972800&#45;&gt;25 -->
<g id="edge39" class="edge">
<title>4385972800&#45;&gt;25</title>
<path fill="none" stroke="black" d="M827.59,-288.41C836.9,-279.1 848.65,-267.35 858.76,-257.24"/>
<polygon fill="black" stroke="black" points="860.83,-260.12 865.43,-250.57 855.88,-255.17 860.83,-260.12"/>
</g>
</g>
</svg>
