<?xml version="1.0" encoding="UTF-8" standalone="no"?>
<!DOCTYPE svg PUBLIC "-//W3C//DTD SVG 1.1//EN"
 "http://www.w3.org/Graphics/SVG/1.1/DTD/svg11.dtd">
<!-- Generated by graphviz version 8.0.5 (20230430.1635)
 -->
<!-- Pages: 1 -->
<svg width="242pt" height="188pt"
 viewBox="0.00 0.00 242.33 188.00" xmlns="http://www.w3.org/2000/svg" xmlns:xlink="http://www.w3.org/1999/xlink">
<g id="graph0" class="graph" transform="scale(1 1) rotate(0) translate(4 184)">
<polygon fill="white" stroke="none" points="-4,4 -4,-184 238.33,-184 238.33,4 -4,4"/>
<!-- {ZERO, NONZERO} -->
<g id="node1" class="node">
<title>{ZERO, NONZERO}</title>
<ellipse fill="none" stroke="black" cx="107.19" cy="-18" rx="93.32" ry="18"/>
<text text-anchor="middle" x="107.19" y="-12.95" font-family="Times,serif" font-size="14.00">{ZERO, NONZERO}</text>
</g>
<!-- set() -->
<g id="node2" class="node">
<title>set()</title>
<ellipse fill="none" stroke="black" cx="107.19" cy="-162" rx="27.3" ry="18"/>
<text text-anchor="middle" x="107.19" y="-156.95" font-family="Times,serif" font-size="14.00">set()</text>
</g>
<!-- {ZERO} -->
<g id="node3" class="node">
<title>{ZERO}</title>
<ellipse fill="none" stroke="black" cx="44.19" cy="-90" rx="44.19" ry="18"/>
<text text-anchor="middle" x="44.19" y="-84.95" font-family="Times,serif" font-size="14.00">{ZERO}</text>
</g>
<!-- set()&#45;&gt;{ZERO} -->
<g id="edge1" class="edge">
<title>set()&#45;&gt;{ZERO}</title>
<path fill="none" stroke="black" d="M93.83,-146.15C85.73,-137.16 75.21,-125.47 65.94,-115.18"/>
<polygon fill="black" stroke="black" points="69.14,-113.38 59.85,-108.29 63.94,-118.06 69.14,-113.38"/>
</g>
<!-- {NONZERO} -->
<g id="node4" class="node">
<title>{NONZERO}</title>
<ellipse fill="none" stroke="black" cx="170.19" cy="-90" rx="64.15" ry="18"/>
<text text-anchor="middle" x="170.19" y="-84.95" font-family="Times,serif" font-size="14.00">{NONZERO}</text>
</g>
<!-- set()&#45;&gt;{NONZERO} -->
<g id="edge2" class="edge">
<title>set()&#45;&gt;{NONZERO}</title>
<path fill="none" stroke="black" d="M120.55,-146.15C128.45,-137.38 138.66,-126.03 147.76,-115.91"/>
<polygon fill="black" stroke="black" points="149.99,-118.56 154.08,-108.79 144.78,-113.88 149.99,-118.56"/>
</g>
<!-- {ZERO}&#45;&gt;{ZERO, NONZERO} -->
<g id="edge3" class="edge">
<title>{ZERO}&#45;&gt;{ZERO, NONZERO}</title>
<path fill="none" stroke="black" d="M58.8,-72.76C66.44,-64.27 75.98,-53.68 84.55,-44.15"/>
<polygon fill="black" stroke="black" points="86.69,-46.9 90.77,-37.12 81.48,-42.22 86.69,-46.9"/>
</g>
<!-- {NONZERO}&#45;&gt;{ZERO, NONZERO} -->
<g id="edge4" class="edge">
<title>{NONZERO}&#45;&gt;{ZERO, NONZERO}</title>
<path fill="none" stroke="black" d="M154.94,-72.05C147.27,-63.54 137.85,-53.07 129.4,-43.68"/>
<polygon fill="black" stroke="black" points="132.59,-41.88 123.3,-36.79 127.38,-46.56 132.59,-41.88"/>
</g>
</g>
</svg>
