<?xml version="1.0" encoding="UTF-8" standalone="no"?>
<!DOCTYPE svg PUBLIC "-//W3C//DTD SVG 1.1//EN"
 "http://www.w3.org/Graphics/SVG/1.1/DTD/svg11.dtd">
<!-- Generated by graphviz version 8.0.5 (20230430.1635)
 -->
<!-- Pages: 1 -->
<svg width="286pt" height="260pt"
 viewBox="0.00 0.00 285.70 260.00" xmlns="http://www.w3.org/2000/svg" xmlns:xlink="http://www.w3.org/1999/xlink">
<g id="graph0" class="graph" transform="scale(1 1) rotate(0) translate(4 256)">
<polygon fill="white" stroke="none" points="-4,4 -4,-256 281.7,-256 281.7,4 -4,4"/>
<!-- {&#39;z&#39;, &#39;x&#39;, &#39;y&#39;} -->
<g id="node1" class="node">
<title>{&#39;z&#39;, &#39;x&#39;, &#39;y&#39;}</title>
<ellipse fill="none" stroke="black" cx="139.6" cy="-18" rx="52.89" ry="18"/>
<text text-anchor="middle" x="139.6" y="-12.95" font-family="Times,serif" font-size="14.00">{&#39;z&#39;, &#39;x&#39;, &#39;y&#39;}</text>
</g>
<!-- set() -->
<g id="node2" class="node">
<title>set()</title>
<ellipse fill="none" stroke="black" cx="139.6" cy="-234" rx="27.3" ry="18"/>
<text text-anchor="middle" x="139.6" y="-228.95" font-family="Times,serif" font-size="14.00">set()</text>
</g>
<!-- {&#39;x&#39;} -->
<g id="node3" class="node">
<title>{&#39;x&#39;}</title>
<ellipse fill="none" stroke="black" cx="65.6" cy="-162" rx="27.81" ry="18"/>
<text text-anchor="middle" x="65.6" y="-156.95" font-family="Times,serif" font-size="14.00">{&#39;x&#39;}</text>
</g>
<!-- set()&#45;&gt;{&#39;x&#39;} -->
<g id="edge1" class="edge">
<title>set()&#45;&gt;{&#39;x&#39;}</title>
<path fill="none" stroke="black" d="M124.63,-218.83C114.27,-209.03 100.28,-195.8 88.52,-184.68"/>
<polygon fill="black" stroke="black" points="91.48,-182.71 81.81,-178.38 86.67,-187.8 91.48,-182.71"/>
</g>
<!-- {&#39;y&#39;} -->
<g id="node4" class="node">
<title>{&#39;y&#39;}</title>
<ellipse fill="none" stroke="black" cx="139.6" cy="-162" rx="27.81" ry="18"/>
<text text-anchor="middle" x="139.6" y="-156.95" font-family="Times,serif" font-size="14.00">{&#39;y&#39;}</text>
</g>
<!-- set()&#45;&gt;{&#39;y&#39;} -->
<g id="edge2" class="edge">
<title>set()&#45;&gt;{&#39;y&#39;}</title>
<path fill="none" stroke="black" d="M139.6,-215.7C139.6,-208.24 139.6,-199.32 139.6,-190.97"/>
<polygon fill="black" stroke="black" points="143.1,-191.1 139.6,-181.1 136.1,-191.1 143.1,-191.1"/>
</g>
<!-- {&#39;z&#39;} -->
<g id="node5" class="node">
<title>{&#39;z&#39;}</title>
<ellipse fill="none" stroke="black" cx="212.6" cy="-162" rx="27.3" ry="18"/>
<text text-anchor="middle" x="212.6" y="-156.95" font-family="Times,serif" font-size="14.00">{&#39;z&#39;}</text>
</g>
<!-- set()&#45;&gt;{&#39;z&#39;} -->
<g id="edge3" class="edge">
<title>set()&#45;&gt;{&#39;z&#39;}</title>
<path fill="none" stroke="black" d="M154.73,-218.5C164.81,-208.83 178.25,-195.94 189.64,-185.02"/>
<polygon fill="black" stroke="black" points="191.7,-187.93 196.5,-178.49 186.86,-182.88 191.7,-187.93"/>
</g>
<!-- {&#39;x&#39;, &#39;y&#39;} -->
<g id="node6" class="node">
<title>{&#39;x&#39;, &#39;y&#39;}</title>
<ellipse fill="none" stroke="black" cx="40.6" cy="-90" rx="40.6" ry="18"/>
<text text-anchor="middle" x="40.6" y="-84.95" font-family="Times,serif" font-size="14.00">{&#39;x&#39;, &#39;y&#39;}</text>
</g>
<!-- {&#39;x&#39;}&#45;&gt;{&#39;x&#39;, &#39;y&#39;} -->
<g id="edge4" class="edge">
<title>{&#39;x&#39;}&#45;&gt;{&#39;x&#39;, &#39;y&#39;}</title>
<path fill="none" stroke="black" d="M59.55,-144.05C56.8,-136.35 53.47,-127.03 50.38,-118.36"/>
<polygon fill="black" stroke="black" points="53.43,-117.52 46.77,-109.28 46.84,-119.87 53.43,-117.52"/>
</g>
<!-- {&#39;z&#39;, &#39;x&#39;} -->
<g id="node7" class="node">
<title>{&#39;z&#39;, &#39;x&#39;}</title>
<ellipse fill="none" stroke="black" cx="139.6" cy="-90" rx="40.09" ry="18"/>
<text text-anchor="middle" x="139.6" y="-84.95" font-family="Times,serif" font-size="14.00">{&#39;z&#39;, &#39;x&#39;}</text>
</g>
<!-- {&#39;x&#39;}&#45;&gt;{&#39;z&#39;, &#39;x&#39;} -->
<g id="edge5" class="edge">
<title>{&#39;x&#39;}&#45;&gt;{&#39;z&#39;, &#39;x&#39;}</title>
<path fill="none" stroke="black" d="M80.94,-146.5C90.82,-137.15 103.88,-124.8 115.17,-114.12"/>
<polygon fill="black" stroke="black" points="117.14,-117.12 122,-107.7 112.33,-112.03 117.14,-117.12"/>
</g>
<!-- {&#39;y&#39;}&#45;&gt;{&#39;x&#39;, &#39;y&#39;} -->
<g id="edge6" class="edge">
<title>{&#39;y&#39;}&#45;&gt;{&#39;x&#39;, &#39;y&#39;}</title>
<path fill="none" stroke="black" d="M121.45,-148.16C107.13,-138.04 86.87,-123.71 70.21,-111.93"/>
<polygon fill="black" stroke="black" points="72.57,-108.61 62.39,-105.7 68.53,-114.33 72.57,-108.61"/>
</g>
<!-- {&#39;z&#39;, &#39;y&#39;} -->
<g id="node8" class="node">
<title>{&#39;z&#39;, &#39;y&#39;}</title>
<ellipse fill="none" stroke="black" cx="237.6" cy="-90" rx="40.09" ry="18"/>
<text text-anchor="middle" x="237.6" y="-84.95" font-family="Times,serif" font-size="14.00">{&#39;z&#39;, &#39;y&#39;}</text>
</g>
<!-- {&#39;y&#39;}&#45;&gt;{&#39;z&#39;, &#39;y&#39;} -->
<g id="edge7" class="edge">
<title>{&#39;y&#39;}&#45;&gt;{&#39;z&#39;, &#39;y&#39;}</title>
<path fill="none" stroke="black" d="M157.58,-148.16C171.75,-138.04 191.81,-123.71 208.3,-111.93"/>
<polygon fill="black" stroke="black" points="209.93,-114.36 216.03,-105.7 205.86,-108.66 209.93,-114.36"/>
</g>
<!-- {&#39;z&#39;}&#45;&gt;{&#39;z&#39;, &#39;x&#39;} -->
<g id="edge8" class="edge">
<title>{&#39;z&#39;}&#45;&gt;{&#39;z&#39;, &#39;x&#39;}</title>
<path fill="none" stroke="black" d="M197.48,-146.5C187.73,-137.15 174.85,-124.8 163.71,-114.12"/>
<polygon fill="black" stroke="black" points="166.62,-112.1 156.98,-107.7 161.77,-117.15 166.62,-112.1"/>
</g>
<!-- {&#39;z&#39;}&#45;&gt;{&#39;z&#39;, &#39;y&#39;} -->
<g id="edge9" class="edge">
<title>{&#39;z&#39;}&#45;&gt;{&#39;z&#39;, &#39;y&#39;}</title>
<path fill="none" stroke="black" d="M218.66,-144.05C221.41,-136.35 224.74,-127.03 227.83,-118.36"/>
<polygon fill="black" stroke="black" points="231.37,-119.87 231.43,-109.28 224.77,-117.52 231.37,-119.87"/>
</g>
<!-- {&#39;x&#39;, &#39;y&#39;}&#45;&gt;{&#39;z&#39;, &#39;x&#39;, &#39;y&#39;} -->
<g id="edge10" class="edge">
<title>{&#39;x&#39;, &#39;y&#39;}&#45;&gt;{&#39;z&#39;, &#39;x&#39;, &#39;y&#39;}</title>
<path fill="none" stroke="black" d="M61.6,-74.15C75.26,-64.49 93.32,-51.72 108.63,-40.9"/>
<polygon fill="black" stroke="black" points="110.12,-43.43 116.26,-34.8 106.08,-37.71 110.12,-43.43"/>
</g>
<!-- {&#39;z&#39;, &#39;x&#39;}&#45;&gt;{&#39;z&#39;, &#39;x&#39;, &#39;y&#39;} -->
<g id="edge11" class="edge">
<title>{&#39;z&#39;, &#39;x&#39;}&#45;&gt;{&#39;z&#39;, &#39;x&#39;, &#39;y&#39;}</title>
<path fill="none" stroke="black" d="M139.6,-71.7C139.6,-64.24 139.6,-55.32 139.6,-46.97"/>
<polygon fill="black" stroke="black" points="143.1,-47.1 139.6,-37.1 136.1,-47.1 143.1,-47.1"/>
</g>
<!-- {&#39;z&#39;, &#39;y&#39;}&#45;&gt;{&#39;z&#39;, &#39;x&#39;, &#39;y&#39;} -->
<g id="edge12" class="edge">
<title>{&#39;z&#39;, &#39;y&#39;}&#45;&gt;{&#39;z&#39;, &#39;x&#39;, &#39;y&#39;}</title>
<path fill="none" stroke="black" d="M216.82,-74.15C203.29,-64.49 185.41,-51.72 170.27,-40.9"/>
<polygon fill="black" stroke="black" points="172.89,-37.76 162.72,-34.8 168.82,-43.46 172.89,-37.76"/>
</g>
</g>
</svg>
