<?xml version="1.0" encoding="UTF-8" standalone="no"?>
<!DOCTYPE svg PUBLIC "-//W3C//DTD SVG 1.1//EN"
 "http://www.w3.org/Graphics/SVG/1.1/DTD/svg11.dtd">
<!-- Generated by graphviz version 8.0.5 (20230430.1635)
 -->
<!-- Pages: 1 -->
<svg width="1131pt" height="188pt"
 viewBox="0.00 0.00 1131.05 188.00" xmlns="http://www.w3.org/2000/svg" xmlns:xlink="http://www.w3.org/1999/xlink">
<g id="graph0" class="graph" transform="scale(1 1) rotate(0) translate(4 184)">
<polygon fill="white" stroke="none" points="-4,4 -4,-184 1127.05,-184 1127.05,4 -4,4"/>
<!-- foo_1 -->
<g id="node1" class="node">
<title>foo_1</title>
<ellipse fill="none" stroke="black" cx="418.28" cy="-162" rx="27" ry="18"/>
<text text-anchor="middle" x="418.28" y="-156.95" font-family="Times,serif" font-size="14.00">foo</text>
</g>
<!-- method_a_1 -->
<g id="node2" class="node">
<title>method_a_1</title>
<ellipse fill="none" stroke="black" cx="162.28" cy="-90" rx="47.77" ry="18"/>
<text text-anchor="middle" x="162.28" y="-84.95" font-family="Times,serif" font-size="14.00">method_a</text>
</g>
<!-- foo_1&#45;&gt;method_a_1 -->
<g id="edge1" class="edge">
<title>foo_1&#45;&gt;method_a_1</title>
<path fill="none" stroke="black" d="M393.4,-154.62C355.66,-144.9 281.73,-125.63 219.28,-108 215.95,-107.06 212.52,-106.08 209.06,-105.07"/>
<polygon fill="black" stroke="black" points="210.3,-101.5 199.72,-102.04 208.34,-108.21 210.3,-101.5"/>
</g>
<!-- method_d_1 -->
<g id="node5" class="node">
<title>method_d_1</title>
<ellipse fill="none" stroke="black" cx="276.28" cy="-90" rx="48.28" ry="18"/>
<text text-anchor="middle" x="276.28" y="-84.95" font-family="Times,serif" font-size="14.00">method_d</text>
</g>
<!-- foo_1&#45;&gt;method_d_1 -->
<g id="edge4" class="edge">
<title>foo_1&#45;&gt;method_d_1</title>
<path fill="none" stroke="black" d="M397.02,-150.52C375.21,-139.77 340.8,-122.8 314.28,-109.73"/>
<polygon fill="black" stroke="black" points="316.07,-106.22 305.55,-104.94 312.97,-112.5 316.07,-106.22"/>
</g>
<!-- method_a_2 -->
<g id="node7" class="node">
<title>method_a_2</title>
<ellipse fill="none" stroke="black" cx="418.28" cy="-90" rx="47.77" ry="18"/>
<text text-anchor="middle" x="418.28" y="-84.95" font-family="Times,serif" font-size="14.00">method_a</text>
</g>
<!-- foo_1&#45;&gt;method_a_2 -->
<g id="edge6" class="edge">
<title>foo_1&#45;&gt;method_a_2</title>
<path fill="none" stroke="black" d="M418.28,-143.7C418.28,-136.24 418.28,-127.32 418.28,-118.97"/>
<polygon fill="black" stroke="black" points="421.78,-119.1 418.28,-109.1 414.78,-119.1 421.78,-119.1"/>
</g>
<!-- method_d_2 -->
<g id="node10" class="node">
<title>method_d_2</title>
<ellipse fill="none" stroke="black" cx="561.28" cy="-90" rx="48.28" ry="18"/>
<text text-anchor="middle" x="561.28" y="-84.95" font-family="Times,serif" font-size="14.00">method_d</text>
</g>
<!-- foo_1&#45;&gt;method_d_2 -->
<g id="edge9" class="edge">
<title>foo_1&#45;&gt;method_d_2</title>
<path fill="none" stroke="black" d="M439.69,-150.52C461.66,-139.77 496.31,-122.8 523.01,-109.73"/>
<polygon fill="black" stroke="black" points="524.37,-112.48 531.81,-104.94 521.29,-106.19 524.37,-112.48"/>
</g>
<!-- method_a_3 -->
<g id="node12" class="node">
<title>method_a_3</title>
<ellipse fill="none" stroke="black" cx="847.28" cy="-90" rx="47.77" ry="18"/>
<text text-anchor="middle" x="847.28" y="-84.95" font-family="Times,serif" font-size="14.00">method_a</text>
</g>
<!-- foo_1&#45;&gt;method_a_3 -->
<g id="edge11" class="edge">
<title>foo_1&#45;&gt;method_a_3</title>
<path fill="none" stroke="black" d="M444.47,-156.73C513.33,-145.49 700.53,-114.95 793.46,-99.78"/>
<polygon fill="black" stroke="black" points="793.73,-103.12 803.04,-98.06 792.61,-96.21 793.73,-103.12"/>
</g>
<!-- method_b_1 -->
<g id="node3" class="node">
<title>method_b_1</title>
<ellipse fill="none" stroke="black" cx="48.28" cy="-18" rx="48.28" ry="18"/>
<text text-anchor="middle" x="48.28" y="-12.95" font-family="Times,serif" font-size="14.00">method_b</text>
</g>
<!-- method_a_1&#45;&gt;method_b_1 -->
<g id="edge2" class="edge">
<title>method_a_1&#45;&gt;method_b_1</title>
<path fill="none" stroke="black" d="M138.1,-74.15C121.63,-64.04 99.61,-50.52 81.49,-39.39"/>
<polygon fill="black" stroke="black" points="83.78,-36.07 73.42,-33.82 80.11,-42.04 83.78,-36.07"/>
</g>
<!-- method_c_1 -->
<g id="node4" class="node">
<title>method_c_1</title>
<ellipse fill="none" stroke="black" cx="162.28" cy="-18" rx="47.77" ry="18"/>
<text text-anchor="middle" x="162.28" y="-12.95" font-family="Times,serif" font-size="14.00">method_c</text>
</g>
<!-- method_a_1&#45;&gt;method_c_1 -->
<g id="edge3" class="edge">
<title>method_a_1&#45;&gt;method_c_1</title>
<path fill="none" stroke="black" d="M162.28,-71.7C162.28,-64.24 162.28,-55.32 162.28,-46.97"/>
<polygon fill="black" stroke="black" points="165.78,-47.1 162.28,-37.1 158.78,-47.1 165.78,-47.1"/>
</g>
<!-- method_c_2 -->
<g id="node6" class="node">
<title>method_c_2</title>
<ellipse fill="none" stroke="black" cx="276.28" cy="-18" rx="47.77" ry="18"/>
<text text-anchor="middle" x="276.28" y="-12.95" font-family="Times,serif" font-size="14.00">method_c</text>
</g>
<!-- method_d_1&#45;&gt;method_c_2 -->
<g id="edge5" class="edge">
<title>method_d_1&#45;&gt;method_c_2</title>
<path fill="none" stroke="black" d="M276.28,-71.7C276.28,-64.24 276.28,-55.32 276.28,-46.97"/>
<polygon fill="black" stroke="black" points="279.78,-47.1 276.28,-37.1 272.78,-47.1 279.78,-47.1"/>
</g>
<!-- method_b_2 -->
<g id="node8" class="node">
<title>method_b_2</title>
<ellipse fill="none" stroke="black" cx="390.28" cy="-18" rx="48.28" ry="18"/>
<text text-anchor="middle" x="390.28" y="-12.95" font-family="Times,serif" font-size="14.00">method_b</text>
</g>
<!-- method_a_2&#45;&gt;method_b_2 -->
<g id="edge7" class="edge">
<title>method_a_2&#45;&gt;method_b_2</title>
<path fill="none" stroke="black" d="M411.36,-71.7C408.27,-63.98 404.57,-54.71 401.13,-46.11"/>
<polygon fill="black" stroke="black" points="404.09,-45.09 397.12,-37.1 397.59,-47.69 404.09,-45.09"/>
</g>
<!-- method_c_3 -->
<g id="node9" class="node">
<title>method_c_3</title>
<ellipse fill="none" stroke="black" cx="504.28" cy="-18" rx="47.77" ry="18"/>
<text text-anchor="middle" x="504.28" y="-12.95" font-family="Times,serif" font-size="14.00">method_c</text>
</g>
<!-- method_a_2&#45;&gt;method_c_3 -->
<g id="edge8" class="edge">
<title>method_a_2&#45;&gt;method_c_3</title>
<path fill="none" stroke="black" d="M437.8,-73.12C449.23,-63.81 463.86,-51.9 476.49,-41.62"/>
<polygon fill="black" stroke="black" points="478.3,-43.85 483.84,-34.82 473.88,-38.42 478.3,-43.85"/>
</g>
<!-- method_c_4 -->
<g id="node11" class="node">
<title>method_c_4</title>
<ellipse fill="none" stroke="black" cx="618.28" cy="-18" rx="47.77" ry="18"/>
<text text-anchor="middle" x="618.28" y="-12.95" font-family="Times,serif" font-size="14.00">method_c</text>
</g>
<!-- method_d_2&#45;&gt;method_c_4 -->
<g id="edge10" class="edge">
<title>method_d_2&#45;&gt;method_c_4</title>
<path fill="none" stroke="black" d="M574.79,-72.41C581.75,-63.87 590.37,-53.28 598.1,-43.79"/>
<polygon fill="black" stroke="black" points="601.27,-46.43 604.87,-36.47 595.84,-42.01 601.27,-46.43"/>
</g>
<!-- method_b_3 -->
<g id="node13" class="node">
<title>method_b_3</title>
<ellipse fill="none" stroke="black" cx="732.28" cy="-18" rx="48.28" ry="18"/>
<text text-anchor="middle" x="732.28" y="-12.95" font-family="Times,serif" font-size="14.00">method_b</text>
</g>
<!-- method_a_3&#45;&gt;method_b_3 -->
<g id="edge12" class="edge">
<title>method_a_3&#45;&gt;method_b_3</title>
<path fill="none" stroke="black" d="M822.89,-74.15C806.27,-64.04 784.06,-50.52 765.78,-39.39"/>
<polygon fill="black" stroke="black" points="768,-36.03 757.63,-33.82 764.36,-42.01 768,-36.03"/>
</g>
<!-- method_b_4 -->
<g id="node14" class="node">
<title>method_b_4</title>
<ellipse fill="none" stroke="black" cx="847.28" cy="-18" rx="48.28" ry="18"/>
<text text-anchor="middle" x="847.28" y="-12.95" font-family="Times,serif" font-size="14.00">method_b</text>
</g>
<!-- method_a_3&#45;&gt;method_b_4 -->
<g id="edge13" class="edge">
<title>method_a_3&#45;&gt;method_b_4</title>
<path fill="none" stroke="black" d="M847.28,-71.7C847.28,-64.24 847.28,-55.32 847.28,-46.97"/>
<polygon fill="black" stroke="black" points="850.78,-47.1 847.28,-37.1 843.78,-47.1 850.78,-47.1"/>
</g>
<!-- method_c_5 -->
<g id="node15" class="node">
<title>method_c_5</title>
<ellipse fill="none" stroke="black" cx="961.28" cy="-18" rx="47.77" ry="18"/>
<text text-anchor="middle" x="961.28" y="-12.95" font-family="Times,serif" font-size="14.00">method_c</text>
</g>
<!-- method_a_3&#45;&gt;method_c_5 -->
<g id="edge14" class="edge">
<title>method_a_3&#45;&gt;method_c_5</title>
<path fill="none" stroke="black" d="M871.46,-74.15C887.93,-64.04 909.96,-50.52 928.07,-39.39"/>
<polygon fill="black" stroke="black" points="929.45,-42.04 936.14,-33.82 925.79,-36.07 929.45,-42.04"/>
</g>
<!-- method_c_6 -->
<g id="node16" class="node">
<title>method_c_6</title>
<ellipse fill="none" stroke="black" cx="1075.28" cy="-18" rx="47.77" ry="18"/>
<text text-anchor="middle" x="1075.28" y="-12.95" font-family="Times,serif" font-size="14.00">method_c</text>
</g>
<!-- method_a_3&#45;&gt;method_c_6 -->
<g id="edge15" class="edge">
<title>method_a_3&#45;&gt;method_c_6</title>
<path fill="none" stroke="black" d="M883.41,-77.91C922.65,-65.86 985.47,-46.57 1028.47,-33.37"/>
<polygon fill="black" stroke="black" points="1029.41,-36.44 1037.95,-30.16 1027.36,-29.74 1029.41,-36.44"/>
</g>
</g>
</svg>
