<?xml version="1.0" encoding="UTF-8" standalone="no"?>
<!DOCTYPE svg PUBLIC "-//W3C//DTD SVG 1.1//EN"
 "http://www.w3.org/Graphics/SVG/1.1/DTD/svg11.dtd">
<!-- Generated by graphviz version 8.0.5 (20230430.1635)
 -->
<!-- Pages: 1 -->
<svg width="219pt" height="188pt"
 viewBox="0.00 0.00 218.56 188.00" xmlns="http://www.w3.org/2000/svg" xmlns:xlink="http://www.w3.org/1999/xlink">
<g id="graph0" class="graph" transform="scale(1 1) rotate(0) translate(4 184)">
<polygon fill="white" stroke="none" points="-4,4 -4,-184 214.56,-184 214.56,4 -4,4"/>
<!-- foo -->
<g id="node1" class="node">
<title>foo</title>
<ellipse fill="none" stroke="black" cx="105.28" cy="-162" rx="27" ry="18"/>
<text text-anchor="middle" x="105.28" y="-156.95" font-family="Times,serif" font-size="14.00">foo</text>
</g>
<!-- method_a -->
<g id="node2" class="node">
<title>method_a</title>
<ellipse fill="none" stroke="black" cx="48.28" cy="-90" rx="47.77" ry="18"/>
<text text-anchor="middle" x="48.28" y="-84.95" font-family="Times,serif" font-size="14.00">method_a</text>
</g>
<!-- foo&#45;&gt;method_a -->
<g id="edge1" class="edge">
<title>foo&#45;&gt;method_a</title>
<path fill="none" stroke="black" d="M92.91,-145.81C85.82,-137.1 76.74,-125.96 68.63,-115.99"/>
<polygon fill="black" stroke="black" points="70.85,-114.17 61.82,-108.63 65.42,-118.59 70.85,-114.17"/>
</g>
<!-- method_d -->
<g id="node5" class="node">
<title>method_d</title>
<ellipse fill="none" stroke="black" cx="162.28" cy="-90" rx="48.28" ry="18"/>
<text text-anchor="middle" x="162.28" y="-84.95" font-family="Times,serif" font-size="14.00">method_d</text>
</g>
<!-- foo&#45;&gt;method_d -->
<g id="edge4" class="edge">
<title>foo&#45;&gt;method_d</title>
<path fill="none" stroke="black" d="M117.65,-145.81C124.74,-137.1 133.82,-125.96 141.93,-115.99"/>
<polygon fill="black" stroke="black" points="145.14,-118.59 148.74,-108.63 139.71,-114.17 145.14,-118.59"/>
</g>
<!-- method_b -->
<g id="node3" class="node">
<title>method_b</title>
<ellipse fill="none" stroke="black" cx="48.28" cy="-18" rx="48.28" ry="18"/>
<text text-anchor="middle" x="48.28" y="-12.95" font-family="Times,serif" font-size="14.00">method_b</text>
</g>
<!-- method_a&#45;&gt;method_b -->
<g id="edge2" class="edge">
<title>method_a&#45;&gt;method_b</title>
<path fill="none" stroke="black" d="M48.28,-71.7C48.28,-64.24 48.28,-55.32 48.28,-46.97"/>
<polygon fill="black" stroke="black" points="51.78,-47.1 48.28,-37.1 44.78,-47.1 51.78,-47.1"/>
</g>
<!-- method_c -->
<g id="node4" class="node">
<title>method_c</title>
<ellipse fill="none" stroke="black" cx="162.28" cy="-18" rx="47.77" ry="18"/>
<text text-anchor="middle" x="162.28" y="-12.95" font-family="Times,serif" font-size="14.00">method_c</text>
</g>
<!-- method_a&#45;&gt;method_c -->
<g id="edge3" class="edge">
<title>method_a&#45;&gt;method_c</title>
<path fill="none" stroke="black" d="M72.46,-74.15C88.93,-64.04 110.96,-50.52 129.07,-39.39"/>
<polygon fill="black" stroke="black" points="130.45,-42.04 137.14,-33.82 126.79,-36.07 130.45,-42.04"/>
</g>
<!-- method_d&#45;&gt;method_c -->
<g id="edge5" class="edge">
<title>method_d&#45;&gt;method_c</title>
<path fill="none" stroke="black" d="M162.28,-71.7C162.28,-64.24 162.28,-55.32 162.28,-46.97"/>
<polygon fill="black" stroke="black" points="165.78,-47.1 162.28,-37.1 158.78,-47.1 165.78,-47.1"/>
</g>
</g>
</svg>
