<?xml version="1.0" encoding="UTF-8" standalone="no"?>
<!DOCTYPE svg PUBLIC "-//W3C//DTD SVG 1.1//EN"
 "http://www.w3.org/Graphics/SVG/1.1/DTD/svg11.dtd">
<!-- Generated by graphviz version 8.0.5 (20230430.1635)
 -->
<!-- Pages: 1 -->
<svg width="564pt" height="332pt"
 viewBox="0.00 0.00 563.55 332.00" xmlns="http://www.w3.org/2000/svg" xmlns:xlink="http://www.w3.org/1999/xlink">
<g id="graph0" class="graph" transform="scale(1 1) rotate(0) translate(4 328)">
<polygon fill="white" stroke="none" points="-4,4 -4,-328 559.55,-328 559.55,4 -4,4"/>
<!-- 4425239184 -->
<g id="node1" class="node">
<title>4425239184</title>
<ellipse fill="none" stroke="black" cx="255.15" cy="-306" rx="76.43" ry="18"/>
<text text-anchor="start" x="207.15" y="-300.95" font-family="Times,serif" font-size="14.00">class &#39;ast.Module&#39;</text>
</g>
<!-- 4425242640 -->
<g id="node2" class="node">
<title>4425242640</title>
<ellipse fill="none" stroke="black" cx="255.15" cy="-234" rx="67.22" ry="18"/>
<text text-anchor="middle" x="255.15" y="-228.95" font-family="Times,serif" font-size="14.00">0: FunctionDef</text>
</g>
<!-- 4425239184&#45;&gt;4425242640 -->
<g id="edge1" class="edge">
<title>4425239184&#45;&gt;4425242640</title>
<path fill="none" stroke="black" d="M255.15,-287.7C255.15,-280.24 255.15,-271.32 255.15,-262.97"/>
<polygon fill="black" stroke="black" points="258.65,-263.1 255.15,-253.1 251.65,-263.1 258.65,-263.1"/>
</g>
<!-- 4425248112 -->
<g id="node3" class="node">
<title>4425248112</title>
<ellipse fill="none" stroke="black" cx="86.15" cy="-162" rx="86.15" ry="18"/>
<text text-anchor="start" x="31.03" y="-156.95" font-family="Times,serif" font-size="14.00">class &#39;ast.arguments&#39;</text>
</g>
<!-- 4425242640&#45;&gt;4425248112 -->
<g id="edge2" class="edge">
<title>4425242640&#45;&gt;4425248112</title>
<path fill="none" stroke="black" d="M219.73,-218.33C194.84,-208.02 161.26,-194.11 133.99,-182.81"/>
<polygon fill="black" stroke="black" points="135.46,-179.22 124.88,-178.63 132.78,-185.69 135.46,-179.22"/>
</g>
<!-- 4425246000 -->
<g id="node4" class="node">
<title>4425246000</title>
<ellipse fill="none" stroke="black" cx="255.15" cy="-162" rx="65.17" ry="18"/>
<text text-anchor="start" x="215.4" y="-156.95" font-family="Times,serif" font-size="14.00">class &#39;ast.Expr&#39;</text>
</g>
<!-- 4425242640&#45;&gt;4425246000 -->
<g id="edge3" class="edge">
<title>4425242640&#45;&gt;4425246000</title>
<path fill="none" stroke="black" d="M255.15,-215.7C255.15,-208.24 255.15,-199.32 255.15,-190.97"/>
<polygon fill="black" stroke="black" points="258.65,-191.1 255.15,-181.1 251.65,-191.1 258.65,-191.1"/>
</g>
<!-- 4425238896 -->
<g id="node8" class="node">
<title>4425238896</title>
<ellipse fill="none" stroke="black" cx="382.15" cy="-162" rx="38.56" ry="18"/>
<text text-anchor="middle" x="382.15" y="-156.95" font-family="Times,serif" font-size="14.00">1: Expr</text>
</g>
<!-- 4425242640&#45;&gt;4425238896 -->
<g id="edge7" class="edge">
<title>4425242640&#45;&gt;4425238896</title>
<path fill="none" stroke="black" d="M283.66,-217.29C302.89,-206.69 328.35,-192.66 348.56,-181.51"/>
<polygon fill="black" stroke="black" points="349.95,-184.2 357.02,-176.3 346.57,-178.07 349.95,-184.2"/>
</g>
<!-- 4425246192 -->
<g id="node5" class="node">
<title>4425246192</title>
<ellipse fill="none" stroke="black" cx="246.15" cy="-90" rx="62.61" ry="18"/>
<text text-anchor="start" x="208.28" y="-84.95" font-family="Times,serif" font-size="14.00">class &#39;ast.Call&#39;</text>
</g>
<!-- 4425246000&#45;&gt;4425246192 -->
<g id="edge4" class="edge">
<title>4425246000&#45;&gt;4425246192</title>
<path fill="none" stroke="black" d="M252.93,-143.7C251.97,-136.24 250.82,-127.32 249.75,-118.97"/>
<polygon fill="black" stroke="black" points="253.1,-118.58 248.35,-109.1 246.16,-119.47 253.1,-118.58"/>
</g>
<!-- 4425246144 -->
<g id="node6" class="node">
<title>4425246144</title>
<ellipse fill="none" stroke="black" cx="78.15" cy="-18" rx="69.78" ry="18"/>
<text text-anchor="start" x="35.03" y="-12.95" font-family="Times,serif" font-size="14.00">class &#39;ast.Name&#39;</text>
</g>
<!-- 4425246192&#45;&gt;4425246144 -->
<g id="edge5" class="edge">
<title>4425246192&#45;&gt;4425246144</title>
<path fill="none" stroke="black" d="M211.75,-74.67C186.27,-64.05 151.31,-49.48 123.54,-37.91"/>
<polygon fill="black" stroke="black" points="125.25,-34.41 114.67,-33.8 122.55,-40.87 125.25,-34.41"/>
</g>
<!-- 4425246240 -->
<g id="node7" class="node">
<title>4425246240</title>
<ellipse fill="none" stroke="black" cx="246.15" cy="-18" rx="80.01" ry="18"/>
<text text-anchor="start" x="195.53" y="-12.95" font-family="Times,serif" font-size="14.00">class &#39;ast.Constant&#39;</text>
</g>
<!-- 4425246192&#45;&gt;4425246240 -->
<g id="edge6" class="edge">
<title>4425246192&#45;&gt;4425246240</title>
<path fill="none" stroke="black" d="M246.15,-71.7C246.15,-64.24 246.15,-55.32 246.15,-46.97"/>
<polygon fill="black" stroke="black" points="249.65,-47.1 246.15,-37.1 242.65,-47.1 249.65,-47.1"/>
</g>
<!-- 4425252144 -->
<g id="node9" class="node">
<title>4425252144</title>
<ellipse fill="none" stroke="black" cx="387.15" cy="-90" rx="36" ry="18"/>
<text text-anchor="middle" x="387.15" y="-84.95" font-family="Times,serif" font-size="14.00">1: Call</text>
</g>
<!-- 4425238896&#45;&gt;4425252144 -->
<g id="edge8" class="edge">
<title>4425238896&#45;&gt;4425252144</title>
<path fill="none" stroke="black" d="M383.39,-143.7C383.92,-136.24 384.56,-127.32 385.16,-118.97"/>
<polygon fill="black" stroke="black" points="388.71,-119.33 385.93,-109.1 381.73,-118.83 388.71,-119.33"/>
</g>
<!-- 4425252192 -->
<g id="node10" class="node">
<title>4425252192</title>
<ellipse fill="none" stroke="black" cx="387.15" cy="-18" rx="43.16" ry="18"/>
<text text-anchor="middle" x="387.15" y="-12.95" font-family="Times,serif" font-size="14.00">1: Name</text>
</g>
<!-- 4425252144&#45;&gt;4425252192 -->
<g id="edge9" class="edge">
<title>4425252144&#45;&gt;4425252192</title>
<path fill="none" stroke="black" d="M387.15,-71.7C387.15,-64.24 387.15,-55.32 387.15,-46.97"/>
<polygon fill="black" stroke="black" points="390.65,-47.1 387.15,-37.1 383.65,-47.1 390.65,-47.1"/>
</g>
<!-- 4425238512 -->
<g id="node11" class="node">
<title>4425238512</title>
<ellipse fill="none" stroke="black" cx="502.15" cy="-18" rx="53.4" ry="18"/>
<text text-anchor="middle" x="502.15" y="-12.95" font-family="Times,serif" font-size="14.00">1: Constant</text>
</g>
<!-- 4425252144&#45;&gt;4425238512 -->
<g id="edge10" class="edge">
<title>4425252144&#45;&gt;4425238512</title>
<path fill="none" stroke="black" d="M409.33,-75.5C425.97,-65.38 449.05,-51.32 468.03,-39.77"/>
<polygon fill="black" stroke="black" points="469.53,-42.35 476.25,-34.16 465.89,-36.37 469.53,-42.35"/>
</g>
</g>
</svg>
