<?xml version="1.0" encoding="UTF-8" standalone="no"?>
<!DOCTYPE svg PUBLIC "-//W3C//DTD SVG 1.1//EN"
 "http://www.w3.org/Graphics/SVG/1.1/DTD/svg11.dtd">
<!-- Generated by graphviz version 8.0.5 (20230430.1635)
 -->
<!-- Pages: 1 -->
<svg width="1914pt" height="548pt"
 viewBox="0.00 0.00 1913.92 548.00" xmlns="http://www.w3.org/2000/svg" xmlns:xlink="http://www.w3.org/1999/xlink">
<g id="graph0" class="graph" transform="scale(1 1) rotate(0) translate(4 544)">
<polygon fill="white" stroke="none" points="-4,4 -4,-544 1909.92,-544 1909.92,4 -4,4"/>
<!-- 4425556192 -->
<g id="node1" class="node">
<title>4425556192</title>
<ellipse fill="none" stroke="black" cx="656.15" cy="-522" rx="76.43" ry="18"/>
<text text-anchor="start" x="608.15" y="-516.95" font-family="Times,serif" font-size="14.00">class &#39;ast.Module&#39;</text>
</g>
<!-- 4425554752 -->
<g id="node2" class="node">
<title>4425554752</title>
<ellipse fill="none" stroke="black" cx="656.15" cy="-450" rx="54.42" ry="18"/>
<text text-anchor="middle" x="656.15" y="-444.95" font-family="Times,serif" font-size="14.00">1: ClassDef</text>
</g>
<!-- 4425556192&#45;&gt;4425554752 -->
<g id="edge1" class="edge">
<title>4425556192&#45;&gt;4425554752</title>
<path fill="none" stroke="black" d="M656.15,-503.7C656.15,-496.24 656.15,-487.32 656.15,-478.97"/>
<polygon fill="black" stroke="black" points="659.65,-479.1 656.15,-469.1 652.65,-479.1 659.65,-479.1"/>
</g>
<!-- 4425555568 -->
<g id="node3" class="node">
<title>4425555568</title>
<ellipse fill="none" stroke="black" cx="266.15" cy="-378" rx="67.22" ry="18"/>
<text text-anchor="middle" x="266.15" y="-372.95" font-family="Times,serif" font-size="14.00">3: FunctionDef</text>
</g>
<!-- 4425554752&#45;&gt;4425555568 -->
<g id="edge2" class="edge">
<title>4425554752&#45;&gt;4425555568</title>
<path fill="none" stroke="black" d="M609.11,-440.56C539.84,-428.12 410.14,-404.84 331.62,-390.75"/>
<polygon fill="black" stroke="black" points="332.35,-387.15 321.89,-388.82 331.11,-394.04 332.35,-387.15"/>
</g>
<!-- 4425561664 -->
<g id="node11" class="node">
<title>4425561664</title>
<ellipse fill="none" stroke="black" cx="580.15" cy="-378" rx="67.22" ry="18"/>
<text text-anchor="middle" x="580.15" y="-372.95" font-family="Times,serif" font-size="14.00">6: FunctionDef</text>
</g>
<!-- 4425554752&#45;&gt;4425561664 -->
<g id="edge10" class="edge">
<title>4425554752&#45;&gt;4425561664</title>
<path fill="none" stroke="black" d="M638.53,-432.76C628.88,-423.88 616.75,-412.71 606.05,-402.85"/>
<polygon fill="black" stroke="black" points="608.94,-400.83 599.21,-396.63 604.2,-405.98 608.94,-400.83"/>
</g>
<!-- 4425562288 -->
<g id="node17" class="node">
<title>4425562288</title>
<ellipse fill="none" stroke="black" cx="732.15" cy="-378" rx="67.22" ry="18"/>
<text text-anchor="middle" x="732.15" y="-372.95" font-family="Times,serif" font-size="14.00">9: FunctionDef</text>
</g>
<!-- 4425554752&#45;&gt;4425562288 -->
<g id="edge16" class="edge">
<title>4425554752&#45;&gt;4425562288</title>
<path fill="none" stroke="black" d="M673.78,-432.76C683.43,-423.88 695.56,-412.71 706.26,-402.85"/>
<polygon fill="black" stroke="black" points="708.11,-405.98 713.1,-396.63 703.37,-400.83 708.11,-405.98"/>
</g>
<!-- 4425560896 -->
<g id="node30" class="node">
<title>4425560896</title>
<ellipse fill="none" stroke="black" cx="1207.15" cy="-378" rx="71.82" ry="18"/>
<text text-anchor="middle" x="1207.15" y="-372.95" font-family="Times,serif" font-size="14.00">13: FunctionDef</text>
</g>
<!-- 4425554752&#45;&gt;4425560896 -->
<g id="edge30" class="edge">
<title>4425554752&#45;&gt;4425560896</title>
<path fill="none" stroke="black" d="M706.02,-442.66C803.42,-430.29 1019.32,-402.86 1133.33,-388.38"/>
<polygon fill="black" stroke="black" points="1133.56,-391.75 1143.04,-387.02 1132.68,-384.81 1133.56,-391.75"/>
</g>
<!-- 4425560032 -->
<g id="node4" class="node">
<title>4425560032</title>
<ellipse fill="none" stroke="black" cx="86.15" cy="-306" rx="86.15" ry="18"/>
<text text-anchor="start" x="31.03" y="-300.95" font-family="Times,serif" font-size="14.00">class &#39;ast.arguments&#39;</text>
</g>
<!-- 4425555568&#45;&gt;4425560032 -->
<g id="edge3" class="edge">
<title>4425555568&#45;&gt;4425560032</title>
<path fill="none" stroke="black" d="M229.29,-362.67C202.34,-352.18 165.47,-337.84 135.9,-326.35"/>
<polygon fill="black" stroke="black" points="137.36,-322.77 126.78,-322.41 134.83,-329.29 137.36,-322.77"/>
</g>
<!-- 4425558736 -->
<g id="node6" class="node">
<title>4425558736</title>
<ellipse fill="none" stroke="black" cx="266.15" cy="-306" rx="45.72" ry="18"/>
<text text-anchor="middle" x="266.15" y="-300.95" font-family="Times,serif" font-size="14.00">4: Assign</text>
</g>
<!-- 4425555568&#45;&gt;4425558736 -->
<g id="edge5" class="edge">
<title>4425555568&#45;&gt;4425558736</title>
<path fill="none" stroke="black" d="M266.15,-359.7C266.15,-352.24 266.15,-343.32 266.15,-334.97"/>
<polygon fill="black" stroke="black" points="269.65,-335.1 266.15,-325.1 262.65,-335.1 269.65,-335.1"/>
</g>
<!-- 4425561856 -->
<g id="node5" class="node">
<title>4425561856</title>
<ellipse fill="none" stroke="black" cx="71.15" cy="-234" rx="32.41" ry="18"/>
<text text-anchor="middle" x="71.15" y="-228.95" font-family="Times,serif" font-size="14.00">3: arg</text>
</g>
<!-- 4425560032&#45;&gt;4425561856 -->
<g id="edge4" class="edge">
<title>4425560032&#45;&gt;4425561856</title>
<path fill="none" stroke="black" d="M82.45,-287.7C80.83,-280.15 78.89,-271.12 77.09,-262.68"/>
<polygon fill="black" stroke="black" points="80.34,-262.15 74.82,-253.1 73.49,-263.62 80.34,-262.15"/>
</g>
<!-- 4425564016 -->
<g id="node7" class="node">
<title>4425564016</title>
<ellipse fill="none" stroke="black" cx="175.15" cy="-234" rx="53.4" ry="18"/>
<text text-anchor="middle" x="175.15" y="-228.95" font-family="Times,serif" font-size="14.00">4: Attribute</text>
</g>
<!-- 4425558736&#45;&gt;4425564016 -->
<g id="edge6" class="edge">
<title>4425558736&#45;&gt;4425564016</title>
<path fill="none" stroke="black" d="M245.96,-289.46C233.76,-280.08 218,-267.96 204.45,-257.54"/>
<polygon fill="black" stroke="black" points="206.98,-254.3 196.92,-250.98 202.72,-259.85 206.98,-254.3"/>
</g>
<!-- 4425555184 -->
<g id="node10" class="node">
<title>4425555184</title>
<ellipse fill="none" stroke="black" cx="300.15" cy="-234" rx="53.4" ry="18"/>
<text text-anchor="middle" x="300.15" y="-228.95" font-family="Times,serif" font-size="14.00">4: Constant</text>
</g>
<!-- 4425558736&#45;&gt;4425555184 -->
<g id="edge9" class="edge">
<title>4425558736&#45;&gt;4425555184</title>
<path fill="none" stroke="black" d="M274.38,-288.05C278.27,-280.06 282.99,-270.33 287.33,-261.4"/>
<polygon fill="black" stroke="black" points="290.78,-263.31 292,-252.79 284.48,-260.25 290.78,-263.31"/>
</g>
<!-- 4425561232 -->
<g id="node8" class="node">
<title>4425561232</title>
<ellipse fill="none" stroke="black" cx="175.15" cy="-162" rx="43.16" ry="18"/>
<text text-anchor="middle" x="175.15" y="-156.95" font-family="Times,serif" font-size="14.00">4: Name</text>
</g>
<!-- 4425564016&#45;&gt;4425561232 -->
<g id="edge7" class="edge">
<title>4425564016&#45;&gt;4425561232</title>
<path fill="none" stroke="black" d="M175.15,-215.7C175.15,-208.24 175.15,-199.32 175.15,-190.97"/>
<polygon fill="black" stroke="black" points="178.65,-191.1 175.15,-181.1 171.65,-191.1 178.65,-191.1"/>
</g>
<!-- 4384082960 -->
<g id="node9" class="node">
<title>4384082960</title>
<ellipse fill="none" stroke="black" cx="686.15" cy="-90" rx="66.71" ry="18"/>
<text text-anchor="start" x="645.28" y="-84.95" font-family="Times,serif" font-size="14.00">class &#39;ast.Store&#39;</text>
</g>
<!-- 4425564016&#45;&gt;4384082960 -->
<g id="edge8" class="edge">
<title>4425564016&#45;&gt;4384082960</title>
<path fill="none" stroke="black" d="M215.25,-221.86C305.81,-196.69 526.32,-135.42 630.23,-106.54"/>
<polygon fill="black" stroke="black" points="631.12,-109.65 639.81,-103.6 629.24,-102.9 631.12,-109.65"/>
</g>
<!-- 4425558544 -->
<g id="node12" class="node">
<title>4425558544</title>
<ellipse fill="none" stroke="black" cx="431.15" cy="-306" rx="86.15" ry="18"/>
<text text-anchor="start" x="376.03" y="-300.95" font-family="Times,serif" font-size="14.00">class &#39;ast.arguments&#39;</text>
</g>
<!-- 4425561664&#45;&gt;4425558544 -->
<g id="edge11" class="edge">
<title>4425561664&#45;&gt;4425558544</title>
<path fill="none" stroke="black" d="M547.82,-361.81C526.4,-351.75 498.05,-338.43 474.66,-327.44"/>
<polygon fill="black" stroke="black" points="476.51,-323.97 465.97,-322.89 473.54,-330.31 476.51,-323.97"/>
</g>
<!-- 4425561568 -->
<g id="node15" class="node">
<title>4425561568</title>
<ellipse fill="none" stroke="black" cx="581.15" cy="-306" rx="45.72" ry="18"/>
<text text-anchor="middle" x="581.15" y="-300.95" font-family="Times,serif" font-size="14.00">7: Return</text>
</g>
<!-- 4425561664&#45;&gt;4425561568 -->
<g id="edge14" class="edge">
<title>4425561664&#45;&gt;4425561568</title>
<path fill="none" stroke="black" d="M580.4,-359.7C580.51,-352.24 580.64,-343.32 580.75,-334.97"/>
<polygon fill="black" stroke="black" points="584.27,-335.15 580.91,-325.1 577.27,-335.05 584.27,-335.15"/>
</g>
<!-- 4425551152 -->
<g id="node13" class="node">
<title>4425551152</title>
<ellipse fill="none" stroke="black" cx="404.15" cy="-234" rx="32.41" ry="18"/>
<text text-anchor="middle" x="404.15" y="-228.95" font-family="Times,serif" font-size="14.00">6: arg</text>
</g>
<!-- 4425558544&#45;&gt;4425551152 -->
<g id="edge12" class="edge">
<title>4425558544&#45;&gt;4425551152</title>
<path fill="none" stroke="black" d="M424.48,-287.7C421.5,-279.98 417.93,-270.71 414.61,-262.11"/>
<polygon fill="black" stroke="black" points="417.62,-261.17 410.75,-253.1 411.09,-263.69 417.62,-261.17"/>
</g>
<!-- 4425556912 -->
<g id="node14" class="node">
<title>4425556912</title>
<ellipse fill="none" stroke="black" cx="487.15" cy="-234" rx="32.41" ry="18"/>
<text text-anchor="middle" x="487.15" y="-228.95" font-family="Times,serif" font-size="14.00">6: arg</text>
</g>
<!-- 4425558544&#45;&gt;4425556912 -->
<g id="edge13" class="edge">
<title>4425558544&#45;&gt;4425556912</title>
<path fill="none" stroke="black" d="M444.71,-288.05C451.65,-279.38 460.22,-268.67 467.84,-259.15"/>
<polygon fill="black" stroke="black" points="470.98,-261.82 474.49,-251.83 465.51,-257.45 470.98,-261.82"/>
</g>
<!-- 4425557008 -->
<g id="node16" class="node">
<title>4425557008</title>
<ellipse fill="none" stroke="black" cx="581.15" cy="-234" rx="43.16" ry="18"/>
<text text-anchor="middle" x="581.15" y="-228.95" font-family="Times,serif" font-size="14.00">7: Name</text>
</g>
<!-- 4425561568&#45;&gt;4425557008 -->
<g id="edge15" class="edge">
<title>4425561568&#45;&gt;4425557008</title>
<path fill="none" stroke="black" d="M581.15,-287.7C581.15,-280.24 581.15,-271.32 581.15,-262.97"/>
<polygon fill="black" stroke="black" points="584.65,-263.1 581.15,-253.1 577.65,-263.1 584.65,-263.1"/>
</g>
<!-- 4425556000 -->
<g id="node18" class="node">
<title>4425556000</title>
<ellipse fill="none" stroke="black" cx="732.15" cy="-306" rx="86.15" ry="18"/>
<text text-anchor="start" x="677.03" y="-300.95" font-family="Times,serif" font-size="14.00">class &#39;ast.arguments&#39;</text>
</g>
<!-- 4425562288&#45;&gt;4425556000 -->
<g id="edge17" class="edge">
<title>4425562288&#45;&gt;4425556000</title>
<path fill="none" stroke="black" d="M732.15,-359.7C732.15,-352.24 732.15,-343.32 732.15,-334.97"/>
<polygon fill="black" stroke="black" points="735.65,-335.1 732.15,-325.1 728.65,-335.1 735.65,-335.1"/>
</g>
<!-- 4425557296 -->
<g id="node21" class="node">
<title>4425557296</title>
<ellipse fill="none" stroke="black" cx="868.15" cy="-306" rx="31.39" ry="18"/>
<text text-anchor="middle" x="868.15" y="-300.95" font-family="Times,serif" font-size="14.00">10: If</text>
</g>
<!-- 4425562288&#45;&gt;4425557296 -->
<g id="edge20" class="edge">
<title>4425562288&#45;&gt;4425557296</title>
<path fill="none" stroke="black" d="M762.34,-361.46C784.05,-350.29 813.31,-335.23 835.56,-323.78"/>
<polygon fill="black" stroke="black" points="836.95,-326.48 844.24,-318.8 833.74,-320.26 836.95,-326.48"/>
</g>
<!-- 4425563344 -->
<g id="node19" class="node">
<title>4425563344</title>
<ellipse fill="none" stroke="black" cx="675.15" cy="-234" rx="32.41" ry="18"/>
<text text-anchor="middle" x="675.15" y="-228.95" font-family="Times,serif" font-size="14.00">9: arg</text>
</g>
<!-- 4425556000&#45;&gt;4425563344 -->
<g id="edge18" class="edge">
<title>4425556000&#45;&gt;4425563344</title>
<path fill="none" stroke="black" d="M718.36,-288.05C711.29,-279.38 702.57,-268.67 694.82,-259.15"/>
<polygon fill="black" stroke="black" points="697.07,-257.37 688.04,-251.83 691.64,-261.79 697.07,-257.37"/>
</g>
<!-- 4425563440 -->
<g id="node20" class="node">
<title>4425563440</title>
<ellipse fill="none" stroke="black" cx="758.15" cy="-234" rx="32.41" ry="18"/>
<text text-anchor="middle" x="758.15" y="-228.95" font-family="Times,serif" font-size="14.00">9: arg</text>
</g>
<!-- 4425556000&#45;&gt;4425563440 -->
<g id="edge19" class="edge">
<title>4425556000&#45;&gt;4425563440</title>
<path fill="none" stroke="black" d="M738.58,-287.7C741.42,-280.07 744.81,-270.92 747.98,-262.4"/>
<polygon fill="black" stroke="black" points="751.6,-263.7 751.8,-253.1 745.04,-261.26 751.6,-263.7"/>
</g>
<!-- 4425553216 -->
<g id="node22" class="node">
<title>4425553216</title>
<ellipse fill="none" stroke="black" cx="868.15" cy="-234" rx="59.54" ry="18"/>
<text text-anchor="middle" x="868.15" y="-228.95" font-family="Times,serif" font-size="14.00">10: Compare</text>
</g>
<!-- 4425557296&#45;&gt;4425553216 -->
<g id="edge21" class="edge">
<title>4425557296&#45;&gt;4425553216</title>
<path fill="none" stroke="black" d="M868.15,-287.7C868.15,-280.24 868.15,-271.32 868.15,-262.97"/>
<polygon fill="black" stroke="black" points="871.65,-263.1 868.15,-253.1 864.65,-263.1 871.65,-263.1"/>
</g>
<!-- 4425563104 -->
<g id="node26" class="node">
<title>4425563104</title>
<ellipse fill="none" stroke="black" cx="999.15" cy="-234" rx="50.33" ry="18"/>
<text text-anchor="middle" x="999.15" y="-228.95" font-family="Times,serif" font-size="14.00">11: Assign</text>
</g>
<!-- 4425557296&#45;&gt;4425563104 -->
<g id="edge25" class="edge">
<title>4425557296&#45;&gt;4425563104</title>
<path fill="none" stroke="black" d="M890.67,-292.97C910.39,-282.43 939.41,-266.93 962.47,-254.6"/>
<polygon fill="black" stroke="black" points="963.77,-257.34 970.94,-249.54 960.47,-251.17 963.77,-257.34"/>
</g>
<!-- 4425552688 -->
<g id="node23" class="node">
<title>4425552688</title>
<ellipse fill="none" stroke="black" cx="581.15" cy="-162" rx="47.77" ry="18"/>
<text text-anchor="middle" x="581.15" y="-156.95" font-family="Times,serif" font-size="14.00">10: Name</text>
</g>
<!-- 4425553216&#45;&gt;4425552688 -->
<g id="edge22" class="edge">
<title>4425553216&#45;&gt;4425552688</title>
<path fill="none" stroke="black" d="M823.28,-221.79C815.25,-219.83 806.96,-217.83 799.15,-216 727.78,-199.23 709.11,-198.49 638.15,-180 634.76,-179.11 631.26,-178.16 627.74,-177.18"/>
<polygon fill="black" stroke="black" points="628.81,-173.56 618.23,-174.17 626.88,-180.29 628.81,-173.56"/>
</g>
<!-- 4384085312 -->
<g id="node24" class="node">
<title>4384085312</title>
<ellipse fill="none" stroke="black" cx="718.15" cy="-162" rx="71.31" ry="18"/>
<text text-anchor="start" x="673.9" y="-156.95" font-family="Times,serif" font-size="14.00">class &#39;ast.NotEq&#39;</text>
</g>
<!-- 4425553216&#45;&gt;4384085312 -->
<g id="edge23" class="edge">
<title>4425553216&#45;&gt;4384085312</title>
<path fill="none" stroke="black" d="M836.71,-218.33C814.76,-208.08 785.19,-194.29 761.08,-183.03"/>
<polygon fill="black" stroke="black" points="762.66,-179.44 752.12,-178.38 759.7,-185.78 762.66,-179.44"/>
</g>
<!-- 4425554320 -->
<g id="node25" class="node">
<title>4425554320</title>
<ellipse fill="none" stroke="black" cx="865.15" cy="-162" rx="58" ry="18"/>
<text text-anchor="middle" x="865.15" y="-156.95" font-family="Times,serif" font-size="14.00">10: Constant</text>
</g>
<!-- 4425553216&#45;&gt;4425554320 -->
<g id="edge24" class="edge">
<title>4425553216&#45;&gt;4425554320</title>
<path fill="none" stroke="black" d="M867.41,-215.7C867.09,-208.24 866.71,-199.32 866.35,-190.97"/>
<polygon fill="black" stroke="black" points="869.81,-190.95 865.89,-181.1 862.82,-191.25 869.81,-190.95"/>
</g>
<!-- 4425548752 -->
<g id="node27" class="node">
<title>4425548752</title>
<ellipse fill="none" stroke="black" cx="999.15" cy="-162" rx="58" ry="18"/>
<text text-anchor="middle" x="999.15" y="-156.95" font-family="Times,serif" font-size="14.00">11: Attribute</text>
</g>
<!-- 4425563104&#45;&gt;4425548752 -->
<g id="edge26" class="edge">
<title>4425563104&#45;&gt;4425548752</title>
<path fill="none" stroke="black" d="M999.15,-215.7C999.15,-208.24 999.15,-199.32 999.15,-190.97"/>
<polygon fill="black" stroke="black" points="1002.65,-191.1 999.15,-181.1 995.65,-191.1 1002.65,-191.1"/>
</g>
<!-- 4425563584 -->
<g id="node29" class="node">
<title>4425563584</title>
<ellipse fill="none" stroke="black" cx="1123.15" cy="-162" rx="47.77" ry="18"/>
<text text-anchor="middle" x="1123.15" y="-156.95" font-family="Times,serif" font-size="14.00">11: Name</text>
</g>
<!-- 4425563104&#45;&gt;4425563584 -->
<g id="edge29" class="edge">
<title>4425563104&#45;&gt;4425563584</title>
<path fill="none" stroke="black" d="M1025.15,-218.33C1043.46,-207.99 1068.18,-194.04 1088.21,-182.73"/>
<polygon fill="black" stroke="black" points="1089.63,-185.38 1096.62,-177.42 1086.19,-179.28 1089.63,-185.38"/>
</g>
<!-- 4425548752&#45;&gt;4384082960 -->
<g id="edge28" class="edge">
<title>4425548752&#45;&gt;4384082960</title>
<path fill="none" stroke="black" d="M955.6,-149.71C947.81,-147.75 939.75,-145.78 932.15,-144 869.94,-129.41 798.51,-114.19 748.71,-103.82"/>
<polygon fill="black" stroke="black" points="749.61,-100.23 739.11,-101.62 748.19,-107.08 749.61,-100.23"/>
</g>
<!-- 4425560272 -->
<g id="node28" class="node">
<title>4425560272</title>
<ellipse fill="none" stroke="black" cx="999.15" cy="-90" rx="47.77" ry="18"/>
<text text-anchor="middle" x="999.15" y="-84.95" font-family="Times,serif" font-size="14.00">11: Name</text>
</g>
<!-- 4425548752&#45;&gt;4425560272 -->
<g id="edge27" class="edge">
<title>4425548752&#45;&gt;4425560272</title>
<path fill="none" stroke="black" d="M999.15,-143.7C999.15,-136.24 999.15,-127.32 999.15,-118.97"/>
<polygon fill="black" stroke="black" points="1002.65,-119.1 999.15,-109.1 995.65,-119.1 1002.65,-119.1"/>
</g>
<!-- 4425559168 -->
<g id="node31" class="node">
<title>4425559168</title>
<ellipse fill="none" stroke="black" cx="1207.15" cy="-306" rx="86.15" ry="18"/>
<text text-anchor="start" x="1152.03" y="-300.95" font-family="Times,serif" font-size="14.00">class &#39;ast.arguments&#39;</text>
</g>
<!-- 4425560896&#45;&gt;4425559168 -->
<g id="edge31" class="edge">
<title>4425560896&#45;&gt;4425559168</title>
<path fill="none" stroke="black" d="M1207.15,-359.7C1207.15,-352.24 1207.15,-343.32 1207.15,-334.97"/>
<polygon fill="black" stroke="black" points="1210.65,-335.1 1207.15,-325.1 1203.65,-335.1 1210.65,-335.1"/>
</g>
<!-- 4423069184 -->
<g id="node34" class="node">
<title>4423069184</title>
<ellipse fill="none" stroke="black" cx="1469.15" cy="-306" rx="31.39" ry="18"/>
<text text-anchor="middle" x="1469.15" y="-300.95" font-family="Times,serif" font-size="14.00">14: If</text>
</g>
<!-- 4425560896&#45;&gt;4423069184 -->
<g id="edge34" class="edge">
<title>4425560896&#45;&gt;4423069184</title>
<path fill="none" stroke="black" d="M1254.9,-364.24C1305.33,-350.77 1383.84,-329.79 1430.52,-317.32"/>
<polygon fill="black" stroke="black" points="1431.34,-320.46 1440.1,-314.5 1429.53,-313.7 1431.34,-320.46"/>
</g>
<!-- 4423068080 -->
<g id="node32" class="node">
<title>4423068080</title>
<ellipse fill="none" stroke="black" cx="1161.15" cy="-234" rx="37.02" ry="18"/>
<text text-anchor="middle" x="1161.15" y="-228.95" font-family="Times,serif" font-size="14.00">13: arg</text>
</g>
<!-- 4425559168&#45;&gt;4423068080 -->
<g id="edge32" class="edge">
<title>4425559168&#45;&gt;4423068080</title>
<path fill="none" stroke="black" d="M1195.78,-287.7C1190.41,-279.52 1183.89,-269.6 1177.97,-260.58"/>
<polygon fill="black" stroke="black" points="1180.49,-259.06 1172.08,-252.62 1174.64,-262.9 1180.49,-259.06"/>
</g>
<!-- 4423069280 -->
<g id="node33" class="node">
<title>4423069280</title>
<ellipse fill="none" stroke="black" cx="1253.15" cy="-234" rx="37.02" ry="18"/>
<text text-anchor="middle" x="1253.15" y="-228.95" font-family="Times,serif" font-size="14.00">13: arg</text>
</g>
<!-- 4425559168&#45;&gt;4423069280 -->
<g id="edge33" class="edge">
<title>4425559168&#45;&gt;4423069280</title>
<path fill="none" stroke="black" d="M1218.53,-287.7C1223.9,-279.52 1230.42,-269.6 1236.34,-260.58"/>
<polygon fill="black" stroke="black" points="1239.66,-262.9 1242.23,-252.62 1233.81,-259.06 1239.66,-262.9"/>
</g>
<!-- 4423069376 -->
<g id="node35" class="node">
<title>4423069376</title>
<ellipse fill="none" stroke="black" cx="1392.15" cy="-234" rx="59.54" ry="18"/>
<text text-anchor="middle" x="1392.15" y="-228.95" font-family="Times,serif" font-size="14.00">14: Compare</text>
</g>
<!-- 4423069184&#45;&gt;4423069376 -->
<g id="edge35" class="edge">
<title>4423069184&#45;&gt;4423069376</title>
<path fill="none" stroke="black" d="M1452.82,-290.15C1442.81,-281.05 1429.75,-269.18 1418.32,-258.79"/>
<polygon fill="black" stroke="black" points="1421.1,-256.68 1411.35,-252.54 1416.39,-261.86 1421.1,-256.68"/>
</g>
<!-- 4423072976 -->
<g id="node39" class="node">
<title>4423072976</title>
<ellipse fill="none" stroke="black" cx="1546.15" cy="-234" rx="43.16" ry="18"/>
<text text-anchor="middle" x="1546.15" y="-228.95" font-family="Times,serif" font-size="14.00">15: Expr</text>
</g>
<!-- 4423069184&#45;&gt;4423072976 -->
<g id="edge39" class="edge">
<title>4423069184&#45;&gt;4423072976</title>
<path fill="none" stroke="black" d="M1485.48,-290.15C1495.71,-280.85 1509.11,-268.67 1520.72,-258.12"/>
<polygon fill="black" stroke="black" points="1522.73,-261.11 1527.78,-251.8 1518.02,-255.93 1522.73,-261.11"/>
</g>
<!-- 4425737424 -->
<g id="node44" class="node">
<title>4425737424</title>
<ellipse fill="none" stroke="black" cx="1692.15" cy="-234" rx="43.16" ry="18"/>
<text text-anchor="middle" x="1692.15" y="-228.95" font-family="Times,serif" font-size="14.00">17: Expr</text>
</g>
<!-- 4423069184&#45;&gt;4425737424 -->
<g id="edge44" class="edge">
<title>4423069184&#45;&gt;4425737424</title>
<path fill="none" stroke="black" d="M1496.05,-296.56C1533.7,-284.74 1602.55,-263.13 1647.83,-248.91"/>
<polygon fill="black" stroke="black" points="1648.75,-251.98 1657.24,-245.65 1646.65,-245.3 1648.75,-251.98"/>
</g>
<!-- 4423073216 -->
<g id="node36" class="node">
<title>4423073216</title>
<ellipse fill="none" stroke="black" cx="1237.15" cy="-162" rx="47.77" ry="18"/>
<text text-anchor="middle" x="1237.15" y="-156.95" font-family="Times,serif" font-size="14.00">14: Name</text>
</g>
<!-- 4423069376&#45;&gt;4423073216 -->
<g id="edge36" class="edge">
<title>4423069376&#45;&gt;4423073216</title>
<path fill="none" stroke="black" d="M1360.04,-218.5C1335.85,-207.57 1302.55,-192.53 1276.72,-180.87"/>
<polygon fill="black" stroke="black" points="1278.42,-177.34 1267.87,-176.42 1275.54,-183.72 1278.42,-177.34"/>
</g>
<!-- 4384085216 -->
<g id="node37" class="node">
<title>4384085216</title>
<ellipse fill="none" stroke="black" cx="1360.15" cy="-162" rx="57.49" ry="18"/>
<text text-anchor="start" x="1326.03" y="-156.95" font-family="Times,serif" font-size="14.00">class &#39;ast.Eq&#39;</text>
</g>
<!-- 4423069376&#45;&gt;4384085216 -->
<g id="edge37" class="edge">
<title>4423069376&#45;&gt;4384085216</title>
<path fill="none" stroke="black" d="M1384.24,-215.7C1380.68,-207.9 1376.39,-198.51 1372.42,-189.83"/>
<polygon fill="black" stroke="black" points="1375.31,-188.74 1367.97,-181.1 1368.95,-191.65 1375.31,-188.74"/>
</g>
<!-- 4423072640 -->
<g id="node38" class="node">
<title>4423072640</title>
<ellipse fill="none" stroke="black" cx="1493.15" cy="-162" rx="58" ry="18"/>
<text text-anchor="middle" x="1493.15" y="-156.95" font-family="Times,serif" font-size="14.00">14: Constant</text>
</g>
<!-- 4423069376&#45;&gt;4423072640 -->
<g id="edge38" class="edge">
<title>4423069376&#45;&gt;4423072640</title>
<path fill="none" stroke="black" d="M1415.33,-216.94C1428.93,-207.51 1446.31,-195.47 1461.2,-185.15"/>
<polygon fill="black" stroke="black" points="1462.87,-187.56 1469.09,-178.98 1458.88,-181.8 1462.87,-187.56"/>
</g>
<!-- 4423072496 -->
<g id="node40" class="node">
<title>4423072496</title>
<ellipse fill="none" stroke="black" cx="1610.15" cy="-162" rx="40.6" ry="18"/>
<text text-anchor="middle" x="1610.15" y="-156.95" font-family="Times,serif" font-size="14.00">15: Call</text>
</g>
<!-- 4423072976&#45;&gt;4423072496 -->
<g id="edge40" class="edge">
<title>4423072976&#45;&gt;4423072496</title>
<path fill="none" stroke="black" d="M1561,-216.76C1569.08,-207.93 1579.22,-196.83 1588.2,-187.01"/>
<polygon fill="black" stroke="black" points="1590.23,-189.89 1594.39,-180.15 1585.06,-185.17 1590.23,-189.89"/>
</g>
<!-- 4423072928 -->
<g id="node41" class="node">
<title>4423072928</title>
<ellipse fill="none" stroke="black" cx="1486.15" cy="-90" rx="58" ry="18"/>
<text text-anchor="middle" x="1486.15" y="-84.95" font-family="Times,serif" font-size="14.00">15: Attribute</text>
</g>
<!-- 4423072496&#45;&gt;4423072928 -->
<g id="edge41" class="edge">
<title>4423072496&#45;&gt;4423072928</title>
<path fill="none" stroke="black" d="M1585.66,-147.17C1567.7,-137.03 1543.03,-123.11 1522.74,-111.65"/>
<polygon fill="black" stroke="black" points="1524.61,-108.13 1514.18,-106.26 1521.17,-114.22 1524.61,-108.13"/>
</g>
<!-- 4425729024 -->
<g id="node43" class="node">
<title>4425729024</title>
<ellipse fill="none" stroke="black" cx="1610.15" cy="-90" rx="47.77" ry="18"/>
<text text-anchor="middle" x="1610.15" y="-84.95" font-family="Times,serif" font-size="14.00">15: Name</text>
</g>
<!-- 4423072496&#45;&gt;4425729024 -->
<g id="edge43" class="edge">
<title>4423072496&#45;&gt;4425729024</title>
<path fill="none" stroke="black" d="M1610.15,-143.7C1610.15,-136.24 1610.15,-127.32 1610.15,-118.97"/>
<polygon fill="black" stroke="black" points="1613.65,-119.1 1610.15,-109.1 1606.65,-119.1 1613.65,-119.1"/>
</g>
<!-- 4423072832 -->
<g id="node42" class="node">
<title>4423072832</title>
<ellipse fill="none" stroke="black" cx="1486.15" cy="-18" rx="47.77" ry="18"/>
<text text-anchor="middle" x="1486.15" y="-12.95" font-family="Times,serif" font-size="14.00">15: Name</text>
</g>
<!-- 4423072928&#45;&gt;4423072832 -->
<g id="edge42" class="edge">
<title>4423072928&#45;&gt;4423072832</title>
<path fill="none" stroke="black" d="M1486.15,-71.7C1486.15,-64.24 1486.15,-55.32 1486.15,-46.97"/>
<polygon fill="black" stroke="black" points="1489.65,-47.1 1486.15,-37.1 1482.65,-47.1 1489.65,-47.1"/>
</g>
<!-- 4425729312 -->
<g id="node45" class="node">
<title>4425729312</title>
<ellipse fill="none" stroke="black" cx="1734.15" cy="-162" rx="40.6" ry="18"/>
<text text-anchor="middle" x="1734.15" y="-156.95" font-family="Times,serif" font-size="14.00">17: Call</text>
</g>
<!-- 4425737424&#45;&gt;4425729312 -->
<g id="edge45" class="edge">
<title>4425737424&#45;&gt;4425729312</title>
<path fill="none" stroke="black" d="M1702.32,-216.05C1707.17,-207.97 1713.08,-198.12 1718.49,-189.11"/>
<polygon fill="black" stroke="black" points="1721.94,-191.16 1724.08,-180.79 1715.93,-187.56 1721.94,-191.16"/>
</g>
<!-- 4425729408 -->
<g id="node46" class="node">
<title>4425729408</title>
<ellipse fill="none" stroke="black" cx="1734.15" cy="-90" rx="58" ry="18"/>
<text text-anchor="middle" x="1734.15" y="-84.95" font-family="Times,serif" font-size="14.00">17: Attribute</text>
</g>
<!-- 4425729312&#45;&gt;4425729408 -->
<g id="edge46" class="edge">
<title>4425729312&#45;&gt;4425729408</title>
<path fill="none" stroke="black" d="M1734.15,-143.7C1734.15,-136.24 1734.15,-127.32 1734.15,-118.97"/>
<polygon fill="black" stroke="black" points="1737.65,-119.1 1734.15,-109.1 1730.65,-119.1 1737.65,-119.1"/>
</g>
<!-- 4425738144 -->
<g id="node48" class="node">
<title>4425738144</title>
<ellipse fill="none" stroke="black" cx="1858.15" cy="-90" rx="47.77" ry="18"/>
<text text-anchor="middle" x="1858.15" y="-84.95" font-family="Times,serif" font-size="14.00">17: Name</text>
</g>
<!-- 4425729312&#45;&gt;4425738144 -->
<g id="edge48" class="edge">
<title>4425729312&#45;&gt;4425738144</title>
<path fill="none" stroke="black" d="M1758.65,-147.17C1777.05,-136.78 1802.51,-122.41 1823.07,-110.8"/>
<polygon fill="black" stroke="black" points="1824.44,-113.49 1831.43,-105.52 1821,-107.39 1824.44,-113.49"/>
</g>
<!-- 4425734160 -->
<g id="node47" class="node">
<title>4425734160</title>
<ellipse fill="none" stroke="black" cx="1734.15" cy="-18" rx="47.77" ry="18"/>
<text text-anchor="middle" x="1734.15" y="-12.95" font-family="Times,serif" font-size="14.00">17: Name</text>
</g>
<!-- 4425729408&#45;&gt;4425734160 -->
<g id="edge47" class="edge">
<title>4425729408&#45;&gt;4425734160</title>
<path fill="none" stroke="black" d="M1734.15,-71.7C1734.15,-64.24 1734.15,-55.32 1734.15,-46.97"/>
<polygon fill="black" stroke="black" points="1737.65,-47.1 1734.15,-37.1 1730.65,-47.1 1737.65,-47.1"/>
</g>
</g>
</svg>
