<?xml version="1.0" encoding="UTF-8" standalone="no"?>
<!DOCTYPE svg PUBLIC "-//W3C//DTD SVG 1.1//EN"
 "http://www.w3.org/Graphics/SVG/1.1/DTD/svg11.dtd">
<!-- Generated by graphviz version 8.0.5 (20230430.1635)
 -->
<!-- Pages: 1 -->
<svg width="790pt" height="404pt"
 viewBox="0.00 0.00 790.32 404.00" xmlns="http://www.w3.org/2000/svg" xmlns:xlink="http://www.w3.org/1999/xlink">
<g id="graph0" class="graph" transform="scale(1 1) rotate(0) translate(4 400)">
<polygon fill="white" stroke="none" points="-4,4 -4,-400 786.32,-400 786.32,4 -4,4"/>
<!-- 4425246576 -->
<g id="node1" class="node">
<title>4425246576</title>
<ellipse fill="none" stroke="black" cx="240.15" cy="-378" rx="76.43" ry="18"/>
<text text-anchor="start" x="192.15" y="-372.95" font-family="Times,serif" font-size="14.00">class &#39;ast.Module&#39;</text>
</g>
<!-- 4425246528 -->
<g id="node2" class="node">
<title>4425246528</title>
<ellipse fill="none" stroke="black" cx="240.15" cy="-306" rx="67.22" ry="18"/>
<text text-anchor="middle" x="240.15" y="-300.95" font-family="Times,serif" font-size="14.00">0: FunctionDef</text>
</g>
<!-- 4425246576&#45;&gt;4425246528 -->
<g id="edge1" class="edge">
<title>4425246576&#45;&gt;4425246528</title>
<path fill="none" stroke="black" d="M240.15,-359.7C240.15,-352.24 240.15,-343.32 240.15,-334.97"/>
<polygon fill="black" stroke="black" points="243.65,-335.1 240.15,-325.1 236.65,-335.1 243.65,-335.1"/>
</g>
<!-- 4425246480 -->
<g id="node3" class="node">
<title>4425246480</title>
<ellipse fill="none" stroke="black" cx="86.15" cy="-234" rx="86.15" ry="18"/>
<text text-anchor="start" x="31.03" y="-228.95" font-family="Times,serif" font-size="14.00">class &#39;ast.arguments&#39;</text>
</g>
<!-- 4425246528&#45;&gt;4425246480 -->
<g id="edge2" class="edge">
<title>4425246528&#45;&gt;4425246480</title>
<path fill="none" stroke="black" d="M207.12,-289.98C184.82,-279.85 155.14,-266.36 130.75,-255.27"/>
<polygon fill="black" stroke="black" points="132.56,-251.79 122.01,-250.84 129.66,-258.17 132.56,-251.79"/>
</g>
<!-- 4425246144 -->
<g id="node5" class="node">
<title>4425246144</title>
<ellipse fill="none" stroke="black" cx="240.15" cy="-234" rx="27" ry="18"/>
<text text-anchor="middle" x="240.15" y="-228.95" font-family="Times,serif" font-size="14.00">1: If</text>
</g>
<!-- 4425246528&#45;&gt;4425246144 -->
<g id="edge4" class="edge">
<title>4425246528&#45;&gt;4425246144</title>
<path fill="none" stroke="black" d="M240.15,-287.7C240.15,-280.24 240.15,-271.32 240.15,-262.97"/>
<polygon fill="black" stroke="black" points="243.65,-263.1 240.15,-253.1 236.65,-263.1 243.65,-263.1"/>
</g>
<!-- 4425236640 -->
<g id="node11" class="node">
<title>4425236640</title>
<ellipse fill="none" stroke="black" cx="507.15" cy="-234" rx="27" ry="18"/>
<text text-anchor="middle" x="507.15" y="-228.95" font-family="Times,serif" font-size="14.00">4: If</text>
</g>
<!-- 4425246528&#45;&gt;4425236640 -->
<g id="edge10" class="edge">
<title>4425246528&#45;&gt;4425236640</title>
<path fill="none" stroke="black" d="M286.97,-292.73C339.69,-278.9 424.2,-256.75 471.73,-244.29"/>
<polygon fill="black" stroke="black" points="472.34,-247.48 481.13,-241.56 470.57,-240.71 472.34,-247.48"/>
</g>
<!-- 4425246432 -->
<g id="node4" class="node">
<title>4425246432</title>
<ellipse fill="none" stroke="black" cx="62.15" cy="-162" rx="32.41" ry="18"/>
<text text-anchor="middle" x="62.15" y="-156.95" font-family="Times,serif" font-size="14.00">0: arg</text>
</g>
<!-- 4425246480&#45;&gt;4425246432 -->
<g id="edge3" class="edge">
<title>4425246480&#45;&gt;4425246432</title>
<path fill="none" stroke="black" d="M80.22,-215.7C77.61,-208.07 74.47,-198.92 71.55,-190.4"/>
<polygon fill="black" stroke="black" points="74.57,-189.43 68.02,-181.1 67.95,-191.7 74.57,-189.43"/>
</g>
<!-- 4425246000 -->
<g id="node6" class="node">
<title>4425246000</title>
<ellipse fill="none" stroke="black" cx="167.15" cy="-162" rx="54.93" ry="18"/>
<text text-anchor="middle" x="167.15" y="-156.95" font-family="Times,serif" font-size="14.00">1: Compare</text>
</g>
<!-- 4425246144&#45;&gt;4425246000 -->
<g id="edge5" class="edge">
<title>4425246144&#45;&gt;4425246000</title>
<path fill="none" stroke="black" d="M225.38,-218.83C215.79,-209.64 203.06,-197.43 191.95,-186.77"/>
<polygon fill="black" stroke="black" points="194.85,-184.75 185.21,-180.35 190,-189.8 194.85,-184.75"/>
</g>
<!-- 4425246240 -->
<g id="node10" class="node">
<title>4425246240</title>
<ellipse fill="none" stroke="black" cx="286.15" cy="-162" rx="45.72" ry="18"/>
<text text-anchor="middle" x="286.15" y="-156.95" font-family="Times,serif" font-size="14.00">2: Return</text>
</g>
<!-- 4425246144&#45;&gt;4425246240 -->
<g id="edge9" class="edge">
<title>4425246144&#45;&gt;4425246240</title>
<path fill="none" stroke="black" d="M250.59,-217.12C256.08,-208.77 262.94,-198.32 269.17,-188.84"/>
<polygon fill="black" stroke="black" points="272.55,-191.08 275.12,-180.8 266.7,-187.23 272.55,-191.08"/>
</g>
<!-- 4425246096 -->
<g id="node7" class="node">
<title>4425246096</title>
<ellipse fill="none" stroke="black" cx="46.15" cy="-90" rx="43.16" ry="18"/>
<text text-anchor="middle" x="46.15" y="-84.95" font-family="Times,serif" font-size="14.00">1: Name</text>
</g>
<!-- 4425246000&#45;&gt;4425246096 -->
<g id="edge6" class="edge">
<title>4425246000&#45;&gt;4425246096</title>
<path fill="none" stroke="black" d="M140.9,-145.81C123.06,-135.49 99.3,-121.75 80.04,-110.6"/>
<polygon fill="black" stroke="black" points="82.12,-107.18 71.71,-105.21 78.61,-113.24 82.12,-107.18"/>
</g>
<!-- 4384085216 -->
<g id="node8" class="node">
<title>4384085216</title>
<ellipse fill="none" stroke="black" cx="290.15" cy="-90" rx="57.49" ry="18"/>
<text text-anchor="start" x="256.03" y="-84.95" font-family="Times,serif" font-size="14.00">class &#39;ast.Eq&#39;</text>
</g>
<!-- 4425246000&#45;&gt;4384085216 -->
<g id="edge7" class="edge">
<title>4425246000&#45;&gt;4384085216</title>
<path fill="none" stroke="black" d="M193.84,-145.81C211.49,-135.77 234.85,-122.48 254.14,-111.5"/>
<polygon fill="black" stroke="black" points="255.56,-114.15 262.52,-106.16 252.09,-108.06 255.56,-114.15"/>
</g>
<!-- 4425246048 -->
<g id="node9" class="node">
<title>4425246048</title>
<ellipse fill="none" stroke="black" cx="161.15" cy="-90" rx="53.4" ry="18"/>
<text text-anchor="middle" x="161.15" y="-84.95" font-family="Times,serif" font-size="14.00">1: Constant</text>
</g>
<!-- 4425246000&#45;&gt;4425246048 -->
<g id="edge8" class="edge">
<title>4425246000&#45;&gt;4425246048</title>
<path fill="none" stroke="black" d="M165.67,-143.7C165.03,-136.24 164.27,-127.32 163.55,-118.97"/>
<polygon fill="black" stroke="black" points="166.96,-118.77 162.62,-109.1 159.99,-119.37 166.96,-118.77"/>
</g>
<!-- 4425240048 -->
<g id="node12" class="node">
<title>4425240048</title>
<ellipse fill="none" stroke="black" cx="424.15" cy="-162" rx="54.93" ry="18"/>
<text text-anchor="middle" x="424.15" y="-156.95" font-family="Times,serif" font-size="14.00">4: Compare</text>
</g>
<!-- 4425236640&#45;&gt;4425240048 -->
<g id="edge11" class="edge">
<title>4425236640&#45;&gt;4425240048</title>
<path fill="none" stroke="black" d="M490.76,-219.17C479.59,-209.76 464.55,-197.07 451.59,-186.14"/>
<polygon fill="black" stroke="black" points="454.33,-183.03 444.43,-179.26 449.82,-188.38 454.33,-183.03"/>
</g>
<!-- 4425240912 -->
<g id="node18" class="node">
<title>4425240912</title>
<ellipse fill="none" stroke="black" cx="591.15" cy="-162" rx="38.56" ry="18"/>
<text text-anchor="middle" x="591.15" y="-156.95" font-family="Times,serif" font-size="14.00">5: Expr</text>
</g>
<!-- 4425236640&#45;&gt;4425240912 -->
<g id="edge18" class="edge">
<title>4425236640&#45;&gt;4425240912</title>
<path fill="none" stroke="black" d="M523.35,-219.5C535.12,-209.7 551.29,-196.22 564.89,-184.88"/>
<polygon fill="black" stroke="black" points="566.52,-187.25 571.97,-178.16 562.04,-181.87 566.52,-187.25"/>
</g>
<!-- 4425241104 -->
<g id="node21" class="node">
<title>4425241104</title>
<ellipse fill="none" stroke="black" cx="719.15" cy="-162" rx="38.56" ry="18"/>
<text text-anchor="middle" x="719.15" y="-156.95" font-family="Times,serif" font-size="14.00">7: Expr</text>
</g>
<!-- 4425236640&#45;&gt;4425241104 -->
<g id="edge21" class="edge">
<title>4425236640&#45;&gt;4425241104</title>
<path fill="none" stroke="black" d="M531.06,-225.11C566.68,-213.35 634.15,-191.07 677.85,-176.64"/>
<polygon fill="black" stroke="black" points="678.75,-179.7 687.15,-173.24 676.55,-173.05 678.75,-179.7"/>
</g>
<!-- 4425240048&#45;&gt;4384085216 -->
<g id="edge16" class="edge">
<title>4425240048&#45;&gt;4384085216</title>
<path fill="none" stroke="black" d="M395.74,-146.15C376.02,-135.85 349.53,-122.02 328.02,-110.78"/>
<polygon fill="black" stroke="black" points="330.02,-107.35 319.53,-105.82 326.77,-113.56 330.02,-107.35"/>
</g>
<!-- 4425240000 -->
<g id="node13" class="node">
<title>4425240000</title>
<ellipse fill="none" stroke="black" cx="411.15" cy="-90" rx="45.21" ry="18"/>
<text text-anchor="middle" x="411.15" y="-84.95" font-family="Times,serif" font-size="14.00">4: BinOp</text>
</g>
<!-- 4425240048&#45;&gt;4425240000 -->
<g id="edge12" class="edge">
<title>4425240048&#45;&gt;4425240000</title>
<path fill="none" stroke="black" d="M420.94,-143.7C419.54,-136.15 417.86,-127.12 416.3,-118.68"/>
<polygon fill="black" stroke="black" points="419.6,-118.3 414.33,-109.1 412.72,-119.58 419.6,-118.3"/>
</g>
<!-- 4425240960 -->
<g id="node17" class="node">
<title>4425240960</title>
<ellipse fill="none" stroke="black" cx="528.15" cy="-90" rx="53.4" ry="18"/>
<text text-anchor="middle" x="528.15" y="-84.95" font-family="Times,serif" font-size="14.00">4: Constant</text>
</g>
<!-- 4425240048&#45;&gt;4425240960 -->
<g id="edge17" class="edge">
<title>4425240048&#45;&gt;4425240960</title>
<path fill="none" stroke="black" d="M447.49,-145.29C461.81,-135.65 480.35,-123.18 496.04,-112.62"/>
<polygon fill="black" stroke="black" points="497.55,-115.14 503.89,-106.66 493.64,-109.34 497.55,-115.14"/>
</g>
<!-- 4425239952 -->
<g id="node14" class="node">
<title>4425239952</title>
<ellipse fill="none" stroke="black" cx="257.15" cy="-18" rx="43.16" ry="18"/>
<text text-anchor="middle" x="257.15" y="-12.95" font-family="Times,serif" font-size="14.00">4: Name</text>
</g>
<!-- 4425240000&#45;&gt;4425239952 -->
<g id="edge13" class="edge">
<title>4425240000&#45;&gt;4425239952</title>
<path fill="none" stroke="black" d="M382.19,-75.83C357.62,-64.67 322.19,-48.56 295.31,-36.34"/>
<polygon fill="black" stroke="black" points="297.02,-32.82 286.47,-31.87 294.13,-39.2 297.02,-32.82"/>
</g>
<!-- 4384083920 -->
<g id="node15" class="node">
<title>4384083920</title>
<ellipse fill="none" stroke="black" cx="383.15" cy="-18" rx="65.17" ry="18"/>
<text text-anchor="start" x="343.4" y="-12.95" font-family="Times,serif" font-size="14.00">class &#39;ast.Mod&#39;</text>
</g>
<!-- 4425240000&#45;&gt;4384083920 -->
<g id="edge14" class="edge">
<title>4425240000&#45;&gt;4384083920</title>
<path fill="none" stroke="black" d="M404.38,-72.05C401.29,-64.35 397.57,-55.03 394.1,-46.36"/>
<polygon fill="black" stroke="black" points="397.03,-45.26 390.06,-37.28 390.53,-47.86 397.03,-45.26"/>
</g>
<!-- 4425241008 -->
<g id="node16" class="node">
<title>4425241008</title>
<ellipse fill="none" stroke="black" cx="520.15" cy="-18" rx="53.4" ry="18"/>
<text text-anchor="middle" x="520.15" y="-12.95" font-family="Times,serif" font-size="14.00">4: Constant</text>
</g>
<!-- 4425240000&#45;&gt;4425241008 -->
<g id="edge15" class="edge">
<title>4425240000&#45;&gt;4425241008</title>
<path fill="none" stroke="black" d="M434.27,-74.15C449.67,-64.27 470.13,-51.12 487.22,-40.15"/>
<polygon fill="black" stroke="black" points="488.8,-42.66 495.32,-34.31 485.01,-36.77 488.8,-42.66"/>
</g>
<!-- 4425241200 -->
<g id="node19" class="node">
<title>4425241200</title>
<ellipse fill="none" stroke="black" cx="635.15" cy="-90" rx="36" ry="18"/>
<text text-anchor="middle" x="635.15" y="-84.95" font-family="Times,serif" font-size="14.00">5: Call</text>
</g>
<!-- 4425240912&#45;&gt;4425241200 -->
<g id="edge19" class="edge">
<title>4425240912&#45;&gt;4425241200</title>
<path fill="none" stroke="black" d="M601.58,-144.41C606.79,-136.13 613.2,-125.92 619.02,-116.66"/>
<polygon fill="black" stroke="black" points="622.44,-118.8 624.8,-108.47 616.52,-115.07 622.44,-118.8"/>
</g>
<!-- 4425241152 -->
<g id="node20" class="node">
<title>4425241152</title>
<ellipse fill="none" stroke="black" cx="635.15" cy="-18" rx="43.16" ry="18"/>
<text text-anchor="middle" x="635.15" y="-12.95" font-family="Times,serif" font-size="14.00">5: Name</text>
</g>
<!-- 4425241200&#45;&gt;4425241152 -->
<g id="edge20" class="edge">
<title>4425241200&#45;&gt;4425241152</title>
<path fill="none" stroke="black" d="M635.15,-71.7C635.15,-64.24 635.15,-55.32 635.15,-46.97"/>
<polygon fill="black" stroke="black" points="638.65,-47.1 635.15,-37.1 631.65,-47.1 638.65,-47.1"/>
</g>
<!-- 4425241392 -->
<g id="node22" class="node">
<title>4425241392</title>
<ellipse fill="none" stroke="black" cx="732.15" cy="-90" rx="36" ry="18"/>
<text text-anchor="middle" x="732.15" y="-84.95" font-family="Times,serif" font-size="14.00">7: Call</text>
</g>
<!-- 4425241104&#45;&gt;4425241392 -->
<g id="edge22" class="edge">
<title>4425241104&#45;&gt;4425241392</title>
<path fill="none" stroke="black" d="M722.37,-143.7C723.77,-136.15 725.45,-127.12 727.01,-118.68"/>
<polygon fill="black" stroke="black" points="730.59,-119.58 728.98,-109.1 723.71,-118.3 730.59,-119.58"/>
</g>
<!-- 4425241488 -->
<g id="node23" class="node">
<title>4425241488</title>
<ellipse fill="none" stroke="black" cx="739.15" cy="-18" rx="43.16" ry="18"/>
<text text-anchor="middle" x="739.15" y="-12.95" font-family="Times,serif" font-size="14.00">7: Name</text>
</g>
<!-- 4425241392&#45;&gt;4425241488 -->
<g id="edge23" class="edge">
<title>4425241392&#45;&gt;4425241488</title>
<path fill="none" stroke="black" d="M733.88,-71.7C734.63,-64.24 735.52,-55.32 736.36,-46.97"/>
<polygon fill="black" stroke="black" points="739.93,-47.4 737.44,-37.1 732.97,-46.71 739.93,-47.4"/>
</g>
</g>
</svg>
