<?xml version="1.0" encoding="UTF-8" standalone="no"?>
<!DOCTYPE svg PUBLIC "-//W3C//DTD SVG 1.1//EN"
 "http://www.w3.org/Graphics/SVG/1.1/DTD/svg11.dtd">
<!-- Generated by graphviz version 8.0.5 (20230430.1635)
 -->
<!-- Pages: 1 -->
<svg width="2504pt" height="548pt"
 viewBox="0.00 0.00 2504.25 548.00" xmlns="http://www.w3.org/2000/svg" xmlns:xlink="http://www.w3.org/1999/xlink">
<g id="graph0" class="graph" transform="scale(1 1) rotate(0) translate(4 544)">
<polygon fill="white" stroke="none" points="-4,4 -4,-544 2500.25,-544 2500.25,4 -4,4"/>
<!-- 4417606400 -->
<g id="node1" class="node">
<title>4417606400</title>
<ellipse fill="none" stroke="black" cx="661.03" cy="-522" rx="156.78" ry="18"/>
<text text-anchor="start" x="554.15" y="-516.95" font-family="Times,serif" font-size="14.00">class &#39;javalang.tree.MethodDeclaration&#39;</text>
</g>
<!-- 4417604336 -->
<g id="node2" class="node">
<title>4417604336</title>
<ellipse fill="none" stroke="black" cx="124.03" cy="-450" rx="124.03" ry="18"/>
<text text-anchor="start" x="41.15" y="-444.95" font-family="Times,serif" font-size="14.00">class &#39;javalang.tree.BasicType&#39;</text>
</g>
<!-- 4417606400&#45;&gt;4417604336 -->
<g id="edge1" class="edge">
<title>4417606400&#45;&gt;4417604336</title>
<path fill="none" stroke="black" d="M560.02,-507.83C464.07,-495.33 320.59,-476.62 224.74,-464.13"/>
<polygon fill="black" stroke="black" points="225.24,-460.53 214.87,-462.71 224.34,-467.47 225.24,-460.53"/>
</g>
<!-- 1 -->
<g id="node3" class="node">
<title>1</title>
<ellipse fill="none" stroke="black" cx="293.03" cy="-450" rx="27" ry="18"/>
<text text-anchor="middle" x="293.03" y="-444.95" font-family="Times,serif" font-size="14.00">foo</text>
</g>
<!-- 4417606400&#45;&gt;1 -->
<g id="edge2" class="edge">
<title>4417606400&#45;&gt;1</title>
<path fill="none" stroke="black" d="M540.85,-510.11C476.94,-502.26 397.62,-489.2 329.03,-468 327.26,-467.45 325.46,-466.83 323.67,-466.16"/>
<polygon fill="black" stroke="black" points="325.14,-462.57 314.57,-461.92 322.43,-469.02 325.14,-462.57"/>
</g>
<!-- 4417604480 -->
<g id="node4" class="node">
<title>4417604480</title>
<ellipse fill="none" stroke="black" cx="488.03" cy="-450" rx="149.62" ry="18"/>
<text text-anchor="start" x="386.4" y="-444.95" font-family="Times,serif" font-size="14.00">class &#39;javalang.tree.FormalParameter&#39;</text>
</g>
<!-- 4417606400&#45;&gt;4417604480 -->
<g id="edge3" class="edge">
<title>4417606400&#45;&gt;4417604480</title>
<path fill="none" stroke="black" d="M619.59,-504.23C595.5,-494.49 564.94,-482.12 539.33,-471.76"/>
<polygon fill="black" stroke="black" points="541.01,-468.26 530.43,-467.75 538.38,-474.75 541.01,-468.26"/>
</g>
<!-- 4417604576 -->
<g id="node5" class="node">
<title>4417604576</title>
<ellipse fill="none" stroke="black" cx="835.03" cy="-450" rx="179.3" ry="18"/>
<text text-anchor="start" x="711.65" y="-444.95" font-family="Times,serif" font-size="14.00">class &#39;javalang.tree.LocalVariableDeclaration&#39;</text>
</g>
<!-- 4417606400&#45;&gt;4417604576 -->
<g id="edge4" class="edge">
<title>4417606400&#45;&gt;4417604576</title>
<path fill="none" stroke="black" d="M702.71,-504.23C726.85,-494.52 757.45,-482.21 783.14,-471.87"/>
<polygon fill="black" stroke="black" points="784.12,-474.85 792.09,-467.87 781.5,-468.36 784.12,-474.85"/>
</g>
<!-- 4417605920 -->
<g id="node6" class="node">
<title>4417605920</title>
<ellipse fill="none" stroke="black" cx="1276.03" cy="-450" rx="145.01" ry="18"/>
<text text-anchor="start" x="1177.78" y="-444.95" font-family="Times,serif" font-size="14.00">class &#39;javalang.tree.WhileStatement&#39;</text>
</g>
<!-- 4417606400&#45;&gt;4417605920 -->
<g id="edge5" class="edge">
<title>4417606400&#45;&gt;4417605920</title>
<path fill="none" stroke="black" d="M769.56,-508.65C879.47,-496.14 1048.8,-476.86 1160.98,-464.09"/>
<polygon fill="black" stroke="black" points="1161.12,-467.49 1170.66,-462.88 1160.32,-460.53 1161.12,-467.49"/>
</g>
<!-- 4417606112 -->
<g id="node7" class="node">
<title>4417606112</title>
<ellipse fill="none" stroke="black" cx="1957.03" cy="-450" rx="147.06" ry="18"/>
<text text-anchor="start" x="1857.28" y="-444.95" font-family="Times,serif" font-size="14.00">class &#39;javalang.tree.ReturnStatement&#39;</text>
</g>
<!-- 4417606400&#45;&gt;4417606112 -->
<g id="edge6" class="edge">
<title>4417606400&#45;&gt;4417606112</title>
<path fill="none" stroke="black" d="M800.34,-513.48C1048.31,-500.08 1563.69,-472.25 1814.18,-458.72"/>
<polygon fill="black" stroke="black" points="1814.01,-462.18 1823.81,-458.14 1813.64,-455.19 1814.01,-462.18"/>
</g>
<!-- 2 -->
<g id="node8" class="node">
<title>2</title>
<ellipse fill="none" stroke="black" cx="124.03" cy="-378" rx="27" ry="18"/>
<text text-anchor="middle" x="124.03" y="-372.95" font-family="Times,serif" font-size="14.00">int</text>
</g>
<!-- 4417604336&#45;&gt;2 -->
<g id="edge7" class="edge">
<title>4417604336&#45;&gt;2</title>
<path fill="none" stroke="black" d="M124.03,-431.7C124.03,-424.24 124.03,-415.32 124.03,-406.97"/>
<polygon fill="black" stroke="black" points="127.53,-407.1 124.03,-397.1 120.53,-407.1 127.53,-407.1"/>
</g>
<!-- 4417604384 -->
<g id="node9" class="node">
<title>4417604384</title>
<ellipse fill="none" stroke="black" cx="306.03" cy="-378" rx="124.03" ry="18"/>
<text text-anchor="start" x="223.15" y="-372.95" font-family="Times,serif" font-size="14.00">class &#39;javalang.tree.BasicType&#39;</text>
</g>
<!-- 4417604480&#45;&gt;4417604384 -->
<g id="edge8" class="edge">
<title>4417604480&#45;&gt;4417604384</title>
<path fill="none" stroke="black" d="M444.9,-432.41C419.08,-422.48 386.07,-409.79 358.72,-399.26"/>
<polygon fill="black" stroke="black" points="360.13,-395.67 349.54,-395.35 357.61,-402.21 360.13,-395.67"/>
</g>
<!-- 3 -->
<g id="node10" class="node">
<title>3</title>
<ellipse fill="none" stroke="black" cx="475.03" cy="-378" rx="27" ry="18"/>
<text text-anchor="middle" x="475.03" y="-372.95" font-family="Times,serif" font-size="14.00">x</text>
</g>
<!-- 4417604480&#45;&gt;3 -->
<g id="edge9" class="edge">
<title>4417604480&#45;&gt;3</title>
<path fill="none" stroke="black" d="M484.81,-431.7C483.41,-424.15 481.74,-415.12 480.17,-406.68"/>
<polygon fill="black" stroke="black" points="483.47,-406.3 478.2,-397.1 476.59,-407.58 483.47,-406.3"/>
</g>
<!-- 4417604624 -->
<g id="node12" class="node">
<title>4417604624</title>
<ellipse fill="none" stroke="black" cx="644.03" cy="-378" rx="124.03" ry="18"/>
<text text-anchor="start" x="561.15" y="-372.95" font-family="Times,serif" font-size="14.00">class &#39;javalang.tree.BasicType&#39;</text>
</g>
<!-- 4417604576&#45;&gt;4417604624 -->
<g id="edge11" class="edge">
<title>4417604576&#45;&gt;4417604624</title>
<path fill="none" stroke="black" d="M789.28,-432.23C762.05,-422.25 727.34,-409.53 698.68,-399.03"/>
<polygon fill="black" stroke="black" points="700.01,-395.42 689.42,-395.27 697.6,-402 700.01,-395.42"/>
</g>
<!-- 4417604768 -->
<g id="node13" class="node">
<title>4417604768</title>
<ellipse fill="none" stroke="black" cx="940.03" cy="-378" rx="154.22" ry="18"/>
<text text-anchor="start" x="835.03" y="-372.95" font-family="Times,serif" font-size="14.00">class &#39;javalang.tree.VariableDeclarator&#39;</text>
</g>
<!-- 4417604576&#45;&gt;4417604768 -->
<g id="edge12" class="edge">
<title>4417604576&#45;&gt;4417604768</title>
<path fill="none" stroke="black" d="M860.98,-431.7C874.33,-422.8 890.79,-411.82 905.23,-402.2"/>
<polygon fill="black" stroke="black" points="906.99,-404.56 913.37,-396.1 903.11,-398.74 906.99,-404.56"/>
</g>
<!-- 4417604816 -->
<g id="node18" class="node">
<title>4417604816</title>
<ellipse fill="none" stroke="black" cx="1276.03" cy="-378" rx="146.55" ry="18"/>
<text text-anchor="start" x="1176.65" y="-372.95" font-family="Times,serif" font-size="14.00">class &#39;javalang.tree.BinaryOperation&#39;</text>
</g>
<!-- 4417605920&#45;&gt;4417604816 -->
<g id="edge17" class="edge">
<title>4417605920&#45;&gt;4417604816</title>
<path fill="none" stroke="black" d="M1276.03,-431.7C1276.03,-424.24 1276.03,-415.32 1276.03,-406.97"/>
<polygon fill="black" stroke="black" points="1279.53,-407.1 1276.03,-397.1 1272.53,-407.1 1279.53,-407.1"/>
</g>
<!-- 4417605776 -->
<g id="node19" class="node">
<title>4417605776</title>
<ellipse fill="none" stroke="black" cx="1812.03" cy="-378" rx="143.99" ry="18"/>
<text text-anchor="start" x="1714.53" y="-372.95" font-family="Times,serif" font-size="14.00">class &#39;javalang.tree.BlockStatement&#39;</text>
</g>
<!-- 4417605920&#45;&gt;4417605776 -->
<g id="edge18" class="edge">
<title>4417605920&#45;&gt;4417605776</title>
<path fill="none" stroke="black" d="M1373.4,-436.28C1466.79,-424.09 1607.48,-405.71 1704.21,-393.08"/>
<polygon fill="black" stroke="black" points="1704.43,-396.45 1713.9,-391.69 1703.53,-389.51 1704.43,-396.45"/>
</g>
<!-- 4417606256 -->
<g id="node52" class="node">
<title>4417606256</title>
<ellipse fill="none" stroke="black" cx="2329.03" cy="-378" rx="154.22" ry="18"/>
<text text-anchor="start" x="2224.03" y="-372.95" font-family="Times,serif" font-size="14.00">class &#39;javalang.tree.MemberReference&#39;</text>
</g>
<!-- 4417606112&#45;&gt;4417606256 -->
<g id="edge51" class="edge">
<title>4417606112&#45;&gt;4417606256</title>
<path fill="none" stroke="black" d="M2035.01,-434.33C2094.73,-423.09 2177.17,-407.57 2239.57,-395.83"/>
<polygon fill="black" stroke="black" points="2240.01,-399.12 2249.19,-393.84 2238.71,-392.25 2240.01,-399.12"/>
</g>
<!-- 4 -->
<g id="node11" class="node">
<title>4</title>
<ellipse fill="none" stroke="black" cx="306.03" cy="-306" rx="27" ry="18"/>
<text text-anchor="middle" x="306.03" y="-300.95" font-family="Times,serif" font-size="14.00">int</text>
</g>
<!-- 4417604384&#45;&gt;4 -->
<g id="edge10" class="edge">
<title>4417604384&#45;&gt;4</title>
<path fill="none" stroke="black" d="M306.03,-359.7C306.03,-352.24 306.03,-343.32 306.03,-334.97"/>
<polygon fill="black" stroke="black" points="309.53,-335.1 306.03,-325.1 302.53,-335.1 309.53,-335.1"/>
</g>
<!-- 5 -->
<g id="node14" class="node">
<title>5</title>
<ellipse fill="none" stroke="black" cx="644.03" cy="-306" rx="27" ry="18"/>
<text text-anchor="middle" x="644.03" y="-300.95" font-family="Times,serif" font-size="14.00">int</text>
</g>
<!-- 4417604624&#45;&gt;5 -->
<g id="edge13" class="edge">
<title>4417604624&#45;&gt;5</title>
<path fill="none" stroke="black" d="M644.03,-359.7C644.03,-352.24 644.03,-343.32 644.03,-334.97"/>
<polygon fill="black" stroke="black" points="647.53,-335.1 644.03,-325.1 640.53,-335.1 647.53,-335.1"/>
</g>
<!-- 6 -->
<g id="node15" class="node">
<title>6</title>
<ellipse fill="none" stroke="black" cx="769.03" cy="-306" rx="27" ry="18"/>
<text text-anchor="middle" x="769.03" y="-300.95" font-family="Times,serif" font-size="14.00">y</text>
</g>
<!-- 4417604768&#45;&gt;6 -->
<g id="edge14" class="edge">
<title>4417604768&#45;&gt;6</title>
<path fill="none" stroke="black" d="M895.34,-360.32C868.89,-350.23 834.85,-336.88 805.03,-324 803.37,-323.28 801.68,-322.54 799.97,-321.77"/>
<polygon fill="black" stroke="black" points="801.79,-318.3 791.24,-317.31 798.87,-324.66 801.79,-318.3"/>
</g>
<!-- 4417604720 -->
<g id="node16" class="node">
<title>4417604720</title>
<ellipse fill="none" stroke="black" cx="923.03" cy="-306" rx="109.19" ry="18"/>
<text text-anchor="start" x="851.03" y="-300.95" font-family="Times,serif" font-size="14.00">class &#39;javalang.tree.Literal&#39;</text>
</g>
<!-- 4417604768&#45;&gt;4417604720 -->
<g id="edge15" class="edge">
<title>4417604768&#45;&gt;4417604720</title>
<path fill="none" stroke="black" d="M935.83,-359.7C933.99,-352.15 931.8,-343.12 929.75,-334.68"/>
<polygon fill="black" stroke="black" points="932.94,-334 927.18,-325.1 926.14,-335.65 932.94,-334"/>
</g>
<!-- 7 -->
<g id="node17" class="node">
<title>7</title>
<ellipse fill="none" stroke="black" cx="923.03" cy="-234" rx="27" ry="18"/>
<text text-anchor="middle" x="923.03" y="-228.95" font-family="Times,serif" font-size="14.00">0</text>
</g>
<!-- 4417604720&#45;&gt;7 -->
<g id="edge16" class="edge">
<title>4417604720&#45;&gt;7</title>
<path fill="none" stroke="black" d="M923.03,-287.7C923.03,-280.24 923.03,-271.32 923.03,-262.97"/>
<polygon fill="black" stroke="black" points="926.53,-263.1 923.03,-253.1 919.53,-263.1 926.53,-263.1"/>
</g>
<!-- 8 -->
<g id="node20" class="node">
<title>8</title>
<ellipse fill="none" stroke="black" cx="1077.03" cy="-306" rx="27" ry="18"/>
<text text-anchor="middle" x="1077.03" y="-300.95" font-family="Times,serif" font-size="14.00">&gt;=</text>
</g>
<!-- 4417604816&#45;&gt;8 -->
<g id="edge19" class="edge">
<title>4417604816&#45;&gt;8</title>
<path fill="none" stroke="black" d="M1220.71,-360.92C1188.86,-351.2 1148.29,-337.99 1113.03,-324 1111.35,-323.33 1109.64,-322.63 1107.92,-321.89"/>
<polygon fill="black" stroke="black" points="1109.71,-318.41 1099.15,-317.52 1106.85,-324.8 1109.71,-318.41"/>
</g>
<!-- 4417604912 -->
<g id="node21" class="node">
<title>4417604912</title>
<ellipse fill="none" stroke="black" cx="1276.03" cy="-306" rx="154.22" ry="18"/>
<text text-anchor="start" x="1171.03" y="-300.95" font-family="Times,serif" font-size="14.00">class &#39;javalang.tree.MemberReference&#39;</text>
</g>
<!-- 4417604816&#45;&gt;4417604912 -->
<g id="edge20" class="edge">
<title>4417604816&#45;&gt;4417604912</title>
<path fill="none" stroke="black" d="M1276.03,-359.7C1276.03,-352.24 1276.03,-343.32 1276.03,-334.97"/>
<polygon fill="black" stroke="black" points="1279.53,-335.1 1276.03,-325.1 1272.53,-335.1 1279.53,-335.1"/>
</g>
<!-- 4417605008 -->
<g id="node22" class="node">
<title>4417605008</title>
<ellipse fill="none" stroke="black" cx="1557.03" cy="-306" rx="109.19" ry="18"/>
<text text-anchor="start" x="1485.03" y="-300.95" font-family="Times,serif" font-size="14.00">class &#39;javalang.tree.Literal&#39;</text>
</g>
<!-- 4417604816&#45;&gt;4417605008 -->
<g id="edge21" class="edge">
<title>4417604816&#45;&gt;4417605008</title>
<path fill="none" stroke="black" d="M1339.09,-361.29C1383.28,-350.28 1442.34,-335.57 1487.83,-324.24"/>
<polygon fill="black" stroke="black" points="1488.63,-327.4 1497.49,-321.58 1486.94,-320.6 1488.63,-327.4"/>
</g>
<!-- 4417605632 -->
<g id="node26" class="node">
<title>4417605632</title>
<ellipse fill="none" stroke="black" cx="1812.03" cy="-306" rx="128.12" ry="18"/>
<text text-anchor="start" x="1726.15" y="-300.95" font-family="Times,serif" font-size="14.00">class &#39;javalang.tree.IfStatement&#39;</text>
</g>
<!-- 4417605776&#45;&gt;4417605632 -->
<g id="edge25" class="edge">
<title>4417605776&#45;&gt;4417605632</title>
<path fill="none" stroke="black" d="M1812.03,-359.7C1812.03,-352.24 1812.03,-343.32 1812.03,-334.97"/>
<polygon fill="black" stroke="black" points="1815.53,-335.1 1812.03,-325.1 1808.53,-335.1 1815.53,-335.1"/>
</g>
<!-- 4417606064 -->
<g id="node27" class="node">
<title>4417606064</title>
<ellipse fill="none" stroke="black" cx="2121.03" cy="-306" rx="162.93" ry="18"/>
<text text-anchor="start" x="2009.65" y="-300.95" font-family="Times,serif" font-size="14.00">class &#39;javalang.tree.StatementExpression&#39;</text>
</g>
<!-- 4417605776&#45;&gt;4417606064 -->
<g id="edge26" class="edge">
<title>4417605776&#45;&gt;4417606064</title>
<path fill="none" stroke="black" d="M1879.46,-361.72C1927.04,-350.95 1990.98,-336.46 2041.12,-325.1"/>
<polygon fill="black" stroke="black" points="2041.62,-328.35 2050.6,-322.73 2040.08,-321.52 2041.62,-328.35"/>
</g>
<!-- 9 -->
<g id="node23" class="node">
<title>9</title>
<ellipse fill="none" stroke="black" cx="1240.03" cy="-234" rx="27" ry="18"/>
</g>
<!-- 4417604912&#45;&gt;9 -->
<g id="edge22" class="edge">
<title>4417604912&#45;&gt;9</title>
<path fill="none" stroke="black" d="M1267.13,-287.7C1262.95,-279.58 1257.89,-269.74 1253.28,-260.76"/>
<polygon fill="black" stroke="black" points="1256.02,-259.44 1248.33,-252.14 1249.79,-262.64 1256.02,-259.44"/>
</g>
<!-- 10 -->
<g id="node24" class="node">
<title>10</title>
<ellipse fill="none" stroke="black" cx="1312.03" cy="-234" rx="27" ry="18"/>
<text text-anchor="middle" x="1312.03" y="-228.95" font-family="Times,serif" font-size="14.00">x</text>
</g>
<!-- 4417604912&#45;&gt;10 -->
<g id="edge23" class="edge">
<title>4417604912&#45;&gt;10</title>
<path fill="none" stroke="black" d="M1284.93,-287.7C1289.1,-279.58 1294.16,-269.74 1298.78,-260.76"/>
<polygon fill="black" stroke="black" points="1302.26,-262.64 1303.73,-252.14 1296.04,-259.44 1302.26,-262.64"/>
</g>
<!-- 11 -->
<g id="node25" class="node">
<title>11</title>
<ellipse fill="none" stroke="black" cx="1488.03" cy="-234" rx="27" ry="18"/>
<text text-anchor="middle" x="1488.03" y="-228.95" font-family="Times,serif" font-size="14.00">0</text>
</g>
<!-- 4417605008&#45;&gt;11 -->
<g id="edge24" class="edge">
<title>4417605008&#45;&gt;11</title>
<path fill="none" stroke="black" d="M1540.33,-288.05C1531.14,-278.73 1519.63,-267.06 1509.75,-257.03"/>
<polygon fill="black" stroke="black" points="1512.76,-255.09 1503.25,-250.42 1507.77,-260 1512.76,-255.09"/>
</g>
<!-- 4417605392 -->
<g id="node28" class="node">
<title>4417605392</title>
<ellipse fill="none" stroke="black" cx="1680.03" cy="-234" rx="146.55" ry="18"/>
<text text-anchor="start" x="1580.65" y="-228.95" font-family="Times,serif" font-size="14.00">class &#39;javalang.tree.BinaryOperation&#39;</text>
</g>
<!-- 4417605632&#45;&gt;4417605392 -->
<g id="edge27" class="edge">
<title>4417605632&#45;&gt;4417605392</title>
<path fill="none" stroke="black" d="M1780.41,-288.23C1762.74,-278.86 1740.52,-267.08 1721.47,-256.98"/>
<polygon fill="black" stroke="black" points="1723.32,-253.47 1712.84,-251.87 1720.04,-259.65 1723.32,-253.47"/>
</g>
<!-- 4417605584 -->
<g id="node29" class="node">
<title>4417605584</title>
<ellipse fill="none" stroke="black" cx="2007.03" cy="-234" rx="162.93" ry="18"/>
<text text-anchor="start" x="1895.65" y="-228.95" font-family="Times,serif" font-size="14.00">class &#39;javalang.tree.StatementExpression&#39;</text>
</g>
<!-- 4417605632&#45;&gt;4417605584 -->
<g id="edge28" class="edge">
<title>4417605632&#45;&gt;4417605584</title>
<path fill="none" stroke="black" d="M1857.26,-288.76C1885.03,-278.79 1920.85,-265.94 1950.49,-255.3"/>
<polygon fill="black" stroke="black" points="1951.46,-258.31 1959.69,-251.63 1949.1,-251.72 1951.46,-258.31"/>
</g>
<!-- 4417606016 -->
<g id="node48" class="node">
<title>4417606016</title>
<ellipse fill="none" stroke="black" cx="2342.03" cy="-234" rx="154.22" ry="18"/>
<text text-anchor="start" x="2237.03" y="-228.95" font-family="Times,serif" font-size="14.00">class &#39;javalang.tree.MemberReference&#39;</text>
</g>
<!-- 4417606064&#45;&gt;4417606016 -->
<g id="edge47" class="edge">
<title>4417606064&#45;&gt;4417606016</title>
<path fill="none" stroke="black" d="M2173.12,-288.5C2205.16,-278.35 2246.38,-265.3 2280.08,-254.62"/>
<polygon fill="black" stroke="black" points="2280.81,-257.75 2289.28,-251.39 2278.69,-251.07 2280.81,-257.75"/>
</g>
<!-- 12 -->
<g id="node30" class="node">
<title>12</title>
<ellipse fill="none" stroke="black" cx="1264.03" cy="-162" rx="27" ry="18"/>
<text text-anchor="middle" x="1264.03" y="-156.95" font-family="Times,serif" font-size="14.00">==</text>
</g>
<!-- 4417605392&#45;&gt;12 -->
<g id="edge29" class="edge">
<title>4417605392&#45;&gt;12</title>
<path fill="none" stroke="black" d="M1579.63,-220.59C1476.15,-207.54 1326.32,-187.84 1300.03,-180 1298.25,-179.47 1296.45,-178.87 1294.66,-178.21"/>
<polygon fill="black" stroke="black" points="1296.12,-174.61 1285.55,-173.99 1293.43,-181.07 1296.12,-174.61"/>
</g>
<!-- 4417605440 -->
<g id="node31" class="node">
<title>4417605440</title>
<ellipse fill="none" stroke="black" cx="1456.03" cy="-162" rx="146.55" ry="18"/>
<text text-anchor="start" x="1356.65" y="-156.95" font-family="Times,serif" font-size="14.00">class &#39;javalang.tree.BinaryOperation&#39;</text>
</g>
<!-- 4417605392&#45;&gt;4417605440 -->
<g id="edge30" class="edge">
<title>4417605392&#45;&gt;4417605440</title>
<path fill="none" stroke="black" d="M1628.08,-216.76C1595.4,-206.55 1553.04,-193.32 1518.53,-182.53"/>
<polygon fill="black" stroke="black" points="1519.68,-178.91 1509.09,-179.27 1517.59,-185.59 1519.68,-178.91"/>
</g>
<!-- 4417605152 -->
<g id="node32" class="node">
<title>4417605152</title>
<ellipse fill="none" stroke="black" cx="1730.03" cy="-162" rx="109.19" ry="18"/>
<text text-anchor="start" x="1658.03" y="-156.95" font-family="Times,serif" font-size="14.00">class &#39;javalang.tree.Literal&#39;</text>
</g>
<!-- 4417605392&#45;&gt;4417605152 -->
<g id="edge31" class="edge">
<title>4417605392&#45;&gt;4417605152</title>
<path fill="none" stroke="black" d="M1692.39,-215.7C1698.14,-207.64 1705.1,-197.89 1711.47,-188.98"/>
<polygon fill="black" stroke="black" points="1714.85,-191.28 1717.81,-181.1 1709.15,-187.21 1714.85,-191.28"/>
</g>
<!-- 4417605344 -->
<g id="node40" class="node">
<title>4417605344</title>
<ellipse fill="none" stroke="black" cx="2021.03" cy="-162" rx="129.15" ry="18"/>
<text text-anchor="start" x="1934.4" y="-156.95" font-family="Times,serif" font-size="14.00">class &#39;javalang.tree.Assignment&#39;</text>
</g>
<!-- 4417605584&#45;&gt;4417605344 -->
<g id="edge39" class="edge">
<title>4417605584&#45;&gt;4417605344</title>
<path fill="none" stroke="black" d="M2010.49,-215.7C2012,-208.15 2013.8,-199.12 2015.49,-190.68"/>
<polygon fill="black" stroke="black" points="2019.08,-191.6 2017.61,-181.1 2012.21,-190.22 2019.08,-191.6"/>
</g>
<!-- 13 -->
<g id="node33" class="node">
<title>13</title>
<ellipse fill="none" stroke="black" cx="1096.03" cy="-90" rx="27" ry="18"/>
<text text-anchor="middle" x="1096.03" y="-84.95" font-family="Times,serif" font-size="14.00">%</text>
</g>
<!-- 4417605440&#45;&gt;13 -->
<g id="edge32" class="edge">
<title>4417605440&#45;&gt;13</title>
<path fill="none" stroke="black" d="M1358.75,-148.13C1279.16,-137.03 1173.25,-120.83 1132.03,-108 1130.26,-107.45 1128.46,-106.83 1126.67,-106.16"/>
<polygon fill="black" stroke="black" points="1128.15,-102.56 1117.57,-101.9 1125.43,-109.01 1128.15,-102.56"/>
</g>
<!-- 4417605104 -->
<g id="node34" class="node">
<title>4417605104</title>
<ellipse fill="none" stroke="black" cx="1295.03" cy="-90" rx="154.22" ry="18"/>
<text text-anchor="start" x="1190.03" y="-84.95" font-family="Times,serif" font-size="14.00">class &#39;javalang.tree.MemberReference&#39;</text>
</g>
<!-- 4417605440&#45;&gt;4417605104 -->
<g id="edge33" class="edge">
<title>4417605440&#45;&gt;4417605104</title>
<path fill="none" stroke="black" d="M1417.46,-144.23C1395.32,-134.61 1367.31,-122.43 1343.67,-112.15"/>
<polygon fill="black" stroke="black" points="1345.4,-108.65 1334.84,-107.87 1342.61,-115.07 1345.4,-108.65"/>
</g>
<!-- 4417605056 -->
<g id="node35" class="node">
<title>4417605056</title>
<ellipse fill="none" stroke="black" cx="1576.03" cy="-90" rx="109.19" ry="18"/>
<text text-anchor="start" x="1504.03" y="-84.95" font-family="Times,serif" font-size="14.00">class &#39;javalang.tree.Literal&#39;</text>
</g>
<!-- 4417605440&#45;&gt;4417605056 -->
<g id="edge34" class="edge">
<title>4417605440&#45;&gt;4417605056</title>
<path fill="none" stroke="black" d="M1485.38,-143.88C1501.31,-134.59 1521.17,-123 1538.24,-113.04"/>
<polygon fill="black" stroke="black" points="1539.52,-115.77 1546.39,-107.71 1535.99,-109.72 1539.52,-115.77"/>
</g>
<!-- 17 -->
<g id="node39" class="node">
<title>17</title>
<ellipse fill="none" stroke="black" cx="1730.03" cy="-90" rx="27" ry="18"/>
<text text-anchor="middle" x="1730.03" y="-84.95" font-family="Times,serif" font-size="14.00">0</text>
</g>
<!-- 4417605152&#45;&gt;17 -->
<g id="edge38" class="edge">
<title>4417605152&#45;&gt;17</title>
<path fill="none" stroke="black" d="M1730.03,-143.7C1730.03,-136.24 1730.03,-127.32 1730.03,-118.97"/>
<polygon fill="black" stroke="black" points="1733.53,-119.1 1730.03,-109.1 1726.53,-119.1 1733.53,-119.1"/>
</g>
<!-- 14 -->
<g id="node36" class="node">
<title>14</title>
<ellipse fill="none" stroke="black" cx="1259.03" cy="-18" rx="27" ry="18"/>
</g>
<!-- 4417605104&#45;&gt;14 -->
<g id="edge35" class="edge">
<title>4417605104&#45;&gt;14</title>
<path fill="none" stroke="black" d="M1286.13,-71.7C1281.95,-63.58 1276.89,-53.74 1272.28,-44.76"/>
<polygon fill="black" stroke="black" points="1275.02,-43.44 1267.33,-36.14 1268.79,-46.64 1275.02,-43.44"/>
</g>
<!-- 15 -->
<g id="node37" class="node">
<title>15</title>
<ellipse fill="none" stroke="black" cx="1331.03" cy="-18" rx="27" ry="18"/>
<text text-anchor="middle" x="1331.03" y="-12.95" font-family="Times,serif" font-size="14.00">x</text>
</g>
<!-- 4417605104&#45;&gt;15 -->
<g id="edge36" class="edge">
<title>4417605104&#45;&gt;15</title>
<path fill="none" stroke="black" d="M1303.93,-71.7C1308.1,-63.58 1313.16,-53.74 1317.78,-44.76"/>
<polygon fill="black" stroke="black" points="1321.26,-46.64 1322.73,-36.14 1315.04,-43.44 1321.26,-46.64"/>
</g>
<!-- 16 -->
<g id="node38" class="node">
<title>16</title>
<ellipse fill="none" stroke="black" cx="1576.03" cy="-18" rx="27" ry="18"/>
<text text-anchor="middle" x="1576.03" y="-12.95" font-family="Times,serif" font-size="14.00">2</text>
</g>
<!-- 4417605056&#45;&gt;16 -->
<g id="edge37" class="edge">
<title>4417605056&#45;&gt;16</title>
<path fill="none" stroke="black" d="M1576.03,-71.7C1576.03,-64.24 1576.03,-55.32 1576.03,-46.97"/>
<polygon fill="black" stroke="black" points="1579.53,-47.1 1576.03,-37.1 1572.53,-47.1 1579.53,-47.1"/>
</g>
<!-- 4417605296 -->
<g id="node41" class="node">
<title>4417605296</title>
<ellipse fill="none" stroke="black" cx="1929.03" cy="-90" rx="154.22" ry="18"/>
<text text-anchor="start" x="1824.03" y="-84.95" font-family="Times,serif" font-size="14.00">class &#39;javalang.tree.MemberReference&#39;</text>
</g>
<!-- 4417605344&#45;&gt;4417605296 -->
<g id="edge40" class="edge">
<title>4417605344&#45;&gt;4417605296</title>
<path fill="none" stroke="black" d="M1998.76,-144.05C1987.18,-135.24 1972.84,-124.33 1960.17,-114.7"/>
<polygon fill="black" stroke="black" points="1962.81,-111.55 1952.73,-108.28 1958.57,-117.12 1962.81,-111.55"/>
</g>
<!-- 4417605248 -->
<g id="node42" class="node">
<title>4417605248</title>
<ellipse fill="none" stroke="black" cx="2255.03" cy="-90" rx="154.22" ry="18"/>
<text text-anchor="start" x="2150.03" y="-84.95" font-family="Times,serif" font-size="14.00">class &#39;javalang.tree.MemberReference&#39;</text>
</g>
<!-- 4417605344&#45;&gt;4417605248 -->
<g id="edge41" class="edge">
<title>4417605344&#45;&gt;4417605248</title>
<path fill="none" stroke="black" d="M2073.83,-145.2C2108.46,-134.85 2153.94,-121.24 2190.68,-110.25"/>
<polygon fill="black" stroke="black" points="2191.21,-113.44 2199.79,-107.22 2189.21,-106.74 2191.21,-113.44"/>
</g>
<!-- 18 -->
<g id="node43" class="node">
<title>18</title>
<ellipse fill="none" stroke="black" cx="2454.03" cy="-90" rx="27" ry="18"/>
<text text-anchor="middle" x="2454.03" y="-84.95" font-family="Times,serif" font-size="14.00">+=</text>
</g>
<!-- 4417605344&#45;&gt;18 -->
<g id="edge42" class="edge">
<title>4417605344&#45;&gt;18</title>
<path fill="none" stroke="black" d="M2117.65,-149.68C2225.86,-136.75 2389.85,-116.31 2418.03,-108 2419.81,-107.48 2421.61,-106.87 2423.4,-106.22"/>
<polygon fill="black" stroke="black" points="2424.63,-109.08 2432.52,-102.01 2421.94,-102.62 2424.63,-109.08"/>
</g>
<!-- 19 -->
<g id="node44" class="node">
<title>19</title>
<ellipse fill="none" stroke="black" cx="1893.03" cy="-18" rx="27" ry="18"/>
</g>
<!-- 4417605296&#45;&gt;19 -->
<g id="edge43" class="edge">
<title>4417605296&#45;&gt;19</title>
<path fill="none" stroke="black" d="M1920.13,-71.7C1915.95,-63.58 1910.89,-53.74 1906.28,-44.76"/>
<polygon fill="black" stroke="black" points="1909.02,-43.44 1901.33,-36.14 1902.79,-46.64 1909.02,-43.44"/>
</g>
<!-- 20 -->
<g id="node45" class="node">
<title>20</title>
<ellipse fill="none" stroke="black" cx="1965.03" cy="-18" rx="27" ry="18"/>
<text text-anchor="middle" x="1965.03" y="-12.95" font-family="Times,serif" font-size="14.00">y</text>
</g>
<!-- 4417605296&#45;&gt;20 -->
<g id="edge44" class="edge">
<title>4417605296&#45;&gt;20</title>
<path fill="none" stroke="black" d="M1937.93,-71.7C1942.1,-63.58 1947.16,-53.74 1951.78,-44.76"/>
<polygon fill="black" stroke="black" points="1955.26,-46.64 1956.73,-36.14 1949.04,-43.44 1955.26,-46.64"/>
</g>
<!-- 21 -->
<g id="node46" class="node">
<title>21</title>
<ellipse fill="none" stroke="black" cx="2219.03" cy="-18" rx="27" ry="18"/>
</g>
<!-- 4417605248&#45;&gt;21 -->
<g id="edge45" class="edge">
<title>4417605248&#45;&gt;21</title>
<path fill="none" stroke="black" d="M2246.13,-71.7C2241.95,-63.58 2236.89,-53.74 2232.28,-44.76"/>
<polygon fill="black" stroke="black" points="2235.02,-43.44 2227.33,-36.14 2228.79,-46.64 2235.02,-43.44"/>
</g>
<!-- 22 -->
<g id="node47" class="node">
<title>22</title>
<ellipse fill="none" stroke="black" cx="2291.03" cy="-18" rx="27" ry="18"/>
<text text-anchor="middle" x="2291.03" y="-12.95" font-family="Times,serif" font-size="14.00">x</text>
</g>
<!-- 4417605248&#45;&gt;22 -->
<g id="edge46" class="edge">
<title>4417605248&#45;&gt;22</title>
<path fill="none" stroke="black" d="M2263.93,-71.7C2268.1,-63.58 2273.16,-53.74 2277.78,-44.76"/>
<polygon fill="black" stroke="black" points="2281.26,-46.64 2282.73,-36.14 2275.04,-43.44 2281.26,-46.64"/>
</g>
<!-- 4417591856 -->
<g id="node49" class="node">
<title>4417591856</title>
<ellipse fill="none" stroke="black" cx="2240.03" cy="-162" rx="56.98" ry="18"/>
<text text-anchor="middle" x="2240.03" y="-156.95" font-family="Times,serif" font-size="14.00">4417591856</text>
</g>
<!-- 4417606016&#45;&gt;4417591856 -->
<g id="edge48" class="edge">
<title>4417606016&#45;&gt;4417591856</title>
<path fill="none" stroke="black" d="M2317.08,-215.88C2303.4,-206.49 2286.31,-194.76 2271.7,-184.74"/>
<polygon fill="black" stroke="black" points="2274.2,-181.52 2263.98,-178.75 2270.24,-187.29 2274.2,-181.52"/>
</g>
<!-- 23 -->
<g id="node50" class="node">
<title>23</title>
<ellipse fill="none" stroke="black" cx="2342.03" cy="-162" rx="27" ry="18"/>
</g>
<!-- 4417606016&#45;&gt;23 -->
<g id="edge49" class="edge">
<title>4417606016&#45;&gt;23</title>
<path fill="none" stroke="black" d="M2342.03,-215.7C2342.03,-208.24 2342.03,-199.32 2342.03,-190.97"/>
<polygon fill="black" stroke="black" points="2345.53,-191.1 2342.03,-181.1 2338.53,-191.1 2345.53,-191.1"/>
</g>
<!-- 24 -->
<g id="node51" class="node">
<title>24</title>
<ellipse fill="none" stroke="black" cx="2414.03" cy="-162" rx="27" ry="18"/>
<text text-anchor="middle" x="2414.03" y="-156.95" font-family="Times,serif" font-size="14.00">x</text>
</g>
<!-- 4417606016&#45;&gt;24 -->
<g id="edge50" class="edge">
<title>4417606016&#45;&gt;24</title>
<path fill="none" stroke="black" d="M2359.83,-215.7C2369.42,-206.37 2381.36,-194.76 2391.58,-184.82"/>
<polygon fill="black" stroke="black" points="2393.61,-187.76 2398.34,-178.28 2388.73,-182.74 2393.61,-187.76"/>
</g>
<!-- 25 -->
<g id="node53" class="node">
<title>25</title>
<ellipse fill="none" stroke="black" cx="2329.03" cy="-306" rx="27" ry="18"/>
</g>
<!-- 4417606256&#45;&gt;25 -->
<g id="edge52" class="edge">
<title>4417606256&#45;&gt;25</title>
<path fill="none" stroke="black" d="M2329.03,-359.7C2329.03,-352.24 2329.03,-343.32 2329.03,-334.97"/>
<polygon fill="black" stroke="black" points="2332.53,-335.1 2329.03,-325.1 2325.53,-335.1 2332.53,-335.1"/>
</g>
<!-- 26 -->
<g id="node54" class="node">
<title>26</title>
<ellipse fill="none" stroke="black" cx="2401.03" cy="-306" rx="27" ry="18"/>
<text text-anchor="middle" x="2401.03" y="-300.95" font-family="Times,serif" font-size="14.00">y</text>
</g>
<!-- 4417606256&#45;&gt;26 -->
<g id="edge53" class="edge">
<title>4417606256&#45;&gt;26</title>
<path fill="none" stroke="black" d="M2346.83,-359.7C2356.42,-350.37 2368.36,-338.76 2378.58,-328.82"/>
<polygon fill="black" stroke="black" points="2380.61,-331.76 2385.34,-322.28 2375.73,-326.74 2380.61,-331.76"/>
</g>
</g>
</svg>
