<?xml version="1.0" encoding="UTF-8" standalone="no"?>
<!DOCTYPE svg PUBLIC "-//W3C//DTD SVG 1.1//EN"
 "http://www.w3.org/Graphics/SVG/1.1/DTD/svg11.dtd">
<!-- Generated by graphviz version 8.0.5 (20230430.1635)
 -->
<!-- Pages: 1 -->
<svg width="436pt" height="652pt"
 viewBox="0.00 0.00 436.00 652.00" xmlns="http://www.w3.org/2000/svg" xmlns:xlink="http://www.w3.org/1999/xlink">
<g id="graph0" class="graph" transform="scale(1 1) rotate(0) translate(4 648)">
<polygon fill="white" stroke="none" points="-4,4 -4,-648 432,-648 432,4 -4,4"/>
<g id="clust1" class="cluster">
<title>cluster_foo</title>
<polygon fill="none" stroke="black" points="8,-8 8,-636 156,-636 156,-8 8,-8"/>
</g>
<g id="clust2" class="cluster">
<title>cluster_bar_1</title>
<polygon fill="none" stroke="black" points="296,-296 296,-492 420,-492 420,-296 296,-296"/>
</g>
<g id="clust3" class="cluster">
<title>cluster_bar_2</title>
<polygon fill="none" stroke="black" points="164,-152 164,-348 288,-348 288,-152 164,-152"/>
</g>
<!-- foo_Start -->
<g id="node1" class="node">
<title>foo_Start</title>
<ellipse fill="none" stroke="black" cx="87" cy="-610" rx="45.21" ry="18"/>
<text text-anchor="middle" x="87" y="-604.95" font-family="Times,serif" font-size="14.00">foo_Start</text>
</g>
<!-- foo_4 (Call) -->
<g id="node6" class="node">
<title>foo_4 (Call)</title>
<ellipse fill="none" stroke="black" cx="87" cy="-538" rx="56.47" ry="18"/>
<text text-anchor="middle" x="87" y="-532.95" font-family="Times,serif" font-size="14.00">foo_4 (Call)</text>
</g>
<!-- foo_Start&#45;&gt;foo_4 (Call) -->
<g id="edge1" class="edge">
<title>foo_Start&#45;&gt;foo_4 (Call)</title>
<path fill="none" stroke="black" d="M87,-591.7C87,-584.24 87,-575.32 87,-566.97"/>
<polygon fill="black" stroke="black" points="90.5,-567.1 87,-557.1 83.5,-567.1 90.5,-567.1"/>
</g>
<!-- foo_End -->
<g id="node2" class="node">
<title>foo_End</title>
<ellipse fill="none" stroke="black" cx="82" cy="-34" rx="42.65" ry="18"/>
<text text-anchor="middle" x="82" y="-28.95" font-family="Times,serif" font-size="14.00">foo_End</text>
</g>
<!-- foo_7 -->
<g id="node3" class="node">
<title>foo_7</title>
<ellipse fill="none" stroke="black" cx="82" cy="-250" rx="32.41" ry="18"/>
<text text-anchor="middle" x="82" y="-244.95" font-family="Times,serif" font-size="14.00">foo_7</text>
</g>
<!-- foo_8 -->
<g id="node4" class="node">
<title>foo_8</title>
<ellipse fill="none" stroke="black" cx="82" cy="-178" rx="32.41" ry="18"/>
<text text-anchor="middle" x="82" y="-172.95" font-family="Times,serif" font-size="14.00">foo_8</text>
</g>
<!-- foo_7&#45;&gt;foo_8 -->
<g id="edge2" class="edge">
<title>foo_7&#45;&gt;foo_8</title>
<path fill="none" stroke="black" d="M82,-231.7C82,-224.24 82,-215.32 82,-206.97"/>
<polygon fill="black" stroke="black" points="85.5,-207.1 82,-197.1 78.5,-207.1 85.5,-207.1"/>
</g>
<!-- foo_10 -->
<g id="node5" class="node">
<title>foo_10</title>
<ellipse fill="none" stroke="black" cx="82" cy="-106" rx="37.02" ry="18"/>
<text text-anchor="middle" x="82" y="-100.95" font-family="Times,serif" font-size="14.00">foo_10</text>
</g>
<!-- foo_8&#45;&gt;foo_10 -->
<g id="edge3" class="edge">
<title>foo_8&#45;&gt;foo_10</title>
<path fill="none" stroke="black" d="M82,-159.7C82,-152.24 82,-143.32 82,-134.97"/>
<polygon fill="black" stroke="black" points="85.5,-135.1 82,-125.1 78.5,-135.1 85.5,-135.1"/>
</g>
<!-- foo_10&#45;&gt;foo_End -->
<g id="edge4" class="edge">
<title>foo_10&#45;&gt;foo_End</title>
<path fill="none" stroke="black" d="M82,-87.7C82,-80.24 82,-71.32 82,-62.97"/>
<polygon fill="black" stroke="black" points="85.5,-63.1 82,-53.1 78.5,-63.1 85.5,-63.1"/>
</g>
<!-- foo_4 (Return) -->
<g id="node7" class="node">
<title>foo_4 (Return)</title>
<ellipse fill="none" stroke="black" cx="82" cy="-466" rx="66.19" ry="18"/>
<text text-anchor="middle" x="82" y="-460.95" font-family="Times,serif" font-size="14.00">foo_4 (Return)</text>
</g>
<!-- foo_4 (Call)&#45;&gt;foo_4 (Return) -->
<g id="edge9" class="edge">
<title>foo_4 (Call)&#45;&gt;foo_4 (Return)</title>
<path fill="none" stroke="black" d="M85.76,-519.7C85.23,-512.24 84.59,-503.32 84,-494.97"/>
<polygon fill="black" stroke="black" points="87.43,-494.83 83.22,-485.1 80.44,-495.33 87.43,-494.83"/>
</g>
<!-- bar_1_Start -->
<g id="node10" class="node">
<title>bar_1_Start</title>
<ellipse fill="none" stroke="black" cx="358" cy="-466" rx="53.91" ry="18"/>
<text text-anchor="middle" x="358" y="-460.95" font-family="Times,serif" font-size="14.00">bar_1_Start</text>
</g>
<!-- foo_4 (Call)&#45;&gt;bar_1_Start -->
<g id="edge8" class="edge">
<title>foo_4 (Call)&#45;&gt;bar_1_Start</title>
<path fill="none" stroke="black" d="M129.94,-525.91C177.59,-513.6 254.5,-493.73 305.65,-480.52"/>
<polygon fill="black" stroke="black" points="306.34,-483.7 315.15,-477.81 304.59,-476.92 306.34,-483.7"/>
</g>
<!-- foo_5 (Call) -->
<g id="node8" class="node">
<title>foo_5 (Call)</title>
<ellipse fill="none" stroke="black" cx="82" cy="-394" rx="56.47" ry="18"/>
<text text-anchor="middle" x="82" y="-388.95" font-family="Times,serif" font-size="14.00">foo_5 (Call)</text>
</g>
<!-- foo_4 (Return)&#45;&gt;foo_5 (Call) -->
<g id="edge10" class="edge">
<title>foo_4 (Return)&#45;&gt;foo_5 (Call)</title>
<path fill="none" stroke="black" d="M82,-447.7C82,-440.24 82,-431.32 82,-422.97"/>
<polygon fill="black" stroke="black" points="85.5,-423.1 82,-413.1 78.5,-423.1 85.5,-423.1"/>
</g>
<!-- foo_5 (Return) -->
<g id="node9" class="node">
<title>foo_5 (Return)</title>
<ellipse fill="none" stroke="black" cx="82" cy="-322" rx="66.19" ry="18"/>
<text text-anchor="middle" x="82" y="-316.95" font-family="Times,serif" font-size="14.00">foo_5 (Return)</text>
</g>
<!-- foo_5 (Call)&#45;&gt;foo_5 (Return) -->
<g id="edge15" class="edge">
<title>foo_5 (Call)&#45;&gt;foo_5 (Return)</title>
<path fill="none" stroke="black" d="M82,-375.7C82,-368.24 82,-359.32 82,-350.97"/>
<polygon fill="black" stroke="black" points="85.5,-351.1 82,-341.1 78.5,-351.1 85.5,-351.1"/>
</g>
<!-- bar_2_Start -->
<g id="node13" class="node">
<title>bar_2_Start</title>
<ellipse fill="none" stroke="black" cx="226" cy="-322" rx="53.91" ry="18"/>
<text text-anchor="middle" x="226" y="-316.95" font-family="Times,serif" font-size="14.00">bar_2_Start</text>
</g>
<!-- foo_5 (Call)&#45;&gt;bar_2_Start -->
<g id="edge14" class="edge">
<title>foo_5 (Call)&#45;&gt;bar_2_Start</title>
<path fill="none" stroke="black" d="M112.19,-378.33C133.84,-367.8 163.2,-353.53 186.68,-342.11"/>
<polygon fill="black" stroke="black" points="187.88,-344.93 195.35,-337.42 184.82,-338.64 187.88,-344.93"/>
</g>
<!-- foo_5 (Return)&#45;&gt;foo_7 -->
<g id="edge16" class="edge">
<title>foo_5 (Return)&#45;&gt;foo_7</title>
<path fill="none" stroke="black" d="M82,-303.7C82,-296.24 82,-287.32 82,-278.97"/>
<polygon fill="black" stroke="black" points="85.5,-279.1 82,-269.1 78.5,-279.1 85.5,-279.1"/>
</g>
<!-- bar_1_3 -->
<g id="node12" class="node">
<title>bar_1_3</title>
<ellipse fill="none" stroke="black" cx="357" cy="-394" rx="41.12" ry="18"/>
<text text-anchor="middle" x="357" y="-388.95" font-family="Times,serif" font-size="14.00">bar_1_3</text>
</g>
<!-- bar_1_Start&#45;&gt;bar_1_3 -->
<g id="edge5" class="edge">
<title>bar_1_Start&#45;&gt;bar_1_3</title>
<path fill="none" stroke="black" d="M357.75,-447.7C357.65,-440.24 357.52,-431.32 357.4,-422.97"/>
<polygon fill="black" stroke="black" points="360.89,-423.05 357.24,-413.1 353.89,-423.15 360.89,-423.05"/>
</g>
<!-- bar_1_End -->
<g id="node11" class="node">
<title>bar_1_End</title>
<ellipse fill="none" stroke="black" cx="356" cy="-322" rx="51.35" ry="18"/>
<text text-anchor="middle" x="356" y="-316.95" font-family="Times,serif" font-size="14.00">bar_1_End</text>
</g>
<!-- bar_1_End&#45;&gt;foo_4 (Return) -->
<g id="edge6" class="edge">
<title>bar_1_End&#45;&gt;foo_4 (Return)</title>
<path fill="none" stroke="black" d="M328.24,-337.39C279.33,-362.74 177.64,-415.43 121.45,-444.55"/>
<polygon fill="black" stroke="black" points="120.11,-441.82 112.84,-449.53 123.33,-448.04 120.11,-441.82"/>
</g>
<!-- bar_1_3&#45;&gt;bar_1_End -->
<g id="edge7" class="edge">
<title>bar_1_3&#45;&gt;bar_1_End</title>
<path fill="none" stroke="black" d="M356.75,-375.7C356.65,-368.24 356.52,-359.32 356.4,-350.97"/>
<polygon fill="black" stroke="black" points="359.89,-351.05 356.24,-341.1 352.89,-351.15 359.89,-351.05"/>
</g>
<!-- bar_2_3 -->
<g id="node15" class="node">
<title>bar_2_3</title>
<ellipse fill="none" stroke="black" cx="225" cy="-250" rx="41.12" ry="18"/>
<text text-anchor="middle" x="225" y="-244.95" font-family="Times,serif" font-size="14.00">bar_2_3</text>
</g>
<!-- bar_2_Start&#45;&gt;bar_2_3 -->
<g id="edge11" class="edge">
<title>bar_2_Start&#45;&gt;bar_2_3</title>
<path fill="none" stroke="black" d="M225.75,-303.7C225.65,-296.24 225.52,-287.32 225.4,-278.97"/>
<polygon fill="black" stroke="black" points="228.89,-279.05 225.24,-269.1 221.89,-279.15 228.89,-279.05"/>
</g>
<!-- bar_2_End -->
<g id="node14" class="node">
<title>bar_2_End</title>
<ellipse fill="none" stroke="black" cx="224" cy="-178" rx="51.35" ry="18"/>
<text text-anchor="middle" x="224" y="-172.95" font-family="Times,serif" font-size="14.00">bar_2_End</text>
</g>
<!-- bar_2_End&#45;&gt;foo_5 (Return) -->
<g id="edge12" class="edge">
<title>bar_2_End&#45;&gt;foo_5 (Return)</title>
<path fill="none" stroke="black" d="M207.61,-195.39C182.77,-220.23 135.43,-267.57 106.49,-296.51"/>
<polygon fill="black" stroke="black" points="104.44,-293.61 99.85,-303.15 109.39,-298.56 104.44,-293.61"/>
</g>
<!-- bar_2_3&#45;&gt;bar_2_End -->
<g id="edge13" class="edge">
<title>bar_2_3&#45;&gt;bar_2_End</title>
<path fill="none" stroke="black" d="M224.75,-231.7C224.65,-224.24 224.52,-215.32 224.4,-206.97"/>
<polygon fill="black" stroke="black" points="227.89,-207.05 224.24,-197.1 220.89,-207.15 227.89,-207.05"/>
</g>
</g>
</svg>
