<?xml version="1.0" encoding="UTF-8" standalone="no"?>
<!DOCTYPE svg PUBLIC "-//W3C//DTD SVG 1.1//EN"
 "http://www.w3.org/Graphics/SVG/1.1/DTD/svg11.dtd">
<!-- Generated by graphviz version 8.0.5 (20230430.1635)
 -->
<!-- Pages: 1 -->
<svg width="430pt" height="580pt"
 viewBox="0.00 0.00 430.00 580.00" xmlns="http://www.w3.org/2000/svg" xmlns:xlink="http://www.w3.org/1999/xlink">
<g id="graph0" class="graph" transform="scale(1 1) rotate(0) translate(4 576)">
<polygon fill="white" stroke="none" points="-4,4 -4,-576 426,-576 426,4 -4,4"/>
<g id="clust1" class="cluster">
<title>cluster_foo</title>
<polygon fill="none" stroke="black" points="8,-8 8,-564 212,-564 212,-8 8,-8"/>
</g>
<g id="clust2" class="cluster">
<title>cluster_bar</title>
<polygon fill="none" stroke="black" points="252,-80 252,-348 414,-348 414,-80 252,-80"/>
</g>
<!-- foo_Start -->
<g id="node1" class="node">
<title>foo_Start</title>
<ellipse fill="none" stroke="black" cx="138" cy="-538" rx="45.21" ry="18"/>
<text text-anchor="middle" x="138" y="-532.95" font-family="Times,serif" font-size="14.00">foo_Start</text>
</g>
<!-- foo_3 -->
<g id="node3" class="node">
<title>foo_3</title>
<ellipse fill="none" stroke="black" cx="138" cy="-466" rx="32.41" ry="18"/>
<text text-anchor="middle" x="138" y="-460.95" font-family="Times,serif" font-size="14.00">foo_3</text>
</g>
<!-- foo_Start&#45;&gt;foo_3 -->
<g id="edge1" class="edge">
<title>foo_Start&#45;&gt;foo_3</title>
<path fill="none" stroke="black" d="M138,-519.7C138,-512.24 138,-503.32 138,-494.97"/>
<polygon fill="black" stroke="black" points="141.5,-495.1 138,-485.1 134.5,-495.1 141.5,-495.1"/>
</g>
<!-- foo_End -->
<g id="node2" class="node">
<title>foo_End</title>
<ellipse fill="none" stroke="black" cx="161" cy="-178" rx="42.65" ry="18"/>
<text text-anchor="middle" x="161" y="-172.95" font-family="Times,serif" font-size="14.00">foo_End</text>
</g>
<!-- foo_5 (Call) -->
<g id="node9" class="node">
<title>foo_5 (Call)</title>
<ellipse fill="none" stroke="black" cx="138" cy="-394" rx="56.47" ry="18"/>
<text text-anchor="middle" x="138" y="-388.95" font-family="Times,serif" font-size="14.00">foo_5 (Call)</text>
</g>
<!-- foo_3&#45;&gt;foo_5 (Call) -->
<g id="edge2" class="edge">
<title>foo_3&#45;&gt;foo_5 (Call)</title>
<path fill="none" stroke="black" d="M138,-447.7C138,-440.24 138,-431.32 138,-422.97"/>
<polygon fill="black" stroke="black" points="141.5,-423.1 138,-413.1 134.5,-423.1 141.5,-423.1"/>
</g>
<!-- foo_6 -->
<g id="node4" class="node">
<title>foo_6</title>
<ellipse fill="none" stroke="black" cx="69" cy="-250" rx="32.41" ry="18"/>
<text text-anchor="middle" x="69" y="-244.95" font-family="Times,serif" font-size="14.00">foo_6</text>
</g>
<!-- foo_7 -->
<g id="node6" class="node">
<title>foo_7</title>
<ellipse fill="none" stroke="black" cx="68" cy="-178" rx="32.41" ry="18"/>
<text text-anchor="middle" x="68" y="-172.95" font-family="Times,serif" font-size="14.00">foo_7</text>
</g>
<!-- foo_6&#45;&gt;foo_7 -->
<g id="edge3" class="edge">
<title>foo_6&#45;&gt;foo_7</title>
<path fill="none" stroke="black" d="M68.75,-231.7C68.65,-224.24 68.52,-215.32 68.4,-206.97"/>
<polygon fill="black" stroke="black" points="71.89,-207.05 68.24,-197.1 64.89,-207.15 71.89,-207.05"/>
</g>
<!-- foo_12 -->
<g id="node5" class="node">
<title>foo_12</title>
<ellipse fill="none" stroke="black" cx="158" cy="-250" rx="37.02" ry="18"/>
<text text-anchor="middle" x="158" y="-244.95" font-family="Times,serif" font-size="14.00">foo_12</text>
</g>
<!-- foo_12&#45;&gt;foo_End -->
<g id="edge4" class="edge">
<title>foo_12&#45;&gt;foo_End</title>
<path fill="none" stroke="black" d="M158.74,-231.7C159.06,-224.24 159.44,-215.32 159.8,-206.97"/>
<polygon fill="black" stroke="black" points="163.34,-207.25 160.27,-197.1 156.34,-206.95 163.34,-207.25"/>
</g>
<!-- foo_8 -->
<g id="node7" class="node">
<title>foo_8</title>
<ellipse fill="none" stroke="black" cx="68" cy="-106" rx="32.41" ry="18"/>
<text text-anchor="middle" x="68" y="-100.95" font-family="Times,serif" font-size="14.00">foo_8</text>
</g>
<!-- foo_7&#45;&gt;foo_8 -->
<g id="edge5" class="edge">
<title>foo_7&#45;&gt;foo_8</title>
<path fill="none" stroke="black" d="M68,-159.7C68,-152.24 68,-143.32 68,-134.97"/>
<polygon fill="black" stroke="black" points="71.5,-135.1 68,-125.1 64.5,-135.1 71.5,-135.1"/>
</g>
<!-- foo_9 -->
<g id="node8" class="node">
<title>foo_9</title>
<ellipse fill="none" stroke="black" cx="68" cy="-34" rx="32.41" ry="18"/>
<text text-anchor="middle" x="68" y="-28.95" font-family="Times,serif" font-size="14.00">foo_9</text>
</g>
<!-- foo_7&#45;&gt;foo_9 -->
<g id="edge6" class="edge">
<title>foo_7&#45;&gt;foo_9</title>
<path fill="none" stroke="black" d="M84.05,-161.97C93.29,-152.17 104.04,-138.53 109,-124 115.32,-105.49 116.06,-98.24 109,-80 105.65,-71.36 99.79,-63.36 93.52,-56.57"/>
<polygon fill="black" stroke="black" points="96.67,-54.77 87.11,-50.2 91.73,-59.73 96.67,-54.77"/>
</g>
<!-- foo_8&#45;&gt;foo_9 -->
<g id="edge7" class="edge">
<title>foo_8&#45;&gt;foo_9</title>
<path fill="none" stroke="black" d="M68,-87.7C68,-80.24 68,-71.32 68,-62.97"/>
<polygon fill="black" stroke="black" points="71.5,-63.1 68,-53.1 64.5,-63.1 71.5,-63.1"/>
</g>
<!-- foo_9&#45;&gt;foo_5 (Call) -->
<g id="edge8" class="edge">
<title>foo_9&#45;&gt;foo_5 (Call)</title>
<path fill="none" stroke="black" d="M50.39,-49.41C41.83,-57.46 32.27,-68.23 27,-80 9.3,-119.56 17,-133.66 17,-177 17,-251 17,-251 17,-251 17,-298.71 30.95,-312.66 63,-348 72.26,-358.21 84.37,-366.83 96.16,-373.71"/>
<polygon fill="black" stroke="black" points="94.04,-377.09 104.48,-378.86 97.42,-370.96 94.04,-377.09"/>
</g>
<!-- foo_5 (Return) -->
<g id="node10" class="node">
<title>foo_5 (Return)</title>
<ellipse fill="none" stroke="black" cx="138" cy="-322" rx="66.19" ry="18"/>
<text text-anchor="middle" x="138" y="-316.95" font-family="Times,serif" font-size="14.00">foo_5 (Return)</text>
</g>
<!-- foo_5 (Call)&#45;&gt;foo_5 (Return) -->
<g id="edge16" class="edge">
<title>foo_5 (Call)&#45;&gt;foo_5 (Return)</title>
<path fill="none" stroke="black" d="M138,-375.7C138,-368.24 138,-359.32 138,-350.97"/>
<polygon fill="black" stroke="black" points="141.5,-351.1 138,-341.1 134.5,-351.1 141.5,-351.1"/>
</g>
<!-- bar_Start -->
<g id="node11" class="node">
<title>bar_Start</title>
<ellipse fill="none" stroke="black" cx="305" cy="-322" rx="44.7" ry="18"/>
<text text-anchor="middle" x="305" y="-316.95" font-family="Times,serif" font-size="14.00">bar_Start</text>
</g>
<!-- foo_5 (Call)&#45;&gt;bar_Start -->
<g id="edge15" class="edge">
<title>foo_5 (Call)&#45;&gt;bar_Start</title>
<path fill="none" stroke="black" d="M170.99,-379.17C197.92,-367.89 236.06,-351.9 264.77,-339.86"/>
<polygon fill="black" stroke="black" points="266.01,-342.72 273.88,-335.62 263.31,-336.26 266.01,-342.72"/>
</g>
<!-- foo_5 (Return)&#45;&gt;foo_6 -->
<g id="edge17" class="edge">
<title>foo_5 (Return)&#45;&gt;foo_6</title>
<path fill="none" stroke="black" d="M121.65,-304.41C112.59,-295.22 101.2,-283.67 91.34,-273.66"/>
<polygon fill="black" stroke="black" points="94.34,-271.7 84.82,-267.04 89.35,-276.62 94.34,-271.7"/>
</g>
<!-- foo_5 (Return)&#45;&gt;foo_12 -->
<g id="edge18" class="edge">
<title>foo_5 (Return)&#45;&gt;foo_12</title>
<path fill="none" stroke="black" d="M142.94,-303.7C145.1,-296.15 147.68,-287.12 150.09,-278.68"/>
<polygon fill="black" stroke="black" points="153.73,-279.68 153.11,-269.1 147,-277.76 153.73,-279.68"/>
</g>
<!-- bar_3 -->
<g id="node13" class="node">
<title>bar_3</title>
<ellipse fill="none" stroke="black" cx="305" cy="-250" rx="31.9" ry="18"/>
<text text-anchor="middle" x="305" y="-244.95" font-family="Times,serif" font-size="14.00">bar_3</text>
</g>
<!-- bar_Start&#45;&gt;bar_3 -->
<g id="edge9" class="edge">
<title>bar_Start&#45;&gt;bar_3</title>
<path fill="none" stroke="black" d="M305,-303.7C305,-296.24 305,-287.32 305,-278.97"/>
<polygon fill="black" stroke="black" points="308.5,-279.1 305,-269.1 301.5,-279.1 308.5,-279.1"/>
</g>
<!-- bar_End -->
<g id="node12" class="node">
<title>bar_End</title>
<ellipse fill="none" stroke="black" cx="302" cy="-106" rx="42.14" ry="18"/>
<text text-anchor="middle" x="302" y="-100.95" font-family="Times,serif" font-size="14.00">bar_End</text>
</g>
<!-- bar_End&#45;&gt;foo_5 (Return) -->
<g id="edge10" class="edge">
<title>bar_End&#45;&gt;foo_5 (Return)</title>
<path fill="none" stroke="black" d="M284.28,-122.39C273.62,-132.33 260.35,-145.98 251,-160 221.95,-203.55 235.78,-226.4 204,-268 195.2,-279.52 183.39,-290.03 172.18,-298.6"/>
<polygon fill="black" stroke="black" points="170.4,-296.3 164.4,-305.04 174.53,-301.95 170.4,-296.3"/>
</g>
<!-- bar_4 -->
<g id="node14" class="node">
<title>bar_4</title>
<ellipse fill="none" stroke="black" cx="292" cy="-178" rx="31.9" ry="18"/>
<text text-anchor="middle" x="292" y="-172.95" font-family="Times,serif" font-size="14.00">bar_4</text>
</g>
<!-- bar_3&#45;&gt;bar_4 -->
<g id="edge11" class="edge">
<title>bar_3&#45;&gt;bar_4</title>
<path fill="none" stroke="black" d="M301.79,-231.7C300.39,-224.15 298.71,-215.12 297.14,-206.68"/>
<polygon fill="black" stroke="black" points="300.44,-206.3 295.18,-197.1 293.56,-207.58 300.44,-206.3"/>
</g>
<!-- bar_6 -->
<g id="node15" class="node">
<title>bar_6</title>
<ellipse fill="none" stroke="black" cx="374" cy="-178" rx="31.9" ry="18"/>
<text text-anchor="middle" x="374" y="-172.95" font-family="Times,serif" font-size="14.00">bar_6</text>
</g>
<!-- bar_3&#45;&gt;bar_6 -->
<g id="edge12" class="edge">
<title>bar_3&#45;&gt;bar_6</title>
<path fill="none" stroke="black" d="M319.97,-233.81C329.19,-224.45 341.19,-212.28 351.54,-201.79"/>
<polygon fill="black" stroke="black" points="353.53,-204.74 358.06,-195.16 348.54,-199.82 353.53,-204.74"/>
</g>
<!-- bar_4&#45;&gt;bar_End -->
<g id="edge13" class="edge">
<title>bar_4&#45;&gt;bar_End</title>
<path fill="none" stroke="black" d="M294.47,-159.7C295.54,-152.24 296.81,-143.32 298,-134.97"/>
<polygon fill="black" stroke="black" points="301.61,-135.5 299.56,-125.1 294.68,-134.51 301.61,-135.5"/>
</g>
<!-- bar_6&#45;&gt;bar_End -->
<g id="edge14" class="edge">
<title>bar_6&#45;&gt;bar_End</title>
<path fill="none" stroke="black" d="M358.38,-161.81C348.95,-152.65 336.75,-140.78 326.1,-130.43"/>
<polygon fill="black" stroke="black" points="328.95,-128.35 319.34,-123.89 324.07,-133.37 328.95,-128.35"/>
</g>
</g>
</svg>
