<?xml version="1.0" encoding="UTF-8" standalone="no"?>
<!DOCTYPE svg PUBLIC "-//W3C//DTD SVG 1.1//EN"
 "http://www.w3.org/Graphics/SVG/1.1/DTD/svg11.dtd">
<!-- Generated by graphviz version 8.0.5 (20230430.1635)
 -->
<!-- Pages: 1 -->
<svg width="286pt" height="508pt"
 viewBox="0.00 0.00 286.00 508.00" xmlns="http://www.w3.org/2000/svg" xmlns:xlink="http://www.w3.org/1999/xlink">
<g id="graph0" class="graph" transform="scale(1 1) rotate(0) translate(4 504)">
<polygon fill="white" stroke="none" points="-4,4 -4,-504 282,-504 282,4 -4,4"/>
<g id="clust1" class="cluster">
<title>cluster_foo</title>
<polygon fill="none" stroke="black" points="8,-8 8,-492 156,-492 156,-8 8,-8"/>
</g>
<g id="clust2" class="cluster">
<title>cluster_bar</title>
<polygon fill="none" stroke="black" points="164,-80 164,-276 270,-276 270,-80 164,-80"/>
</g>
<!-- foo_Start -->
<g id="node1" class="node">
<title>foo_Start</title>
<ellipse fill="none" stroke="black" cx="87" cy="-466" rx="45.21" ry="18"/>
<text text-anchor="middle" x="87" y="-460.95" font-family="Times,serif" font-size="14.00">foo_Start</text>
</g>
<!-- foo_4 -->
<g id="node3" class="node">
<title>foo_4</title>
<ellipse fill="none" stroke="black" cx="87" cy="-394" rx="32.41" ry="18"/>
<text text-anchor="middle" x="87" y="-388.95" font-family="Times,serif" font-size="14.00">foo_4</text>
</g>
<!-- foo_Start&#45;&gt;foo_4 -->
<g id="edge1" class="edge">
<title>foo_Start&#45;&gt;foo_4</title>
<path fill="none" stroke="black" d="M87,-447.7C87,-440.24 87,-431.32 87,-422.97"/>
<polygon fill="black" stroke="black" points="90.5,-423.1 87,-413.1 83.5,-423.1 90.5,-423.1"/>
</g>
<!-- foo_End -->
<g id="node2" class="node">
<title>foo_End</title>
<ellipse fill="none" stroke="black" cx="82" cy="-34" rx="42.65" ry="18"/>
<text text-anchor="middle" x="82" y="-28.95" font-family="Times,serif" font-size="14.00">foo_End</text>
</g>
<!-- foo_5 (Call) -->
<g id="node6" class="node">
<title>foo_5 (Call)</title>
<ellipse fill="none" stroke="black" cx="87" cy="-322" rx="56.47" ry="18"/>
<text text-anchor="middle" x="87" y="-316.95" font-family="Times,serif" font-size="14.00">foo_5 (Call)</text>
</g>
<!-- foo_4&#45;&gt;foo_5 (Call) -->
<g id="edge2" class="edge">
<title>foo_4&#45;&gt;foo_5 (Call)</title>
<path fill="none" stroke="black" d="M87,-375.7C87,-368.24 87,-359.32 87,-350.97"/>
<polygon fill="black" stroke="black" points="90.5,-351.1 87,-341.1 83.5,-351.1 90.5,-351.1"/>
</g>
<!-- foo_6 -->
<g id="node4" class="node">
<title>foo_6</title>
<ellipse fill="none" stroke="black" cx="82" cy="-178" rx="32.41" ry="18"/>
<text text-anchor="middle" x="82" y="-172.95" font-family="Times,serif" font-size="14.00">foo_6</text>
</g>
<!-- foo_8 -->
<g id="node5" class="node">
<title>foo_8</title>
<ellipse fill="none" stroke="black" cx="82" cy="-106" rx="32.41" ry="18"/>
<text text-anchor="middle" x="82" y="-100.95" font-family="Times,serif" font-size="14.00">foo_8</text>
</g>
<!-- foo_6&#45;&gt;foo_8 -->
<g id="edge3" class="edge">
<title>foo_6&#45;&gt;foo_8</title>
<path fill="none" stroke="black" d="M82,-159.7C82,-152.24 82,-143.32 82,-134.97"/>
<polygon fill="black" stroke="black" points="85.5,-135.1 82,-125.1 78.5,-135.1 85.5,-135.1"/>
</g>
<!-- foo_8&#45;&gt;foo_End -->
<g id="edge4" class="edge">
<title>foo_8&#45;&gt;foo_End</title>
<path fill="none" stroke="black" d="M82,-87.7C82,-80.24 82,-71.32 82,-62.97"/>
<polygon fill="black" stroke="black" points="85.5,-63.1 82,-53.1 78.5,-63.1 85.5,-63.1"/>
</g>
<!-- foo_5 (Return) -->
<g id="node7" class="node">
<title>foo_5 (Return)</title>
<ellipse fill="none" stroke="black" cx="82" cy="-250" rx="66.19" ry="18"/>
<text text-anchor="middle" x="82" y="-244.95" font-family="Times,serif" font-size="14.00">foo_5 (Return)</text>
</g>
<!-- foo_5 (Call)&#45;&gt;foo_5 (Return) -->
<g id="edge9" class="edge">
<title>foo_5 (Call)&#45;&gt;foo_5 (Return)</title>
<path fill="none" stroke="black" d="M85.76,-303.7C85.23,-296.24 84.59,-287.32 84,-278.97"/>
<polygon fill="black" stroke="black" points="87.43,-278.83 83.22,-269.1 80.44,-279.33 87.43,-278.83"/>
</g>
<!-- bar_Start -->
<g id="node8" class="node">
<title>bar_Start</title>
<ellipse fill="none" stroke="black" cx="217" cy="-250" rx="44.7" ry="18"/>
<text text-anchor="middle" x="217" y="-244.95" font-family="Times,serif" font-size="14.00">bar_Start</text>
</g>
<!-- foo_5 (Call)&#45;&gt;bar_Start -->
<g id="edge8" class="edge">
<title>foo_5 (Call)&#45;&gt;bar_Start</title>
<path fill="none" stroke="black" d="M114.89,-305.98C134.34,-295.51 160.46,-281.45 181.41,-270.16"/>
<polygon fill="black" stroke="black" points="182.78,-272.86 189.93,-265.04 179.46,-266.7 182.78,-272.86"/>
</g>
<!-- foo_5 (Return)&#45;&gt;foo_6 -->
<g id="edge10" class="edge">
<title>foo_5 (Return)&#45;&gt;foo_6</title>
<path fill="none" stroke="black" d="M82,-231.7C82,-224.24 82,-215.32 82,-206.97"/>
<polygon fill="black" stroke="black" points="85.5,-207.1 82,-197.1 78.5,-207.1 85.5,-207.1"/>
</g>
<!-- bar_3 -->
<g id="node10" class="node">
<title>bar_3</title>
<ellipse fill="none" stroke="black" cx="216" cy="-178" rx="31.9" ry="18"/>
<text text-anchor="middle" x="216" y="-172.95" font-family="Times,serif" font-size="14.00">bar_3</text>
</g>
<!-- bar_Start&#45;&gt;bar_3 -->
<g id="edge5" class="edge">
<title>bar_Start&#45;&gt;bar_3</title>
<path fill="none" stroke="black" d="M216.75,-231.7C216.65,-224.24 216.52,-215.32 216.4,-206.97"/>
<polygon fill="black" stroke="black" points="219.89,-207.05 216.24,-197.1 212.89,-207.15 219.89,-207.05"/>
</g>
<!-- bar_End -->
<g id="node9" class="node">
<title>bar_End</title>
<ellipse fill="none" stroke="black" cx="215" cy="-106" rx="42.14" ry="18"/>
<text text-anchor="middle" x="215" y="-100.95" font-family="Times,serif" font-size="14.00">bar_End</text>
</g>
<!-- bar_End&#45;&gt;foo_5 (Return) -->
<g id="edge6" class="edge">
<title>bar_End&#45;&gt;foo_5 (Return)</title>
<path fill="none" stroke="black" d="M200.06,-122.95C176.92,-147.66 132.24,-195.36 104.98,-224.47"/>
<polygon fill="black" stroke="black" points="103.06,-221.46 98.78,-231.15 108.17,-226.25 103.06,-221.46"/>
</g>
<!-- bar_3&#45;&gt;bar_End -->
<g id="edge7" class="edge">
<title>bar_3&#45;&gt;bar_End</title>
<path fill="none" stroke="black" d="M215.75,-159.7C215.65,-152.24 215.52,-143.32 215.4,-134.97"/>
<polygon fill="black" stroke="black" points="218.89,-135.05 215.24,-125.1 211.89,-135.15 218.89,-135.05"/>
</g>
</g>
</svg>
