<?xml version="1.0" encoding="UTF-8" standalone="no"?>
<!DOCTYPE svg PUBLIC "-//W3C//DTD SVG 1.1//EN"
 "http://www.w3.org/Graphics/SVG/1.1/DTD/svg11.dtd">
<!-- Generated by graphviz version 8.0.5 (20230430.1635)
 -->
<!-- Pages: 1 -->
<svg width="286pt" height="652pt"
 viewBox="0.00 0.00 286.00 652.00" xmlns="http://www.w3.org/2000/svg" xmlns:xlink="http://www.w3.org/1999/xlink">
<g id="graph0" class="graph" transform="scale(1 1) rotate(0) translate(4 648)">
<polygon fill="white" stroke="none" points="-4,4 -4,-648 282,-648 282,4 -4,4"/>
<g id="clust1" class="cluster">
<title>cluster_foo</title>
<polygon fill="none" stroke="black" points="8,-8 8,-636 156,-636 156,-8 8,-8"/>
</g>
<g id="clust2" class="cluster">
<title>cluster_bar</title>
<polygon fill="none" stroke="black" points="164,-296 164,-492 270,-492 270,-296 164,-296"/>
</g>
<!-- foo_Start -->
<g id="node1" class="node">
<title>foo_Start</title>
<ellipse fill="none" stroke="black" cx="87" cy="-610" rx="45.21" ry="18"/>
<text text-anchor="middle" x="87" y="-604.95" font-family="Times,serif" font-size="14.00">foo_Start</text>
</g>
<!-- foo_4 (Call) -->
<g id="node6" class="node">
<title>foo_4 (Call)</title>
<ellipse fill="none" stroke="black" cx="87" cy="-538" rx="56.47" ry="18"/>
<text text-anchor="middle" x="87" y="-532.95" font-family="Times,serif" font-size="14.00">foo_4 (Call)</text>
</g>
<!-- foo_Start&#45;&gt;foo_4 (Call) -->
<g id="edge1" class="edge">
<title>foo_Start&#45;&gt;foo_4 (Call)</title>
<path fill="none" stroke="black" d="M87,-591.7C87,-584.24 87,-575.32 87,-566.97"/>
<polygon fill="black" stroke="black" points="90.5,-567.1 87,-557.1 83.5,-567.1 90.5,-567.1"/>
</g>
<!-- foo_End -->
<g id="node2" class="node">
<title>foo_End</title>
<ellipse fill="none" stroke="black" cx="82" cy="-34" rx="42.65" ry="18"/>
<text text-anchor="middle" x="82" y="-28.95" font-family="Times,serif" font-size="14.00">foo_End</text>
</g>
<!-- foo_7 -->
<g id="node3" class="node">
<title>foo_7</title>
<ellipse fill="none" stroke="black" cx="82" cy="-250" rx="32.41" ry="18"/>
<text text-anchor="middle" x="82" y="-244.95" font-family="Times,serif" font-size="14.00">foo_7</text>
</g>
<!-- foo_8 -->
<g id="node4" class="node">
<title>foo_8</title>
<ellipse fill="none" stroke="black" cx="82" cy="-178" rx="32.41" ry="18"/>
<text text-anchor="middle" x="82" y="-172.95" font-family="Times,serif" font-size="14.00">foo_8</text>
</g>
<!-- foo_7&#45;&gt;foo_8 -->
<g id="edge2" class="edge">
<title>foo_7&#45;&gt;foo_8</title>
<path fill="none" stroke="black" d="M82,-231.7C82,-224.24 82,-215.32 82,-206.97"/>
<polygon fill="black" stroke="black" points="85.5,-207.1 82,-197.1 78.5,-207.1 85.5,-207.1"/>
</g>
<!-- foo_10 -->
<g id="node5" class="node">
<title>foo_10</title>
<ellipse fill="none" stroke="black" cx="82" cy="-106" rx="37.02" ry="18"/>
<text text-anchor="middle" x="82" y="-100.95" font-family="Times,serif" font-size="14.00">foo_10</text>
</g>
<!-- foo_8&#45;&gt;foo_10 -->
<g id="edge3" class="edge">
<title>foo_8&#45;&gt;foo_10</title>
<path fill="none" stroke="black" d="M82,-159.7C82,-152.24 82,-143.32 82,-134.97"/>
<polygon fill="black" stroke="black" points="85.5,-135.1 82,-125.1 78.5,-135.1 85.5,-135.1"/>
</g>
<!-- foo_10&#45;&gt;foo_End -->
<g id="edge4" class="edge">
<title>foo_10&#45;&gt;foo_End</title>
<path fill="none" stroke="black" d="M82,-87.7C82,-80.24 82,-71.32 82,-62.97"/>
<polygon fill="black" stroke="black" points="85.5,-63.1 82,-53.1 78.5,-63.1 85.5,-63.1"/>
</g>
<!-- foo_4 (Return) -->
<g id="node7" class="node">
<title>foo_4 (Return)</title>
<ellipse fill="none" stroke="black" cx="82" cy="-466" rx="66.19" ry="18"/>
<text text-anchor="middle" x="82" y="-460.95" font-family="Times,serif" font-size="14.00">foo_4 (Return)</text>
</g>
<!-- foo_4 (Call)&#45;&gt;foo_4 (Return) -->
<g id="edge9" class="edge">
<title>foo_4 (Call)&#45;&gt;foo_4 (Return)</title>
<path fill="none" stroke="black" d="M85.76,-519.7C85.23,-512.24 84.59,-503.32 84,-494.97"/>
<polygon fill="black" stroke="black" points="87.43,-494.83 83.22,-485.1 80.44,-495.33 87.43,-494.83"/>
</g>
<!-- bar_Start -->
<g id="node10" class="node">
<title>bar_Start</title>
<ellipse fill="none" stroke="black" cx="217" cy="-466" rx="44.7" ry="18"/>
<text text-anchor="middle" x="217" y="-460.95" font-family="Times,serif" font-size="14.00">bar_Start</text>
</g>
<!-- foo_4 (Call)&#45;&gt;bar_Start -->
<g id="edge8" class="edge">
<title>foo_4 (Call)&#45;&gt;bar_Start</title>
<path fill="none" stroke="black" d="M114.89,-521.98C134.34,-511.51 160.46,-497.45 181.41,-486.16"/>
<polygon fill="black" stroke="black" points="182.78,-488.86 189.93,-481.04 179.46,-482.7 182.78,-488.86"/>
</g>
<!-- foo_5 (Call) -->
<g id="node8" class="node">
<title>foo_5 (Call)</title>
<ellipse fill="none" stroke="black" cx="73" cy="-394" rx="56.47" ry="18"/>
<text text-anchor="middle" x="73" y="-388.95" font-family="Times,serif" font-size="14.00">foo_5 (Call)</text>
</g>
<!-- foo_4 (Return)&#45;&gt;foo_5 (Call) -->
<g id="edge10" class="edge">
<title>foo_4 (Return)&#45;&gt;foo_5 (Call)</title>
<path fill="none" stroke="black" d="M79.78,-447.7C78.82,-440.24 77.67,-431.32 76.6,-422.97"/>
<polygon fill="black" stroke="black" points="79.95,-422.58 75.2,-413.1 73,-423.47 79.95,-422.58"/>
</g>
<!-- foo_5 (Return) -->
<g id="node9" class="node">
<title>foo_5 (Return)</title>
<ellipse fill="none" stroke="black" cx="82" cy="-322" rx="66.19" ry="18"/>
<text text-anchor="middle" x="82" y="-316.95" font-family="Times,serif" font-size="14.00">foo_5 (Return)</text>
</g>
<!-- foo_5 (Call)&#45;&gt;foo_5 (Return) -->
<g id="edge15" class="edge">
<title>foo_5 (Call)&#45;&gt;foo_5 (Return)</title>
<path fill="none" stroke="black" d="M75.22,-375.7C76.18,-368.24 77.33,-359.32 78.4,-350.97"/>
<polygon fill="black" stroke="black" points="82,-351.47 79.8,-341.1 75.05,-350.58 82,-351.47"/>
</g>
<!-- foo_5 (Call)&#45;&gt;bar_Start -->
<g id="edge14" class="edge">
<title>foo_5 (Call)&#45;&gt;bar_Start</title>
<path fill="none" stroke="black" d="M103.17,-409.66C125.38,-420.46 155.72,-435.21 179.49,-446.77"/>
<polygon fill="black" stroke="black" points="177.71,-450.28 188.24,-451.5 180.77,-443.98 177.71,-450.28"/>
</g>
<!-- foo_5 (Return)&#45;&gt;foo_7 -->
<g id="edge16" class="edge">
<title>foo_5 (Return)&#45;&gt;foo_7</title>
<path fill="none" stroke="black" d="M82,-303.7C82,-296.24 82,-287.32 82,-278.97"/>
<polygon fill="black" stroke="black" points="85.5,-279.1 82,-269.1 78.5,-279.1 85.5,-279.1"/>
</g>
<!-- bar_3 -->
<g id="node12" class="node">
<title>bar_3</title>
<ellipse fill="none" stroke="black" cx="217" cy="-394" rx="31.9" ry="18"/>
<text text-anchor="middle" x="217" y="-388.95" font-family="Times,serif" font-size="14.00">bar_3</text>
</g>
<!-- bar_Start&#45;&gt;bar_3 -->
<g id="edge5" class="edge">
<title>bar_Start&#45;&gt;bar_3</title>
<path fill="none" stroke="black" d="M211.08,-447.7C210.31,-440.24 210.08,-431.32 210.37,-422.97"/>
<polygon fill="black" stroke="black" points="213.92,-423.32 211.1,-413.1 206.94,-422.85 213.92,-423.32"/>
</g>
<!-- bar_Start&#45;&gt;bar_3 -->
<g id="edge11" class="edge">
<title>bar_Start&#45;&gt;bar_3</title>
<path fill="none" stroke="black" d="M222.92,-447.7C223.69,-440.24 223.92,-431.32 223.63,-422.97"/>
<polygon fill="black" stroke="black" points="227.06,-422.85 222.9,-413.1 220.08,-423.32 227.06,-422.85"/>
</g>
<!-- bar_End -->
<g id="node11" class="node">
<title>bar_End</title>
<ellipse fill="none" stroke="black" cx="215" cy="-322" rx="42.14" ry="18"/>
<text text-anchor="middle" x="215" y="-316.95" font-family="Times,serif" font-size="14.00">bar_End</text>
</g>
<!-- bar_End&#45;&gt;foo_4 (Return) -->
<g id="edge6" class="edge">
<title>bar_End&#45;&gt;foo_4 (Return)</title>
<path fill="none" stroke="black" d="M201.56,-339.51C186.55,-357.71 161.3,-387.64 138,-412 128.7,-421.73 118.06,-431.99 108.58,-440.87"/>
<polygon fill="black" stroke="black" points="106.56,-437.9 101.6,-447.26 111.32,-443.03 106.56,-437.9"/>
</g>
<!-- bar_End&#45;&gt;foo_5 (Return) -->
<g id="edge12" class="edge">
<title>bar_End&#45;&gt;foo_5 (Return)</title>
<path fill="none" stroke="black" d="M172.4,-322C168.04,-322 163.69,-322 159.33,-322"/>
<polygon fill="black" stroke="black" points="159.5,-318.5 149.5,-322 159.5,-325.5 159.5,-318.5"/>
</g>
<!-- bar_3&#45;&gt;bar_End -->
<g id="edge7" class="edge">
<title>bar_3&#45;&gt;bar_End</title>
<path fill="none" stroke="black" d="M210.64,-376.05C209.63,-368.6 209.12,-359.64 209.17,-351.22"/>
<polygon fill="black" stroke="black" points="212.7,-351.4 209.58,-341.28 205.71,-351.14 212.7,-351.4"/>
</g>
<!-- bar_3&#45;&gt;bar_End -->
<g id="edge13" class="edge">
<title>bar_3&#45;&gt;bar_End</title>
<path fill="none" stroke="black" d="M222.39,-376.05C222.97,-368.6 222.97,-359.64 222.44,-351.22"/>
<polygon fill="black" stroke="black" points="225.83,-350.9 221.41,-341.28 218.86,-351.56 225.83,-350.9"/>
</g>
</g>
</svg>
