<?xml version="1.0" encoding="UTF-8" standalone="no"?>
<!DOCTYPE svg PUBLIC "-//W3C//DTD SVG 1.1//EN"
 "http://www.w3.org/Graphics/SVG/1.1/DTD/svg11.dtd">
<!-- Generated by graphviz version 8.0.5 (20230430.1635)
 -->
<!-- Pages: 1 -->
<svg width="1636pt" height="404pt"
 viewBox="0.00 0.00 1636.21 404.00" xmlns="http://www.w3.org/2000/svg" xmlns:xlink="http://www.w3.org/1999/xlink">
<g id="graph0" class="graph" transform="scale(1 1) rotate(0) translate(4 400)">
<polygon fill="white" stroke="none" points="-4,4 -4,-400 1632.21,-400 1632.21,4 -4,4"/>
<!-- 11099582816 -->
<g id="node1" class="node">
<title>11099582816</title>
<ellipse fill="none" stroke="black" cx="488.03" cy="-378" rx="156.78" ry="18"/>
<text text-anchor="start" x="381.15" y="-372.95" font-family="Times,serif" font-size="14.00">class &#39;javalang.tree.MethodDeclaration&#39;</text>
</g>
<!-- 11099581280 -->
<g id="node2" class="node">
<title>11099581280</title>
<ellipse fill="none" stroke="black" cx="124.03" cy="-306" rx="124.03" ry="18"/>
<text text-anchor="start" x="41.15" y="-300.95" font-family="Times,serif" font-size="14.00">class &#39;javalang.tree.BasicType&#39;</text>
</g>
<!-- 11099582816&#45;&gt;11099581280 -->
<g id="edge1" class="edge">
<title>11099582816&#45;&gt;11099581280</title>
<path fill="none" stroke="black" d="M409.94,-361.98C350.33,-350.52 268.35,-334.75 207.45,-323.04"/>
<polygon fill="black" stroke="black" points="208.2,-319.43 197.72,-320.98 206.88,-326.31 208.2,-319.43"/>
</g>
<!-- 1 -->
<g id="node3" class="node">
<title>1</title>
<ellipse fill="none" stroke="black" cx="293.03" cy="-306" rx="27" ry="18"/>
<text text-anchor="middle" x="293.03" y="-300.95" font-family="Times,serif" font-size="14.00">sum</text>
</g>
<!-- 11099582816&#45;&gt;1 -->
<g id="edge2" class="edge">
<title>11099582816&#45;&gt;1</title>
<path fill="none" stroke="black" d="M433.72,-360.67C402.72,-350.91 363.33,-337.76 329.03,-324 327.35,-323.33 325.64,-322.62 323.93,-321.88"/>
<polygon fill="black" stroke="black" points="325.72,-318.4 315.16,-317.49 322.85,-324.78 325.72,-318.4"/>
</g>
<!-- 11099582576 -->
<g id="node4" class="node">
<title>11099582576</title>
<ellipse fill="none" stroke="black" cx="488.03" cy="-306" rx="149.62" ry="18"/>
<text text-anchor="start" x="386.4" y="-300.95" font-family="Times,serif" font-size="14.00">class &#39;javalang.tree.FormalParameter&#39;</text>
</g>
<!-- 11099582816&#45;&gt;11099582576 -->
<g id="edge3" class="edge">
<title>11099582816&#45;&gt;11099582576</title>
<path fill="none" stroke="black" d="M488.03,-359.7C488.03,-352.24 488.03,-343.32 488.03,-334.97"/>
<polygon fill="black" stroke="black" points="491.53,-335.1 488.03,-325.1 484.53,-335.1 491.53,-335.1"/>
</g>
<!-- 11099585600 -->
<g id="node5" class="node">
<title>11099585600</title>
<ellipse fill="none" stroke="black" cx="805.03" cy="-306" rx="149.62" ry="18"/>
<text text-anchor="start" x="703.4" y="-300.95" font-family="Times,serif" font-size="14.00">class &#39;javalang.tree.FormalParameter&#39;</text>
</g>
<!-- 11099582816&#45;&gt;11099585600 -->
<g id="edge4" class="edge">
<title>11099582816&#45;&gt;11099585600</title>
<path fill="none" stroke="black" d="M558.38,-361.46C607.59,-350.6 673.43,-336.06 724.71,-324.74"/>
<polygon fill="black" stroke="black" points="725.41,-327.95 734.42,-322.37 723.9,-321.11 725.41,-327.95"/>
</g>
<!-- 11099583152 -->
<g id="node6" class="node">
<title>11099583152</title>
<ellipse fill="none" stroke="black" cx="1120.03" cy="-306" rx="147.06" ry="18"/>
<text text-anchor="start" x="1020.28" y="-300.95" font-family="Times,serif" font-size="14.00">class &#39;javalang.tree.ReturnStatement&#39;</text>
</g>
<!-- 11099582816&#45;&gt;11099583152 -->
<g id="edge5" class="edge">
<title>11099582816&#45;&gt;11099583152</title>
<path fill="none" stroke="black" d="M598.11,-364.81C711.37,-352.26 887.14,-332.79 1002.91,-319.97"/>
<polygon fill="black" stroke="black" points="1003.02,-323.37 1012.57,-318.79 1002.25,-316.41 1003.02,-323.37"/>
</g>
<!-- 2 -->
<g id="node7" class="node">
<title>2</title>
<ellipse fill="none" stroke="black" cx="124.03" cy="-234" rx="27" ry="18"/>
<text text-anchor="middle" x="124.03" y="-228.95" font-family="Times,serif" font-size="14.00">int</text>
</g>
<!-- 11099581280&#45;&gt;2 -->
<g id="edge6" class="edge">
<title>11099581280&#45;&gt;2</title>
<path fill="none" stroke="black" d="M124.03,-287.7C124.03,-280.24 124.03,-271.32 124.03,-262.97"/>
<polygon fill="black" stroke="black" points="127.53,-263.1 124.03,-253.1 120.53,-263.1 127.53,-263.1"/>
</g>
<!-- 11099581328 -->
<g id="node8" class="node">
<title>11099581328</title>
<ellipse fill="none" stroke="black" cx="344.03" cy="-234" rx="124.03" ry="18"/>
<text text-anchor="start" x="261.15" y="-228.95" font-family="Times,serif" font-size="14.00">class &#39;javalang.tree.BasicType&#39;</text>
</g>
<!-- 11099582576&#45;&gt;11099581328 -->
<g id="edge7" class="edge">
<title>11099582576&#45;&gt;11099581328</title>
<path fill="none" stroke="black" d="M453.17,-288.05C433.48,-278.48 408.69,-266.43 387.71,-256.24"/>
<polygon fill="black" stroke="black" points="389.59,-252.77 379.07,-251.55 386.53,-259.07 389.59,-252.77"/>
</g>
<!-- 3 -->
<g id="node9" class="node">
<title>3</title>
<ellipse fill="none" stroke="black" cx="513.03" cy="-234" rx="27" ry="18"/>
<text text-anchor="middle" x="513.03" y="-228.95" font-family="Times,serif" font-size="14.00">a</text>
</g>
<!-- 11099582576&#45;&gt;3 -->
<g id="edge8" class="edge">
<title>11099582576&#45;&gt;3</title>
<path fill="none" stroke="black" d="M494.21,-287.7C497,-279.87 500.37,-270.44 503.48,-261.73"/>
<polygon fill="black" stroke="black" points="507.02,-263.22 507.09,-252.62 500.43,-260.86 507.02,-263.22"/>
</g>
<!-- 11099585552 -->
<g id="node11" class="node">
<title>11099585552</title>
<ellipse fill="none" stroke="black" cx="733.03" cy="-234" rx="124.03" ry="18"/>
<text text-anchor="start" x="650.15" y="-228.95" font-family="Times,serif" font-size="14.00">class &#39;javalang.tree.BasicType&#39;</text>
</g>
<!-- 11099585600&#45;&gt;11099585552 -->
<g id="edge10" class="edge">
<title>11099585600&#45;&gt;11099585552</title>
<path fill="none" stroke="black" d="M787.23,-287.7C778.51,-279.22 767.86,-268.86 758.31,-259.58"/>
<polygon fill="black" stroke="black" points="761.23,-257.57 751.62,-253.1 756.35,-262.58 761.23,-257.57"/>
</g>
<!-- 5 -->
<g id="node12" class="node">
<title>5</title>
<ellipse fill="none" stroke="black" cx="902.03" cy="-234" rx="27" ry="18"/>
<text text-anchor="middle" x="902.03" y="-228.95" font-family="Times,serif" font-size="14.00">b</text>
</g>
<!-- 11099585600&#45;&gt;5 -->
<g id="edge11" class="edge">
<title>11099585600&#45;&gt;5</title>
<path fill="none" stroke="black" d="M828.51,-288.05C842.72,-277.8 860.87,-264.7 875.58,-254.08"/>
<polygon fill="black" stroke="black" points="877.17,-256.53 883.23,-247.84 873.08,-250.86 877.17,-256.53"/>
</g>
<!-- 11099583008 -->
<g id="node14" class="node">
<title>11099583008</title>
<ellipse fill="none" stroke="black" cx="1120.03" cy="-234" rx="146.55" ry="18"/>
<text text-anchor="start" x="1020.65" y="-228.95" font-family="Times,serif" font-size="14.00">class &#39;javalang.tree.BinaryOperation&#39;</text>
</g>
<!-- 11099583152&#45;&gt;11099583008 -->
<g id="edge13" class="edge">
<title>11099583152&#45;&gt;11099583008</title>
<path fill="none" stroke="black" d="M1120.03,-287.7C1120.03,-280.24 1120.03,-271.32 1120.03,-262.97"/>
<polygon fill="black" stroke="black" points="1123.53,-263.1 1120.03,-253.1 1116.53,-263.1 1123.53,-263.1"/>
</g>
<!-- 4 -->
<g id="node10" class="node">
<title>4</title>
<ellipse fill="none" stroke="black" cx="344.03" cy="-162" rx="27" ry="18"/>
<text text-anchor="middle" x="344.03" y="-156.95" font-family="Times,serif" font-size="14.00">int</text>
</g>
<!-- 11099581328&#45;&gt;4 -->
<g id="edge9" class="edge">
<title>11099581328&#45;&gt;4</title>
<path fill="none" stroke="black" d="M344.03,-215.7C344.03,-208.24 344.03,-199.32 344.03,-190.97"/>
<polygon fill="black" stroke="black" points="347.53,-191.1 344.03,-181.1 340.53,-191.1 347.53,-191.1"/>
</g>
<!-- 6 -->
<g id="node13" class="node">
<title>6</title>
<ellipse fill="none" stroke="black" cx="733.03" cy="-162" rx="27" ry="18"/>
<text text-anchor="middle" x="733.03" y="-156.95" font-family="Times,serif" font-size="14.00">int</text>
</g>
<!-- 11099585552&#45;&gt;6 -->
<g id="edge12" class="edge">
<title>11099585552&#45;&gt;6</title>
<path fill="none" stroke="black" d="M733.03,-215.7C733.03,-208.24 733.03,-199.32 733.03,-190.97"/>
<polygon fill="black" stroke="black" points="736.53,-191.1 733.03,-181.1 729.53,-191.1 736.53,-191.1"/>
</g>
<!-- 7 -->
<g id="node15" class="node">
<title>7</title>
<ellipse fill="none" stroke="black" cx="928.03" cy="-162" rx="27" ry="18"/>
<text text-anchor="middle" x="928.03" y="-156.95" font-family="Times,serif" font-size="14.00">+</text>
</g>
<!-- 11099583008&#45;&gt;7 -->
<g id="edge14" class="edge">
<title>11099583008&#45;&gt;7</title>
<path fill="none" stroke="black" d="M1067.48,-216.8C1036.97,-206.98 997.97,-193.73 964.03,-180 962.35,-179.32 960.65,-178.61 958.93,-177.87"/>
<polygon fill="black" stroke="black" points="960.73,-174.39 950.17,-173.47 957.85,-180.77 960.73,-174.39"/>
</g>
<!-- 11099583104 -->
<g id="node16" class="node">
<title>11099583104</title>
<ellipse fill="none" stroke="black" cx="1120.03" cy="-162" rx="146.55" ry="18"/>
<text text-anchor="start" x="1020.65" y="-156.95" font-family="Times,serif" font-size="14.00">class &#39;javalang.tree.BinaryOperation&#39;</text>
</g>
<!-- 11099583008&#45;&gt;11099583104 -->
<g id="edge15" class="edge">
<title>11099583008&#45;&gt;11099583104</title>
<path fill="none" stroke="black" d="M1120.03,-215.7C1120.03,-208.24 1120.03,-199.32 1120.03,-190.97"/>
<polygon fill="black" stroke="black" points="1123.53,-191.1 1120.03,-181.1 1116.53,-191.1 1123.53,-191.1"/>
</g>
<!-- 11099583296 -->
<g id="node17" class="node">
<title>11099583296</title>
<ellipse fill="none" stroke="black" cx="1519.03" cy="-162" rx="109.19" ry="18"/>
<text text-anchor="start" x="1447.03" y="-156.95" font-family="Times,serif" font-size="14.00">class &#39;javalang.tree.Literal&#39;</text>
</g>
<!-- 11099583008&#45;&gt;11099583296 -->
<g id="edge16" class="edge">
<title>11099583008&#45;&gt;11099583296</title>
<path fill="none" stroke="black" d="M1201.73,-218.67C1269.91,-206.71 1366.67,-189.73 1435.37,-177.68"/>
<polygon fill="black" stroke="black" points="1435.91,-180.96 1445.15,-175.79 1434.7,-174.07 1435.91,-180.96"/>
</g>
<!-- 8 -->
<g id="node18" class="node">
<title>8</title>
<ellipse fill="none" stroke="black" cx="858.03" cy="-90" rx="27" ry="18"/>
<text text-anchor="middle" x="858.03" y="-84.95" font-family="Times,serif" font-size="14.00">+</text>
</g>
<!-- 11099583104&#45;&gt;8 -->
<g id="edge17" class="edge">
<title>11099583104&#45;&gt;8</title>
<path fill="none" stroke="black" d="M1039.89,-146.5C996.15,-137.52 941.4,-124.53 894.03,-108 892.32,-107.41 890.59,-106.75 888.86,-106.07"/>
<polygon fill="black" stroke="black" points="890.61,-102.58 880.04,-101.83 887.83,-109 890.61,-102.58"/>
</g>
<!-- 11099583248 -->
<g id="node19" class="node">
<title>11099583248</title>
<ellipse fill="none" stroke="black" cx="1057.03" cy="-90" rx="154.22" ry="18"/>
<text text-anchor="start" x="952.03" y="-84.95" font-family="Times,serif" font-size="14.00">class &#39;javalang.tree.MemberReference&#39;</text>
</g>
<!-- 11099583104&#45;&gt;11099583248 -->
<g id="edge18" class="edge">
<title>11099583104&#45;&gt;11099583248</title>
<path fill="none" stroke="black" d="M1104.46,-143.7C1096.98,-135.39 1087.88,-125.28 1079.65,-116.14"/>
<polygon fill="black" stroke="black" points="1082.71,-114.2 1073.42,-109.1 1077.51,-118.88 1082.71,-114.2"/>
</g>
<!-- 11099583200 -->
<g id="node20" class="node">
<title>11099583200</title>
<ellipse fill="none" stroke="black" cx="1383.03" cy="-90" rx="154.22" ry="18"/>
<text text-anchor="start" x="1278.03" y="-84.95" font-family="Times,serif" font-size="14.00">class &#39;javalang.tree.MemberReference&#39;</text>
</g>
<!-- 11099583104&#45;&gt;11099583200 -->
<g id="edge19" class="edge">
<title>11099583104&#45;&gt;11099583200</title>
<path fill="none" stroke="black" d="M1179.71,-145.12C1219.16,-134.61 1271.06,-120.8 1312.55,-109.76"/>
<polygon fill="black" stroke="black" points="1313.37,-112.9 1322.13,-106.94 1311.57,-106.13 1313.37,-112.9"/>
</g>
<!-- 13 -->
<g id="node25" class="node">
<title>13</title>
<ellipse fill="none" stroke="black" cx="1582.03" cy="-90" rx="27" ry="18"/>
<text text-anchor="middle" x="1582.03" y="-84.95" font-family="Times,serif" font-size="14.00">2</text>
</g>
<!-- 11099583296&#45;&gt;13 -->
<g id="edge24" class="edge">
<title>11099583296&#45;&gt;13</title>
<path fill="none" stroke="black" d="M1534.6,-143.7C1542.72,-134.68 1552.75,-123.53 1561.49,-113.82"/>
<polygon fill="black" stroke="black" points="1563.68,-116.51 1567.76,-106.74 1558.47,-111.83 1563.68,-116.51"/>
</g>
<!-- 9 -->
<g id="node21" class="node">
<title>9</title>
<ellipse fill="none" stroke="black" cx="1021.03" cy="-18" rx="27" ry="18"/>
</g>
<!-- 11099583248&#45;&gt;9 -->
<g id="edge20" class="edge">
<title>11099583248&#45;&gt;9</title>
<path fill="none" stroke="black" d="M1048.13,-71.7C1043.95,-63.58 1038.89,-53.74 1034.28,-44.76"/>
<polygon fill="black" stroke="black" points="1037.02,-43.44 1029.33,-36.14 1030.79,-46.64 1037.02,-43.44"/>
</g>
<!-- 10 -->
<g id="node22" class="node">
<title>10</title>
<ellipse fill="none" stroke="black" cx="1093.03" cy="-18" rx="27" ry="18"/>
<text text-anchor="middle" x="1093.03" y="-12.95" font-family="Times,serif" font-size="14.00">a</text>
</g>
<!-- 11099583248&#45;&gt;10 -->
<g id="edge21" class="edge">
<title>11099583248&#45;&gt;10</title>
<path fill="none" stroke="black" d="M1065.93,-71.7C1070.1,-63.58 1075.16,-53.74 1079.78,-44.76"/>
<polygon fill="black" stroke="black" points="1083.26,-46.64 1084.73,-36.14 1077.04,-43.44 1083.26,-46.64"/>
</g>
<!-- 11 -->
<g id="node23" class="node">
<title>11</title>
<ellipse fill="none" stroke="black" cx="1347.03" cy="-18" rx="27" ry="18"/>
</g>
<!-- 11099583200&#45;&gt;11 -->
<g id="edge22" class="edge">
<title>11099583200&#45;&gt;11</title>
<path fill="none" stroke="black" d="M1374.13,-71.7C1369.95,-63.58 1364.89,-53.74 1360.28,-44.76"/>
<polygon fill="black" stroke="black" points="1363.02,-43.44 1355.33,-36.14 1356.79,-46.64 1363.02,-43.44"/>
</g>
<!-- 12 -->
<g id="node24" class="node">
<title>12</title>
<ellipse fill="none" stroke="black" cx="1419.03" cy="-18" rx="27" ry="18"/>
<text text-anchor="middle" x="1419.03" y="-12.95" font-family="Times,serif" font-size="14.00">b</text>
</g>
<!-- 11099583200&#45;&gt;12 -->
<g id="edge23" class="edge">
<title>11099583200&#45;&gt;12</title>
<path fill="none" stroke="black" d="M1391.93,-71.7C1396.1,-63.58 1401.16,-53.74 1405.78,-44.76"/>
<polygon fill="black" stroke="black" points="1409.26,-46.64 1410.73,-36.14 1403.04,-43.44 1409.26,-46.64"/>
</g>
</g>
</svg>
